archivonarrow-bolditalic-otf.ufo
<glyph name="exclam" format="1">
  <advance width="273"/>
  <unicode hex="0021"/>
  <outline>
    <contour>
      <point x="123" y="686" type="line"/>
      <point x="89" y="197" type="line"/>
      <point x="171" y="197" type="line"/>
      <point x="276" y="686" type="line"/>
    </contour>
    <contour>
      <point x="54" y="137" type="line"/>
      <point x="34" y="0" type="line"/>
      <point x="172" y="0" type="line"/>
      <point x="192" y="137" type="line"/>
    </contour>
  </outline>
</glyph>
<glyph name="quotedbl" format="1">
  <advance width="389"/>
  <unicode hex="0022"/>
  <outline>
    <contour>
      <point x="265" y="539" type="line"/>
      <point x="265" y="407" type="line"/>
      <point x="344" y="407" type="line"/>
      <point x="387" y="539" type="line"/>
      <point x="408" y="686" type="line"/>
      <point x="286" y="686" type="line"/>
    </contour>
    <contour>
      <point x="84" y="539" type="line"/>
      <point x="84" y="407" type="line"/>
      <point x="163" y="407" type="line"/>
      <point x="206" y="539" type="line"/>
      <point x="227" y="686" type="line"/>
      <point x="105" y="686" type="line"/>
    </contour>
  </outline>
</glyph>
<glyph name="numbersign" format="1">
  <advance width="456"/>
  <unicode hex="0023"/>
  <outline>
    <contour>
      <point x="85" y="195" type="line"/>
      <point x="41" y="0" type="line"/>
      <point x="129" y="0" type="line"/>
      <point x="173" y="195" type="line"/>
      <point x="248" y="195" type="line"/>
      <point x="204" y="0" type="line"/>
      <point x="292" y="0" type="line"/>
      <point x="336" y="195" type="line"/>
      <point x="428" y="195" type="line"/>
      <point x="428" y="279" type="line"/>
      <point x="355" y="279" type="line"/>
      <point x="386" y="420" type="line"/>
      <point x="467" y="420" type="line"/>
      <point x="467" y="504" type="line"/>
      <point x="405" y="504" type="line"/>
      <point x="449" y="698" type="line"/>
      <point x="361" y="698" type="line"/>
      <point x="317" y="504" type="line"/>
      <point x="242" y="504" type="line"/>
      <point x="286" y="698" type="line"/>
      <point x="198" y="698" type="line"/>
      <point x="154" y="504" type="line"/>
      <point x="61" y="504" type="line"/>
      <point x="61" y="420" type="line"/>
      <point x="135" y="420" type="line"/>
      <point x="104" y="279" type="line"/>
      <point x="22" y="279" type="line"/>
      <point x="22" y="195" type="line"/>
    </contour>
    <contour>
      <point x="267" y="279" type="line"/>
      <point x="192" y="279" type="line"/>
      <point x="223" y="420" type="line"/>
      <point x="298" y="420" type="line"/>
    </contour>
  </outline>
</glyph>
<glyph name="dollar" format="1">
  <advance width="456"/>
  <unicode hex="0024"/>
  <outline>
    <contour>
      <point x="160" y="-49" type="line"/>
      <point x="209" y="-49" type="line"/>
      <point x="225" y="67" type="line"/>
      <point x="328" y="69"/>
      <point x="422" y="119"/>
      <point x="422" y="244" type="curve" smooth="yes"/>
      <point x="422" y="337"/>
      <point x="346" y="365"/>
      <point x="271" y="393" type="curve"/>
      <point x="290" y="523" type="line"/>
      <point x="322" y="513"/>
      <point x="329" y="485"/>
      <point x="329" y="451" type="curve"/>
      <point x="442" y="451" type="line"/>
      <point x="442" y="528"/>
      <point x="409" y="602"/>
      <point x="303" y="615" type="curve"/>
      <point x="318" y="723" type="line"/>
      <point x="269" y="723" type="line"/>
      <point x="254" y="616" type="line"/>
      <point x="154" y="611"/>
      <point x="72" y="555"/>
      <point x="72" y="453" type="curve" smooth="yes"/>
      <point x="72" y="359"/>
      <point x="145" y="329"/>
      <point x="209" y="303" type="curve"/>
      <point x="189" y="161" type="line"/>
      <point x="161" y="168"/>
      <point x="140" y="187"/>
      <point x="140" y="225" type="curve" smooth="yes"/>
      <point x="140" y="233"/>
      <point x="144" y="250"/>
      <point x="144" y="250" type="curve"/>
      <point x="30" y="250" type="line"/>
      <point x="30" y="250"/>
      <point x="24" y="226"/>
      <point x="24" y="203" type="curve" smooth="yes"/>
      <point x="24" y="128"/>
      <point x="82" y="80"/>
      <point x="176" y="69" type="curve"/>
    </contour>
    <contour>
      <point x="225" y="414" type="line"/>
      <point x="203" y="426"/>
      <point x="188" y="442"/>
      <point x="188" y="467" type="curve" smooth="yes"/>
      <point x="188" y="498"/>
      <point x="211" y="519"/>
      <point x="241" y="525" type="curve"/>
    </contour>
    <contour>
      <point x="256" y="282" type="line"/>
      <point x="283" y="267"/>
      <point x="303" y="249"/>
      <point x="303" y="219" type="curve" smooth="yes"/>
      <point x="303" y="179"/>
      <point x="269" y="161"/>
      <point x="238" y="157" type="curve"/>
    </contour>
  </outline>
</glyph>
<glyph name="percent" format="1">
  <advance width="729"/>
  <unicode hex="0025"/>
  <outline>
    <contour>
      <point x="195" y="337" type="curve" smooth="yes"/>
      <point x="326" y="337"/>
      <point x="352" y="477"/>
      <point x="352" y="573" type="curve" smooth="yes"/>
      <point x="352" y="667"/>
      <point x="304" y="698"/>
      <point x="225" y="698" type="curve" smooth="yes"/>
      <point x="141" y="698"/>
      <point x="68" y="636"/>
      <point x="68" y="461" type="curve" smooth="yes"/>
      <point x="68" y="367"/>
      <point x="116" y="337"/>
    </contour>
    <contour>
      <point x="593" y="686" type="line"/>
      <point x="78" y="0" type="line"/>
      <point x="163" y="0" type="line"/>
      <point x="679" y="686" type="line"/>
    </contour>
    <contour>
      <point x="195" y="410" type="curve" smooth="yes"/>
      <point x="166" y="410"/>
      <point x="156" y="432"/>
      <point x="156" y="466" type="curve" smooth="yes"/>
      <point x="156" y="479"/>
      <point x="157" y="494"/>
      <point x="162" y="525" type="curve" smooth="yes"/>
      <point x="171" y="584"/>
      <point x="185" y="625"/>
      <point x="225" y="625" type="curve" smooth="yes"/>
      <point x="254" y="625"/>
      <point x="263" y="603"/>
      <point x="263" y="569" type="curve" smooth="yes"/>
      <point x="263" y="556"/>
      <point x="262" y="541"/>
      <point x="258" y="510" type="curve" smooth="yes"/>
      <point x="250" y="451"/>
      <point x="235" y="410"/>
    </contour>
    <contour>
      <point x="405" y="112" type="curve" smooth="yes"/>
      <point x="405" y="18"/>
      <point x="453" y="-12"/>
      <point x="532" y="-12" type="curve" smooth="yes"/>
      <point x="663" y="-12"/>
      <point x="689" y="128"/>
      <point x="689" y="224" type="curve" smooth="yes"/>
      <point x="689" y="318"/>
      <point x="641" y="349"/>
      <point x="562" y="349" type="curve" smooth="yes"/>
      <point x="478" y="349"/>
      <point x="405" y="287"/>
    </contour>
    <contour>
      <point x="493" y="117" type="curve" smooth="yes"/>
      <point x="493" y="130"/>
      <point x="494" y="145"/>
      <point x="499" y="176" type="curve" smooth="yes"/>
      <point x="508" y="235"/>
      <point x="522" y="276"/>
      <point x="562" y="276" type="curve" smooth="yes"/>
      <point x="591" y="276"/>
      <point x="600" y="254"/>
      <point x="600" y="220" type="curve" smooth="yes"/>
      <point x="600" y="207"/>
      <point x="599" y="192"/>
      <point x="595" y="161" type="curve" smooth="yes"/>
      <point x="587" y="102"/>
      <point x="572" y="61"/>
      <point x="532" y="61" type="curve" smooth="yes"/>
      <point x="503" y="61"/>
      <point x="493" y="83"/>
    </contour>
  </outline>
</glyph>
<glyph name="ampersand" format="1">
  <advance width="592"/>
  <unicode hex="0026"/>
  <outline>
    <contour>
      <point x="32" y="155" type="curve" smooth="yes"/>
      <point x="32" y="50"/>
      <point x="118" y="-12"/>
      <point x="248" y="-12" type="curve" smooth="yes"/>
      <point x="388" y="-12"/>
      <point x="477" y="69"/>
      <point x="493" y="194" type="curve" smooth="yes"/>
      <point x="507" y="298" type="line"/>
      <point x="585" y="298" type="line"/>
      <point x="599" y="399" type="line"/>
      <point x="402" y="399" type="line"/>
      <point x="373" y="191" type="line" smooth="yes"/>
      <point x="364" y="126"/>
      <point x="325" y="89"/>
      <point x="254" y="89" type="curve" smooth="yes"/>
      <point x="194" y="89"/>
      <point x="157" y="115"/>
      <point x="157" y="173" type="curve" smooth="yes"/>
      <point x="157" y="273"/>
      <point x="225" y="298"/>
      <point x="287" y="298" type="curve" smooth="yes"/>
      <point x="325" y="298" type="line"/>
      <point x="339" y="399" type="line"/>
      <point x="298" y="399" type="line" smooth="yes"/>
      <point x="248" y="399"/>
      <point x="214" y="431"/>
      <point x="214" y="485" type="curve" smooth="yes"/>
      <point x="214" y="553"/>
      <point x="259" y="597"/>
      <point x="330" y="597" type="curve" smooth="yes"/>
      <point x="387" y="597"/>
      <point x="418" y="572"/>
      <point x="418" y="521" type="curve" smooth="yes"/>
      <point x="418" y="515"/>
      <point x="418" y="508"/>
      <point x="414" y="482" type="curve"/>
      <point x="533" y="482" type="line"/>
      <point x="538" y="520"/>
      <point x="539" y="529"/>
      <point x="539" y="538" type="curve" smooth="yes"/>
      <point x="539" y="636"/>
      <point x="458" y="698"/>
      <point x="336" y="698" type="curve" smooth="yes"/>
      <point x="200" y="698"/>
      <point x="91" y="622"/>
      <point x="91" y="482" type="curve" smooth="yes"/>
      <point x="91" y="419"/>
      <point x="125" y="381"/>
      <point x="173" y="356" type="curve"/>
      <point x="173" y="352" type="line"/>
      <point x="97" y="335"/>
      <point x="32" y="262"/>
    </contour>
  </outline>
</glyph>
<glyph name="quotesingle" format="1">
  <advance width="195"/>
  <unicode hex="0027"/>
  <outline>
    <contour>
      <point x="84" y="539" type="line"/>
      <point x="84" y="407" type="line"/>
      <point x="163" y="407" type="line"/>
      <point x="206" y="539" type="line"/>
      <point x="227" y="686" type="line"/>
      <point x="105" y="686" type="line"/>
    </contour>
  </outline>
</glyph>
<glyph name="parenleft" format="1">
  <advance width="273"/>
  <unicode hex="0028"/>
  <outline>
    <contour>
      <point x="34" y="183" type="curve" smooth="yes"/>
      <point x="34" y="57"/>
      <point x="67" y="-61"/>
      <point x="129" y="-157" type="curve"/>
      <point x="208" y="-157" type="line"/>
      <point x="170" y="-64"/>
      <point x="145" y="57"/>
      <point x="145" y="178" type="curve" smooth="yes"/>
      <point x="145" y="370"/>
      <point x="227" y="580"/>
      <point x="333" y="735" type="curve"/>
      <point x="254" y="735" type="line"/>
      <point x="141" y="612"/>
      <point x="65" y="452"/>
      <point x="42" y="288" type="curve" smooth="yes"/>
      <point x="37" y="253"/>
      <point x="34" y="217"/>
    </contour>
  </outline>
</glyph>
<glyph name="parenright" format="1">
  <advance width="273"/>
  <unicode hex="0029"/>
  <outline>
    <contour>
      <point x="32" y="-157" type="line"/>
      <point x="145" y="-34"/>
      <point x="221" y="126"/>
      <point x="244" y="290" type="curve" smooth="yes"/>
      <point x="249" y="325"/>
      <point x="252" y="361"/>
      <point x="252" y="395" type="curve" smooth="yes"/>
      <point x="252" y="521"/>
      <point x="219" y="639"/>
      <point x="157" y="735" type="curve"/>
      <point x="78" y="735" type="line"/>
      <point x="116" y="642"/>
      <point x="141" y="521"/>
      <point x="141" y="400" type="curve" smooth="yes"/>
      <point x="141" y="208"/>
      <point x="59" y="-2"/>
      <point x="-47" y="-157" type="curve"/>
    </contour>
  </outline>
</glyph>
<glyph name="asterisk" format="1">
  <advance width="319"/>
  <unicode hex="002A"/>
  <outline>
    <contour>
      <point x="168" y="483" type="line"/>
      <point x="144" y="381" type="line"/>
      <point x="222" y="381" type="line"/>
      <point x="226" y="483" type="line"/>
      <point x="302" y="423" type="line"/>
      <point x="351" y="491" type="line"/>
      <point x="263" y="533" type="line"/>
      <point x="363" y="577" type="line"/>
      <point x="333" y="643" type="line"/>
      <point x="241" y="585" type="line"/>
      <point x="265" y="686" type="line"/>
      <point x="187" y="686" type="line"/>
      <point x="183" y="584" type="line"/>
      <point x="107" y="643" type="line"/>
      <point x="59" y="577" type="line"/>
      <point x="145" y="533" type="line"/>
      <point x="47" y="491" type="line"/>
      <point x="76" y="423" type="line"/>
    </contour>
  </outline>
</glyph>
<glyph name="plus" format="1">
  <advance width="479"/>
  <unicode hex="002B"/>
  <outline>
    <contour>
      <point x="179" y="203" type="line"/>
      <point x="151" y="0" type="line"/>
      <point x="254" y="0" type="line"/>
      <point x="282" y="203" type="line"/>
      <point x="437" y="203" type="line"/>
      <point x="452" y="307" type="line"/>
      <point x="297" y="307" type="line"/>
      <point x="325" y="511" type="line"/>
      <point x="222" y="511" type="line"/>
      <point x="194" y="307" type="line"/>
      <point x="40" y="307" type="line"/>
      <point x="25" y="203" type="line"/>
    </contour>
  </outline>
</glyph>
<glyph name="comma" format="1">
  <advance width="228"/>
  <unicode hex="002C"/>
  <outline>
    <contour>
      <point x="35" y="137" type="line"/>
      <point x="16" y="0" type="line"/>
      <point x="67" y="0" type="line"/>
      <point x="-6" y="-156" type="line"/>
      <point x="66" y="-156" type="line"/>
      <point x="156" y="12" type="line"/>
      <point x="173" y="137" type="line"/>
    </contour>
  </outline>
</glyph>
<glyph name="period" format="1">
  <advance width="228"/>
  <unicode hex="002E"/>
  <outline>
    <contour>
      <point x="34" y="137" type="line"/>
      <point x="15" y="0" type="line"/>
      <point x="153" y="0" type="line"/>
      <point x="172" y="137" type="line"/>
    </contour>
  </outline>
</glyph>
<glyph name="slash" format="1">
  <advance width="228"/>
  <unicode hex="002F"/>
  <outline>
    <contour>
      <point x="210" y="735" type="line"/>
      <point x="-42" y="-49" type="line"/>
      <point x="43" y="-49" type="line"/>
      <point x="295" y="735" type="line"/>
    </contour>
  </outline>
</glyph>
<glyph name="zero" format="1">
  <advance width="456"/>
  <unicode hex="0030"/>
  <outline>
    <contour>
      <point x="201" y="-12" type="curve" smooth="yes"/>
      <point x="318" y="-12"/>
      <point x="399" y="64"/>
      <point x="437" y="343" type="curve" smooth="yes"/>
      <point x="445" y="398"/>
      <point x="448" y="445"/>
      <point x="448" y="485" type="curve" smooth="yes"/>
      <point x="448" y="649"/>
      <point x="383" y="698"/>
      <point x="280" y="698" type="curve" smooth="yes"/>
      <point x="162" y="698"/>
      <point x="82" y="622"/>
      <point x="45" y="343" type="curve" smooth="yes"/>
      <point x="37" y="287"/>
      <point x="33" y="240"/>
      <point x="33" y="199" type="curve" smooth="yes"/>
      <point x="33" y="37"/>
      <point x="97" y="-12"/>
    </contour>
    <contour>
      <point x="205" y="89" type="curve" smooth="yes"/>
      <point x="166" y="89"/>
      <point x="151" y="117"/>
      <point x="151" y="177" type="curve" smooth="yes"/>
      <point x="151" y="248"/>
      <point x="164" y="313"/>
      <point x="173" y="378" type="curve" smooth="yes"/>
      <point x="193" y="528"/>
      <point x="216" y="597"/>
      <point x="276" y="597" type="curve" smooth="yes"/>
      <point x="316" y="597"/>
      <point x="329" y="565"/>
      <point x="329" y="500" type="curve" smooth="yes"/>
      <point x="329" y="468"/>
      <point x="325" y="428"/>
      <point x="308" y="308" type="curve"/>
      <point x="287" y="158"/>
      <point x="265" y="89"/>
    </contour>
  </outline>
</glyph>
<glyph name="one" format="1">
  <advance width="456"/>
  <unicode hex="0031"/>
  <outline>
    <contour>
      <point x="25" y="101" type="line"/>
      <point x="12" y="0" type="line"/>
      <point x="422" y="0" type="line"/>
      <point x="436" y="101" type="line"/>
      <point x="296" y="101" type="line"/>
      <point x="378" y="686" type="line"/>
      <point x="320" y="686" type="line"/>
      <point x="251" y="646"/>
      <point x="152" y="615"/>
      <point x="95" y="609" type="curve"/>
      <point x="84" y="529" type="line"/>
      <point x="238" y="529" type="line"/>
      <point x="177" y="101" type="line"/>
    </contour>
  </outline>
</glyph>
<glyph name="two" format="1">
  <advance width="456"/>
  <unicode hex="0032"/>
  <outline>
    <contour>
      <point x="-4" y="0" type="line"/>
      <point x="384" y="0" type="line"/>
      <point x="400" y="112" type="line"/>
      <point x="164" y="112" type="line"/>
      <point x="223" y="202"/>
      <point x="457" y="339"/>
      <point x="457" y="550" type="curve"/>
      <point x="454" y="654"/>
      <point x="384" y="698"/>
      <point x="287" y="698" type="curve" smooth="yes"/>
      <point x="144" y="698"/>
      <point x="68" y="582"/>
      <point x="68" y="450" type="curve"/>
      <point x="189" y="450" type="line"/>
      <point x="194" y="491" type="line" smooth="yes"/>
      <point x="201" y="547"/>
      <point x="227" y="595"/>
      <point x="276" y="595" type="curve" smooth="yes"/>
      <point x="317" y="595"/>
      <point x="331" y="564"/>
      <point x="331" y="535" type="curve" smooth="yes"/>
      <point x="331" y="359"/>
      <point x="41" y="267"/>
      <point x="0" y="24" type="curve" smooth="yes"/>
    </contour>
  </outline>
</glyph>
<glyph name="three" format="1">
  <advance width="456"/>
  <unicode hex="0033"/>
  <outline>
    <contour>
      <point x="24" y="154" type="curve" smooth="yes"/>
      <point x="24" y="52"/>
      <point x="87" y="-12"/>
      <point x="209" y="-12" type="curve" smooth="yes"/>
      <point x="328" y="-12"/>
      <point x="425" y="77"/>
      <point x="425" y="220" type="curve" smooth="yes"/>
      <point x="425" y="290"/>
      <point x="392" y="333"/>
      <point x="346" y="352" type="curve"/>
      <point x="346" y="356" type="line"/>
      <point x="407" y="388"/>
      <point x="458" y="440"/>
      <point x="458" y="542" type="curve" smooth="yes"/>
      <point x="458" y="645"/>
      <point x="390" y="698"/>
      <point x="284" y="698" type="curve" smooth="yes"/>
      <point x="180" y="698"/>
      <point x="91" y="624"/>
      <point x="79" y="482" type="curve"/>
      <point x="202" y="482" type="line"/>
      <point x="213" y="565"/>
      <point x="240" y="597"/>
      <point x="282" y="597" type="curve" smooth="yes"/>
      <point x="314" y="597"/>
      <point x="333" y="577"/>
      <point x="333" y="533" type="curve" smooth="yes"/>
      <point x="333" y="443"/>
      <point x="289" y="399"/>
      <point x="249" y="399" type="curve" smooth="yes"/>
      <point x="214" y="399" type="line"/>
      <point x="200" y="298" type="line"/>
      <point x="233" y="298" type="line" smooth="yes"/>
      <point x="270" y="298"/>
      <point x="301" y="281"/>
      <point x="301" y="221" type="curve" smooth="yes"/>
      <point x="301" y="131"/>
      <point x="261" y="89"/>
      <point x="211" y="89" type="curve" smooth="yes"/>
      <point x="169" y="89"/>
      <point x="148" y="116"/>
      <point x="148" y="163" type="curve" smooth="yes"/>
      <point x="148" y="172"/>
      <point x="149" y="181"/>
      <point x="153" y="212" type="curve"/>
      <point x="29" y="212" type="line"/>
      <point x="25" y="180"/>
      <point x="24" y="167"/>
    </contour>
  </outline>
</glyph>
<glyph name="four" format="1">
  <advance width="456"/>
  <unicode hex="0034"/>
  <outline>
    <contour>
      <point x="3" y="155" type="line"/>
      <point x="247" y="155" type="line"/>
      <point x="225" y="0" type="line"/>
      <point x="344" y="0" type="line"/>
      <point x="366" y="155" type="line"/>
      <point x="435" y="155" type="line"/>
      <point x="449" y="256" type="line"/>
      <point x="379" y="256" type="line"/>
      <point x="423" y="564" type="line"/>
      <point x="370" y="564" type="line"/>
      <point x="351" y="511"/>
      <point x="311" y="430"/>
      <point x="278" y="378" type="curve"/>
      <point x="261" y="256" type="line"/>
      <point x="119" y="256" type="line"/>
      <point x="165" y="310"/>
      <point x="306" y="520"/>
      <point x="369" y="698" type="curve"/>
      <point x="247" y="698" type="line"/>
      <point x="185" y="546"/>
      <point x="105" y="378"/>
      <point x="17" y="251" type="curve"/>
    </contour>
  </outline>
</glyph>
<glyph name="five" format="1">
  <advance width="456"/>
  <unicode hex="0035"/>
  <outline>
    <contour>
      <point x="24" y="168" type="curve" smooth="yes"/>
      <point x="24" y="55"/>
      <point x="92" y="-12"/>
      <point x="205" y="-12" type="curve" smooth="yes"/>
      <point x="331" y="-12"/>
      <point x="432" y="94"/>
      <point x="432" y="278" type="curve" smooth="yes"/>
      <point x="432" y="392"/>
      <point x="373" y="446"/>
      <point x="293" y="446" type="curve" smooth="yes"/>
      <point x="246" y="446"/>
      <point x="213" y="428"/>
      <point x="191" y="412" type="curve"/>
      <point x="224" y="574" type="line"/>
      <point x="448" y="574" type="line"/>
      <point x="464" y="686" type="line"/>
      <point x="135" y="686" type="line"/>
      <point x="59" y="306" type="line"/>
      <point x="172" y="290" type="line"/>
      <point x="191" y="323"/>
      <point x="216" y="348"/>
      <point x="253" y="348" type="curve" smooth="yes"/>
      <point x="285" y="348"/>
      <point x="308" y="317"/>
      <point x="308" y="260" type="curve" smooth="yes"/>
      <point x="308" y="147"/>
      <point x="257" y="88"/>
      <point x="210" y="88" type="curve" smooth="yes"/>
      <point x="170" y="88"/>
      <point x="148" y="122"/>
      <point x="148" y="177" type="curve" smooth="yes"/>
      <point x="148" y="188"/>
      <point x="149" y="200"/>
      <point x="151" y="213" type="curve"/>
      <point x="27" y="213" type="line"/>
      <point x="25" y="197"/>
      <point x="24" y="182"/>
    </contour>
  </outline>
</glyph>
<glyph name="six" format="1">
  <advance width="456"/>
  <unicode hex="0036"/>
  <outline>
    <contour>
      <point x="38" y="202" type="curve" smooth="yes"/>
      <point x="38" y="42"/>
      <point x="105" y="-12"/>
      <point x="215" y="-12" type="curve" smooth="yes"/>
      <point x="331" y="-12"/>
      <point x="427" y="96"/>
      <point x="427" y="264" type="curve" smooth="yes"/>
      <point x="427" y="363"/>
      <point x="383" y="431"/>
      <point x="289" y="431" type="curve" smooth="yes"/>
      <point x="246" y="431"/>
      <point x="204" y="411"/>
      <point x="177" y="377" type="curve"/>
      <point x="197" y="511"/>
      <point x="215" y="597"/>
      <point x="277" y="597" type="curve" smooth="yes"/>
      <point x="311" y="597"/>
      <point x="324" y="572"/>
      <point x="324" y="526" type="curve" smooth="yes"/>
      <point x="324" y="511"/>
      <point x="323" y="494"/>
      <point x="320" y="475" type="curve"/>
      <point x="442" y="475" type="line"/>
      <point x="445" y="494"/>
      <point x="446" y="512"/>
      <point x="446" y="530" type="curve" smooth="yes"/>
      <point x="446" y="628"/>
      <point x="398" y="698"/>
      <point x="284" y="698" type="curve" smooth="yes"/>
      <point x="167" y="698"/>
      <point x="85" y="609"/>
      <point x="47" y="323" type="curve" smooth="yes"/>
      <point x="41" y="277"/>
      <point x="38" y="237"/>
    </contour>
    <contour>
      <point x="214" y="89" type="curve" smooth="yes"/>
      <point x="176" y="89"/>
      <point x="158" y="123"/>
      <point x="158" y="173" type="curve" smooth="yes"/>
      <point x="158" y="265"/>
      <point x="195" y="333"/>
      <point x="248" y="333" type="curve" smooth="yes"/>
      <point x="286" y="333"/>
      <point x="303" y="300"/>
      <point x="303" y="250" type="curve" smooth="yes"/>
      <point x="303" y="202"/>
      <point x="285" y="89"/>
    </contour>
  </outline>
</glyph>
<glyph name="seven" format="1">
  <advance width="456"/>
  <unicode hex="0037"/>
  <outline>
    <contour>
      <point x="205" y="0" type="line"/>
      <point x="208" y="24"/>
      <point x="208" y="32"/>
      <point x="211" y="51" type="curve" smooth="yes"/>
      <point x="239" y="261"/>
      <point x="378" y="469"/>
      <point x="484" y="605" type="curve"/>
      <point x="496" y="686" type="line"/>
      <point x="90" y="686" type="line"/>
      <point x="74" y="574" type="line"/>
      <point x="351" y="574" type="line"/>
      <point x="228" y="435"/>
      <point x="100" y="220"/>
      <point x="69" y="0" type="curve"/>
    </contour>
  </outline>
</glyph>
<glyph name="eight" format="1">
  <advance width="456"/>
  <unicode hex="0038"/>
  <outline>
    <contour>
      <point x="21" y="149" type="curve" smooth="yes"/>
      <point x="21" y="57"/>
      <point x="74" y="-12"/>
      <point x="202" y="-12" type="curve" smooth="yes"/>
      <point x="346" y="-12"/>
      <point x="418" y="99"/>
      <point x="418" y="225" type="curve" smooth="yes"/>
      <point x="418" y="281"/>
      <point x="398" y="326"/>
      <point x="351" y="352" type="curve"/>
      <point x="413" y="392"/>
      <point x="449" y="468"/>
      <point x="449" y="538" type="curve" smooth="yes"/>
      <point x="449" y="622"/>
      <point x="398" y="698"/>
      <point x="280" y="698" type="curve" smooth="yes"/>
      <point x="152" y="698"/>
      <point x="80" y="591"/>
      <point x="80" y="470" type="curve" smooth="yes"/>
      <point x="80" y="421"/>
      <point x="97" y="378"/>
      <point x="134" y="352" type="curve"/>
      <point x="55" y="315"/>
      <point x="21" y="230"/>
    </contour>
    <contour>
      <point x="250" y="400" type="curve" smooth="yes"/>
      <point x="217" y="400"/>
      <point x="199" y="423"/>
      <point x="199" y="469" type="curve" smooth="yes"/>
      <point x="199" y="523"/>
      <point x="219" y="598"/>
      <point x="277" y="598" type="curve" smooth="yes"/>
      <point x="309" y="598"/>
      <point x="328" y="575"/>
      <point x="328" y="531" type="curve" smooth="yes"/>
      <point x="328" y="445"/>
      <point x="292" y="400"/>
    </contour>
    <contour>
      <point x="145" y="163" type="curve" smooth="yes"/>
      <point x="145" y="222"/>
      <point x="169" y="301"/>
      <point x="236" y="301" type="curve" smooth="yes"/>
      <point x="276" y="301"/>
      <point x="296" y="274"/>
      <point x="296" y="225" type="curve" smooth="yes"/>
      <point x="296" y="136"/>
      <point x="258" y="88"/>
      <point x="206" y="88" type="curve" smooth="yes"/>
      <point x="167" y="88"/>
      <point x="145" y="114"/>
    </contour>
  </outline>
</glyph>
<glyph name="nine" format="1">
  <advance width="456"/>
  <unicode hex="0039"/>
  <outline>
    <contour>
      <point x="38" y="156" type="curve" smooth="yes"/>
      <point x="38" y="58"/>
      <point x="86" y="-12"/>
      <point x="200" y="-12" type="curve" smooth="yes"/>
      <point x="317" y="-12"/>
      <point x="399" y="77"/>
      <point x="437" y="363" type="curve" smooth="yes"/>
      <point x="443" y="409"/>
      <point x="446" y="449"/>
      <point x="446" y="484" type="curve" smooth="yes"/>
      <point x="446" y="644"/>
      <point x="379" y="698"/>
      <point x="269" y="698" type="curve" smooth="yes"/>
      <point x="153" y="698"/>
      <point x="57" y="590"/>
      <point x="57" y="422" type="curve" smooth="yes"/>
      <point x="57" y="323"/>
      <point x="101" y="255"/>
      <point x="195" y="255" type="curve" smooth="yes"/>
      <point x="238" y="255"/>
      <point x="280" y="275"/>
      <point x="307" y="309" type="curve"/>
      <point x="287" y="175"/>
      <point x="269" y="89"/>
      <point x="207" y="89" type="curve" smooth="yes"/>
      <point x="173" y="89"/>
      <point x="160" y="114"/>
      <point x="160" y="160" type="curve" smooth="yes"/>
      <point x="160" y="175"/>
      <point x="161" y="192"/>
      <point x="164" y="211" type="curve"/>
      <point x="42" y="211" type="line"/>
      <point x="39" y="192"/>
      <point x="38" y="174"/>
    </contour>
    <contour>
      <point x="236" y="353" type="curve" smooth="yes"/>
      <point x="198" y="353"/>
      <point x="181" y="386"/>
      <point x="181" y="436" type="curve" smooth="yes"/>
      <point x="181" y="484"/>
      <point x="199" y="597"/>
      <point x="270" y="597" type="curve" smooth="yes"/>
      <point x="308" y="597"/>
      <point x="326" y="563"/>
      <point x="326" y="513" type="curve" smooth="yes"/>
      <point x="326" y="421"/>
      <point x="289" y="353"/>
    </contour>
  </outline>
</glyph>
<glyph name="colon" format="1">
  <advance width="273"/>
  <unicode hex="003A"/>
  <outline>
    <contour>
      <point x="96" y="526" type="line"/>
      <point x="77" y="389" type="line"/>
      <point x="215" y="389" type="line"/>
      <point x="234" y="526" type="line"/>
    </contour>
    <contour>
      <point x="42" y="137" type="line"/>
      <point x="23" y="0" type="line"/>
      <point x="161" y="0" type="line"/>
      <point x="180" y="137" type="line"/>
    </contour>
  </outline>
</glyph>
<glyph name="semicolon" format="1">
  <advance width="273"/>
  <unicode hex="003B"/>
  <outline>
    <contour>
      <point x="102" y="526" type="line"/>
      <point x="83" y="389" type="line"/>
      <point x="221" y="389" type="line"/>
      <point x="240" y="526" type="line"/>
    </contour>
    <contour>
      <point x="46" y="137" type="line"/>
      <point x="27" y="0" type="line"/>
      <point x="78" y="0" type="line"/>
      <point x="5" y="-156" type="line"/>
      <point x="77" y="-156" type="line"/>
      <point x="167" y="12" type="line"/>
      <point x="184" y="137" type="line"/>
    </contour>
  </outline>
</glyph>
<glyph name="less" format="1">
  <advance width="479"/>
  <unicode hex="003C"/>
  <outline>
    <contour>
      <point x="42" y="324" type="line"/>
      <point x="25" y="197" type="line"/>
      <point x="408" y="-9" type="line"/>
      <point x="424" y="109" type="line"/>
      <point x="135" y="261" type="line"/>
      <point x="467" y="413" type="line"/>
      <point x="483" y="531" type="line"/>
    </contour>
  </outline>
</glyph>
<glyph name="equal" format="1">
  <advance width="479"/>
  <unicode hex="003D"/>
  <outline>
    <contour>
      <point x="55" y="412" type="line"/>
      <point x="40" y="308" type="line"/>
      <point x="452" y="308" type="line"/>
      <point x="467" y="412" type="line"/>
    </contour>
    <contour>
      <point x="25" y="199" type="line"/>
      <point x="10" y="96" type="line"/>
      <point x="422" y="96" type="line"/>
      <point x="437" y="199" type="line"/>
    </contour>
  </outline>
</glyph>
<glyph name="greater" format="1">
  <advance width="479"/>
  <unicode hex="003E"/>
  <outline>
    <contour>
      <point x="12" y="109" type="line"/>
      <point x="-3" y="-9" type="line"/>
      <point x="437" y="197" type="line"/>
      <point x="454" y="324" type="line"/>
      <point x="71" y="531" type="line"/>
      <point x="55" y="413" type="line"/>
      <point x="345" y="261" type="line"/>
    </contour>
  </outline>
</glyph>
<glyph name="question" format="1">
  <advance width="501"/>
  <unicode hex="003F"/>
  <outline>
    <contour>
      <point x="181" y="197" type="line"/>
      <point x="306" y="197" type="line"/>
      <point x="310" y="225" type="line" smooth="yes"/>
      <point x="327" y="341"/>
      <point x="477" y="363"/>
      <point x="477" y="548" type="curve" smooth="yes"/>
      <point x="477" y="638"/>
      <point x="409" y="698"/>
      <point x="294" y="698" type="curve" smooth="yes"/>
      <point x="147" y="698"/>
      <point x="67" y="586"/>
      <point x="67" y="459" type="curve"/>
      <point x="192" y="459" type="line"/>
      <point x="192" y="516"/>
      <point x="213" y="591"/>
      <point x="281" y="591" type="curve" smooth="yes"/>
      <point x="334" y="591"/>
      <point x="344" y="550"/>
      <point x="344" y="524" type="curve" smooth="yes"/>
      <point x="344" y="402"/>
      <point x="203" y="354"/>
      <point x="187" y="240" type="curve" smooth="yes"/>
    </contour>
    <contour>
      <point x="168" y="137" type="line"/>
      <point x="148" y="0" type="line"/>
      <point x="285" y="0" type="line"/>
      <point x="305" y="137" type="line"/>
    </contour>
  </outline>
</glyph>
<glyph name="at" format="1">
  <advance width="800"/>
  <unicode hex="0040"/>
  <outline>
    <contour>
      <point x="558" y="22" type="curve" smooth="yes"/>
      <point x="719" y="22"/>
      <point x="784" y="209"/>
      <point x="784" y="369" type="curve" smooth="yes"/>
      <point x="784" y="563"/>
      <point x="727" y="698"/>
      <point x="458" y="698" type="curve" smooth="yes"/>
      <point x="197" y="698"/>
      <point x="33" y="524"/>
      <point x="33" y="194" type="curve" smooth="yes"/>
      <point x="33" y="-53"/>
      <point x="167" y="-154"/>
      <point x="388" y="-154" type="curve" smooth="yes"/>
      <point x="438" y="-154"/>
      <point x="492" y="-140"/>
      <point x="503" y="-136" type="curve"/>
      <point x="511" y="-69" type="line"/>
      <point x="511" y="-69"/>
      <point x="469" y="-89"/>
      <point x="379" y="-89" type="curve" smooth="yes"/>
      <point x="219" y="-89"/>
      <point x="101" y="-18"/>
      <point x="101" y="196" type="curve" smooth="yes"/>
      <point x="101" y="520"/>
      <point x="263" y="633"/>
      <point x="475" y="633" type="curve" smooth="yes"/>
      <point x="658" y="633"/>
      <point x="716" y="538"/>
      <point x="716" y="368" type="curve" smooth="yes"/>
      <point x="716" y="274"/>
      <point x="682" y="109"/>
      <point x="590" y="109" type="curve" smooth="yes"/>
      <point x="562" y="109"/>
      <point x="551" y="122"/>
      <point x="551" y="149" type="curve" smooth="yes"/>
      <point x="551" y="161"/>
      <point x="604" y="503"/>
      <point x="605" y="510" type="curve"/>
      <point x="521" y="510" type="line"/>
      <point x="502" y="453" type="line"/>
      <point x="485" y="496"/>
      <point x="452" y="521"/>
      <point x="403" y="521" type="curve" smooth="yes"/>
      <point x="313" y="521"/>
      <point x="222" y="421"/>
      <point x="222" y="191" type="curve" smooth="yes"/>
      <point x="222" y="78"/>
      <point x="270" y="22"/>
      <point x="351" y="22" type="curve" smooth="yes"/>
      <point x="382" y="22"/>
      <point x="423" y="39"/>
      <point x="449" y="77" type="curve"/>
      <point x="462" y="52"/>
      <point x="492" y="22"/>
    </contour>
    <contour>
      <point x="379" y="115" type="curve" smooth="yes"/>
      <point x="344" y="115"/>
      <point x="330" y="147"/>
      <point x="330" y="205" type="curve" smooth="yes"/>
      <point x="330" y="258"/>
      <point x="348" y="428"/>
      <point x="423" y="428" type="curve" smooth="yes"/>
      <point x="461" y="428"/>
      <point x="471" y="395"/>
      <point x="471" y="340" type="curve" smooth="yes"/>
      <point x="471" y="271"/>
      <point x="455" y="115"/>
    </contour>
  </outline>
</glyph>
<glyph name="B" format="1">
  <advance width="592"/>
  <unicode hex="0042"/>
  <outline>
    <contour>
      <point x="28" y="0" type="line"/>
      <point x="327" y="0" type="line" smooth="yes"/>
      <point x="440" y="0"/>
      <point x="551" y="77"/>
      <point x="551" y="204" type="curve" smooth="yes"/>
      <point x="551" y="281"/>
      <point x="510" y="336"/>
      <point x="453" y="356" type="curve"/>
      <point x="454" y="360" type="line"/>
      <point x="520" y="382"/>
      <point x="581" y="446"/>
      <point x="581" y="534" type="curve" smooth="yes"/>
      <point x="581" y="625"/>
      <point x="512" y="686"/>
      <point x="409" y="686" type="curve" smooth="yes"/>
      <point x="124" y="686" type="line"/>
    </contour>
    <contour>
      <point x="337" y="295" type="line"/>
      <point x="395" y="295"/>
      <point x="422" y="262"/>
      <point x="422" y="218" type="curve" smooth="yes"/>
      <point x="422" y="150"/>
      <point x="377" y="114"/>
      <point x="321" y="114" type="curve" smooth="yes"/>
      <point x="170" y="114" type="line"/>
      <point x="196" y="295" type="line"/>
    </contour>
    <contour>
      <point x="377" y="572" type="line"/>
      <point x="421" y="572"/>
      <point x="448" y="549"/>
      <point x="448" y="503" type="curve" smooth="yes"/>
      <point x="448" y="453"/>
      <point x="410" y="408"/>
      <point x="345" y="408" type="curve" smooth="yes"/>
      <point x="212" y="408" type="line"/>
      <point x="235" y="572" type="line"/>
    </contour>
  </outline>
</glyph>
<glyph name="C" format="1">
  <advance width="592"/>
  <unicode hex="0043"/>
  <outline>
    <contour>
      <point x="45" y="250" type="curve" smooth="yes"/>
      <point x="45" y="72"/>
      <point x="133" y="-12"/>
      <point x="284" y="-12" type="curve" smooth="yes"/>
      <point x="447" y="-12"/>
      <point x="535" y="111"/>
      <point x="566" y="254" type="curve"/>
      <point x="441" y="254" type="line"/>
      <point x="423" y="170"/>
      <point x="377" y="98"/>
      <point x="287" y="98" type="curve" smooth="yes"/>
      <point x="210" y="98"/>
      <point x="174" y="156"/>
      <point x="174" y="255" type="curve" smooth="yes"/>
      <point x="174" y="383"/>
      <point x="207" y="588"/>
      <point x="353" y="588" type="curve" smooth="yes"/>
      <point x="419" y="588"/>
      <point x="459" y="538"/>
      <point x="459" y="449" type="curve" smooth="yes"/>
      <point x="459" y="431" type="line"/>
      <point x="589" y="431" type="line"/>
      <point x="589" y="444" type="line" smooth="yes"/>
      <point x="589" y="614"/>
      <point x="497" y="698"/>
      <point x="353" y="698" type="curve" smooth="yes"/>
      <point x="126" y="698"/>
      <point x="45" y="461"/>
    </contour>
    <contour>
      <point x="364" y="686" type="move" name="top"/>
    </contour>
    <contour>
      <point x="269" y="0" type="move" name="bottom"/>
    </contour>
  </outline>
</glyph>
<glyph name="E" format="1">
  <advance width="547"/>
  <unicode hex="0045"/>
  <outline>
    <contour>
      <point x="466" y="0" type="line"/>
      <point x="482" y="114" type="line"/>
      <point x="170" y="114" type="line"/>
      <point x="196" y="294" type="line"/>
      <point x="458" y="294" type="line"/>
      <point x="474" y="408" type="line"/>
      <point x="212" y="408" type="line"/>
      <point x="235" y="572" type="line"/>
      <point x="540" y="572" type="line"/>
      <point x="556" y="686" type="line"/>
      <point x="124" y="686" type="line"/>
      <point x="28" y="0" type="line"/>
    </contour>
    <contour>
      <point x="344" y="686" type="move" name="top"/>
    </contour>
    <contour>
      <point x="248" y="0" type="move" name="bottom"/>
    </contour>
    <contour>
      <point x="493" y="0" type="move" name="ogonek"/>
    </contour>
  </outline>
</glyph>
<glyph name="F" format="1">
  <advance width="501"/>
  <unicode hex="0046"/>
  <outline>
    <contour>
      <point x="155" y="0" type="line"/>
      <point x="195" y="285" type="line"/>
      <point x="427" y="285" type="line"/>
      <point x="443" y="399" type="line"/>
      <point x="211" y="399" type="line"/>
      <point x="235" y="572" type="line"/>
      <point x="508" y="572" type="line"/>
      <point x="523" y="686" type="line"/>
      <point x="125" y="686" type="line"/>
      <point x="28" y="0" type="line"/>
    </contour>
  </outline>
</glyph>
<glyph name="H" format="1">
  <advance width="592"/>
  <unicode hex="0048"/>
  <outline>
    <contour>
      <point x="368" y="0" type="line"/>
      <point x="495" y="0" type="line"/>
      <point x="591" y="686" type="line"/>
      <point x="464" y="686" type="line"/>
      <point x="426" y="408" type="line"/>
      <point x="212" y="408" type="line"/>
      <point x="251" y="686" type="line"/>
      <point x="124" y="686" type="line"/>
      <point x="28" y="0" type="line"/>
      <point x="155" y="0" type="line"/>
      <point x="196" y="294" type="line"/>
      <point x="410" y="294" type="line"/>
    </contour>
    <contour>
      <point x="359" y="686" type="move" name="top"/>
    </contour>
    <contour>
      <point x="310" y="343" type="move" name="center"/>
    </contour>
  </outline>
</glyph>
<glyph name="I" format="1">
  <advance width="228"/>
  <unicode hex="0049"/>
  <outline>
    <contour>
      <point x="114" y="686" type="line"/>
      <point x="18" y="0" type="line"/>
      <point x="145" y="0" type="line"/>
      <point x="241" y="686" type="line"/>
    </contour>
    <contour>
      <point x="178" y="686" type="move" name="top"/>
    </contour>
    <contour>
      <point x="145" y="0" type="move" name="ogonek"/>
    </contour>
  </outline>
</glyph>
<glyph name="J" format="1">
  <advance width="456"/>
  <unicode hex="004A"/>
  <outline>
    <contour>
      <point x="12" y="216" type="line"/>
      <point x="3" y="151"/>
      <point x="2" y="140"/>
      <point x="2" y="129" type="curve" smooth="yes"/>
      <point x="2" y="37"/>
      <point x="69" y="-12"/>
      <point x="188" y="-12" type="curve" smooth="yes"/>
      <point x="298" y="-12"/>
      <point x="367" y="49"/>
      <point x="383" y="163" type="curve" smooth="yes"/>
      <point x="457" y="686" type="line"/>
      <point x="330" y="686" type="line"/>
      <point x="258" y="173" type="line" smooth="yes"/>
      <point x="251" y="125"/>
      <point x="229" y="98"/>
      <point x="188" y="98" type="curve" smooth="yes"/>
      <point x="147" y="98"/>
      <point x="126" y="119"/>
      <point x="126" y="158" type="curve" smooth="yes"/>
      <point x="126" y="162"/>
      <point x="126" y="168"/>
      <point x="133" y="216" type="curve"/>
    </contour>
    <contour>
      <point x="402" y="686" type="move" name="top"/>
    </contour>
  </outline>
</glyph>
<glyph name="M" format="1">
  <advance width="683"/>
  <unicode hex="004D"/>
  <outline>
    <contour>
      <point x="593" y="0" type="line"/>
      <point x="689" y="686" type="line"/>
      <point x="516" y="686" type="line"/>
      <point x="381" y="312" type="line" smooth="yes"/>
      <point x="366" y="272"/>
      <point x="336" y="153"/>
      <point x="336" y="153" type="curve"/>
      <point x="332" y="153" type="line"/>
      <point x="332" y="153"/>
      <point x="329" y="263"/>
      <point x="325" y="308" type="curve" smooth="yes"/>
      <point x="294" y="686" type="line"/>
      <point x="117" y="686" type="line"/>
      <point x="21" y="0" type="line"/>
      <point x="129" y="0" type="line"/>
      <point x="191" y="437" type="line" smooth="yes"/>
      <point x="195" y="464"/>
      <point x="201" y="547"/>
      <point x="201" y="547" type="curve"/>
      <point x="205" y="547" type="line"/>
      <point x="248" y="0" type="line"/>
      <point x="358" y="0" type="line"/>
      <point x="553" y="547" type="line"/>
      <point x="557" y="547" type="line"/>
      <point x="557" y="547"/>
      <point x="541" y="468"/>
      <point x="537" y="437" type="curve" smooth="yes"/>
      <point x="476" y="0" type="line"/>
    </contour>
  </outline>
</glyph>
<glyph name="N" format="1">
  <advance width="592"/>
  <unicode hex="004E"/>
  <outline>
    <contour>
      <point x="495" y="0" type="line"/>
      <point x="591" y="686" type="line"/>
      <point x="478" y="686" type="line"/>
      <point x="425" y="304" type="line" smooth="yes"/>
      <point x="423" y="293"/>
      <point x="418" y="247"/>
      <point x="418" y="247" type="curve"/>
      <point x="415" y="244" type="line"/>
      <point x="415" y="244"/>
      <point x="400" y="291"/>
      <point x="393" y="308" type="curve" smooth="yes"/>
      <point x="236" y="686" type="line"/>
      <point x="124" y="686" type="line"/>
      <point x="28" y="0" type="line"/>
      <point x="140" y="0" type="line"/>
      <point x="193" y="382" type="line" smooth="yes"/>
      <point x="196" y="400"/>
      <point x="199" y="439"/>
      <point x="199" y="439" type="curve"/>
      <point x="203" y="442" type="line"/>
      <point x="203" y="442"/>
      <point x="219" y="392"/>
      <point x="225" y="378" type="curve" smooth="yes"/>
      <point x="382" y="0" type="line"/>
    </contour>
    <contour>
      <point x="359" y="686" type="move" name="top"/>
    </contour>
    <contour>
      <point x="262" y="0" type="move" name="bottom"/>
    </contour>
  </outline>
</glyph>
<glyph name="O" format="1">
  <advance width="638"/>
  <unicode hex="004F"/>
  <outline>
    <contour>
      <point x="45" y="250" type="curve" smooth="yes"/>
      <point x="45" y="72"/>
      <point x="139" y="-12"/>
      <point x="299" y="-12" type="curve" smooth="yes"/>
      <point x="536" y="-12"/>
      <point x="623" y="234"/>
      <point x="623" y="435" type="curve" smooth="yes"/>
      <point x="623" y="614"/>
      <point x="528" y="698"/>
      <point x="368" y="698" type="curve" smooth="yes"/>
      <point x="130" y="698"/>
      <point x="45" y="451"/>
    </contour>
    <contour>
      <point x="174" y="255" type="curve" smooth="yes"/>
      <point x="174" y="383"/>
      <point x="211" y="588"/>
      <point x="373" y="588" type="curve" smooth="yes"/>
      <point x="454" y="588"/>
      <point x="493" y="530"/>
      <point x="493" y="430" type="curve" smooth="yes"/>
      <point x="493" y="303"/>
      <point x="455" y="98"/>
      <point x="294" y="98" type="curve" smooth="yes"/>
      <point x="212" y="98"/>
      <point x="174" y="156"/>
    </contour>
    <contour>
      <point x="383" y="686" type="move" name="top"/>
    </contour>
  </outline>
</glyph>
<glyph name="P" format="1">
  <advance width="547"/>
  <unicode hex="0050"/>
  <outline>
    <contour>
      <point x="323" y="266" type="line"/>
      <point x="452" y="266"/>
      <point x="552" y="363"/>
      <point x="552" y="509" type="curve" smooth="yes"/>
      <point x="552" y="612"/>
      <point x="490" y="686"/>
      <point x="361" y="686" type="curve" smooth="yes"/>
      <point x="124" y="686" type="line"/>
      <point x="28" y="0" type="line"/>
      <point x="154" y="0" type="line"/>
      <point x="192" y="266" type="line"/>
    </contour>
    <contour>
      <point x="338" y="572" type="line"/>
      <point x="391" y="572"/>
      <point x="421" y="539"/>
      <point x="421" y="489" type="curve" smooth="yes"/>
      <point x="421" y="420"/>
      <point x="377" y="379"/>
      <point x="316" y="379" type="curve" smooth="yes"/>
      <point x="208" y="379" type="line"/>
      <point x="235" y="572" type="line"/>
    </contour>
  </outline>
</glyph>
<glyph name="Q" format="1">
  <advance width="638"/>
  <unicode hex="0051"/>
  <outline>
    <contour>
      <point x="296" y="-12" type="curve"/>
      <point x="380" y="-124" type="line"/>
      <point x="535" y="-124" type="line"/>
      <point x="423" y="14" type="line"/>
      <point x="567" y="83"/>
      <point x="623" y="274"/>
      <point x="623" y="435" type="curve" smooth="yes"/>
      <point x="623" y="614"/>
      <point x="528" y="698"/>
      <point x="368" y="698" type="curve" smooth="yes"/>
      <point x="130" y="698"/>
      <point x="45" y="451"/>
      <point x="45" y="250" type="curve" smooth="yes"/>
      <point x="45" y="73"/>
      <point x="138" y="-11"/>
    </contour>
    <contour>
      <point x="373" y="588" type="curve" smooth="yes"/>
      <point x="454" y="588"/>
      <point x="493" y="530"/>
      <point x="493" y="430" type="curve" smooth="yes"/>
      <point x="493" y="303"/>
      <point x="455" y="98"/>
      <point x="294" y="98" type="curve" smooth="yes"/>
      <point x="212" y="98"/>
      <point x="174" y="156"/>
      <point x="174" y="255" type="curve" smooth="yes"/>
      <point x="174" y="383"/>
      <point x="211" y="588"/>
    </contour>
  </outline>
</glyph>
<glyph name="S" format="1">
  <advance width="547"/>
  <unicode hex="0053"/>
  <outline>
    <contour>
      <point x="31" y="172" type="curve" smooth="yes"/>
      <point x="31" y="37"/>
      <point x="158" y="-12"/>
      <point x="259" y="-12" type="curve" smooth="yes"/>
      <point x="400" y="-12"/>
      <point x="509" y="69"/>
      <point x="509" y="213" type="curve" smooth="yes"/>
      <point x="509" y="435"/>
      <point x="220" y="392"/>
      <point x="220" y="516" type="curve" smooth="yes"/>
      <point x="220" y="581"/>
      <point x="289" y="587"/>
      <point x="311" y="587" type="curve" smooth="yes"/>
      <point x="376" y="587"/>
      <point x="403" y="542"/>
      <point x="403" y="484" type="curve"/>
      <point x="532" y="484" type="line"/>
      <point x="532" y="599"/>
      <point x="491" y="698"/>
      <point x="318" y="698" type="curve" smooth="yes"/>
      <point x="147" y="698"/>
      <point x="86" y="591"/>
      <point x="86" y="491" type="curve" smooth="yes"/>
      <point x="86" y="290"/>
      <point x="376" y="328"/>
      <point x="376" y="187" type="curve" smooth="yes"/>
      <point x="376" y="141"/>
      <point x="338" y="98"/>
      <point x="267" y="98" type="curve" smooth="yes"/>
      <point x="178" y="98"/>
      <point x="163" y="150"/>
      <point x="163" y="185" type="curve" smooth="yes"/>
      <point x="163" y="210"/>
      <point x="166" y="225"/>
      <point x="168" y="233" type="curve"/>
      <point x="36" y="233" type="line"/>
      <point x="34" y="223"/>
      <point x="31" y="195"/>
    </contour>
    <contour>
      <point x="340" y="686" type="move" name="top"/>
    </contour>
    <contour>
      <point x="242" y="0" type="move" name="bottom"/>
    </contour>
  </outline>
</glyph>
<glyph name="T" format="1">
  <advance width="501"/>
  <unicode hex="0054"/>
  <outline>
    <contour>
      <point x="233" y="572" type="line"/>
      <point x="153" y="0" type="line"/>
      <point x="279" y="0" type="line"/>
      <point x="359" y="572" type="line"/>
      <point x="528" y="572" type="line"/>
      <point x="544" y="686" type="line"/>
      <point x="80" y="686" type="line"/>
      <point x="64" y="572" type="line"/>
    </contour>
    <contour>
      <point x="311" y="686" type="move" name="top"/>
    </contour>
    <contour>
      <point x="214" y="0" type="move" name="bottom"/>
    </contour>
    <contour>
      <point x="263" y="343" type="move" name="center"/>
    </contour>
  </outline>
</glyph>
<glyph name="V" format="1">
  <advance width="547"/>
  <unicode hex="0056"/>
  <outline>
    <contour>
      <point x="67" y="686" type="line"/>
      <point x="178" y="0" type="line"/>
      <point x="305" y="0" type="line"/>
      <point x="608" y="686" type="line"/>
      <point x="480" y="686" type="line"/>
      <point x="272" y="198" type="line"/>
      <point x="268" y="198" type="line"/>
      <point x="197" y="686" type="line"/>
    </contour>
  </outline>
</glyph>
<glyph name="X" format="1">
  <advance width="547"/>
  <unicode hex="0058"/>
  <outline>
    <contour>
      <point x="220" y="358" type="line"/>
      <point x="-29" y="0" type="line"/>
      <point x="110" y="0" type="line"/>
      <point x="270" y="238" type="line"/>
      <point x="274" y="238" type="line"/>
      <point x="369" y="0" type="line"/>
      <point x="511" y="0" type="line"/>
      <point x="360" y="358" type="line"/>
      <point x="589" y="686" type="line"/>
      <point x="447" y="686" type="line"/>
      <point x="310" y="477" type="line"/>
      <point x="306" y="477" type="line"/>
      <point x="224" y="686" type="line"/>
      <point x="84" y="686" type="line"/>
    </contour>
  </outline>
</glyph>
<glyph name="Y" format="1">
  <advance width="547"/>
  <unicode hex="0059"/>
  <outline>
    <contour>
      <point x="215" y="259" type="line"/>
      <point x="179" y="0" type="line"/>
      <point x="305" y="0" type="line"/>
      <point x="342" y="259" type="line"/>
      <point x="608" y="686" type="line"/>
      <point x="479" y="686" type="line"/>
      <point x="300" y="385" type="line"/>
      <point x="296" y="385" type="line"/>
      <point x="197" y="686" type="line"/>
      <point x="67" y="686" type="line"/>
    </contour>
    <contour>
      <point x="340" y="686" type="move" name="top"/>
    </contour>
  </outline>
</glyph>
<glyph name="Z" format="1">
  <advance width="501"/>
  <unicode hex="005A"/>
  <outline>
    <contour>
      <point x="-8" y="49" type="line"/>
      <point x="-12" y="0" type="line"/>
      <point x="443" y="0" type="line"/>
      <point x="459" y="114" type="line"/>
      <point x="181" y="114" type="line"/>
      <point x="525" y="636" type="line"/>
      <point x="529" y="686" type="line"/>
      <point x="101" y="686" type="line"/>
      <point x="85" y="572" type="line"/>
      <point x="335" y="572" type="line"/>
    </contour>
    <contour>
      <point x="311" y="686" type="move" name="top"/>
    </contour>
  </outline>
</glyph>
<glyph name="bracketleft" format="1">
  <advance width="273"/>
  <unicode hex="005B"/>
  <outline>
    <contour>
      <point x="205" y="-66" type="line"/>
      <point x="122" y="-66" type="line"/>
      <point x="221" y="640" type="line"/>
      <point x="304" y="640" type="line"/>
      <point x="317" y="735" type="line"/>
      <point x="118" y="735" type="line"/>
      <point x="-6" y="-161" type="line"/>
      <point x="192" y="-161" type="line"/>
    </contour>
  </outline>
</glyph>
<glyph name="backslash" format="1">
  <advance width="228"/>
  <unicode hex="005C"/>
  <outline>
    <contour>
      <point x="58" y="735" type="line"/>
      <point x="115" y="-49" type="line"/>
      <point x="197" y="-49" type="line"/>
      <point x="139" y="735" type="line"/>
    </contour>
  </outline>
</glyph>
<glyph name="bracketright" format="1">
  <advance width="273"/>
  <unicode hex="005D"/>
  <outline>
    <contour>
      <point x="69" y="-66" type="line"/>
      <point x="-13" y="-66" type="line"/>
      <point x="-26" y="-161" type="line"/>
      <point x="172" y="-161" type="line"/>
      <point x="297" y="735" type="line"/>
      <point x="98" y="735" type="line"/>
      <point x="85" y="640" type="line"/>
      <point x="168" y="640" type="line"/>
    </contour>
  </outline>
</glyph>
<glyph name="asciicircum" format="1">
  <advance width="479"/>
  <unicode hex="005E"/>
  <outline>
    <contour>
      <point x="215" y="686" type="line"/>
      <point x="4" y="294" type="line"/>
      <point x="119" y="294" type="line"/>
      <point x="251" y="564" type="line"/>
      <point x="314" y="294" type="line"/>
      <point x="424" y="294" type="line"/>
      <point x="322" y="686" type="line"/>
    </contour>
  </outline>
</glyph>
<glyph name="underscore" format="1">
  <advance width="456"/>
  <unicode hex="005F"/>
  <outline>
    <contour>
      <point x="419" y="-63" type="line"/>
      <point x="-36" y="-63" type="line"/>
      <point x="-44" y="-132" type="line"/>
      <point x="410" y="-132" type="line"/>
    </contour>
  </outline>
</glyph>
<glyph name="grave" format="1">
  <advance width="273"/>
  <unicode hex="0060"/>
  <outline>
    <contour>
      <point x="86" y="720" type="line"/>
      <point x="176" y="591" type="line"/>
      <point x="275" y="591" type="line"/>
      <point x="208" y="723" type="line"/>
      <point x="88" y="723" type="line"/>
    </contour>
    <contour>
      <point x="197" y="526" type="move" name="_top"/>
    </contour>
  </outline>
</glyph>
<glyph name="b" format="1">
  <advance width="501"/>
  <unicode hex="0062"/>
  <outline>
    <contour>
      <point x="262" y="-12" type="curve" smooth="yes"/>
      <point x="421" y="-12"/>
      <point x="467" y="214"/>
      <point x="467" y="349" type="curve" smooth="yes"/>
      <point x="467" y="480"/>
      <point x="412" y="538"/>
      <point x="332" y="538" type="curve" smooth="yes"/>
      <point x="282" y="538"/>
      <point x="236" y="513"/>
      <point x="207" y="474" type="curve"/>
      <point x="242" y="723" type="line"/>
      <point x="123" y="723" type="line"/>
      <point x="23" y="0" type="line"/>
      <point x="116" y="0" type="line"/>
      <point x="140" y="70" type="line"/>
      <point x="162" y="12"/>
      <point x="206" y="-12"/>
    </contour>
    <contour>
      <point x="283" y="429" type="curve" smooth="yes"/>
      <point x="328" y="429"/>
      <point x="345" y="398"/>
      <point x="345" y="340" type="curve" smooth="yes"/>
      <point x="345" y="269"/>
      <point x="331" y="97"/>
      <point x="235" y="97" type="curve" smooth="yes"/>
      <point x="189" y="97"/>
      <point x="170" y="130"/>
      <point x="170" y="188" type="curve" smooth="yes"/>
      <point x="170" y="262"/>
      <point x="189" y="429"/>
    </contour>
  </outline>
</glyph>
<glyph name="d" format="1">
  <advance width="501"/>
  <unicode hex="0064"/>
  <outline>
    <contour>
      <point x="36" y="174" type="curve" smooth="yes"/>
      <point x="36" y="51"/>
      <point x="89" y="-12"/>
      <point x="179" y="-12" type="curve" smooth="yes"/>
      <point x="228" y="-12"/>
      <point x="274" y="13"/>
      <point x="311" y="76" type="curve"/>
      <point x="311" y="0" type="line"/>
      <point x="408" y="0" type="line"/>
      <point x="508" y="723" type="line"/>
      <point x="390" y="723" type="line"/>
      <point x="353" y="469" type="line"/>
      <point x="333" y="513"/>
      <point x="297" y="538"/>
      <point x="242" y="538" type="curve" smooth="yes"/>
      <point x="139" y="538"/>
      <point x="36" y="428"/>
    </contour>
    <contour>
      <point x="220" y="97" type="curve" smooth="yes"/>
      <point x="174" y="97"/>
      <point x="157" y="128"/>
      <point x="157" y="186" type="curve" smooth="yes"/>
      <point x="157" y="257"/>
      <point x="172" y="429"/>
      <point x="271" y="429" type="curve" smooth="yes"/>
      <point x="315" y="429"/>
      <point x="332" y="396"/>
      <point x="332" y="338" type="curve" smooth="yes"/>
      <point x="332" y="264"/>
      <point x="314" y="97"/>
    </contour>
    <contour>
      <point x="250" y="263" type="move" name="center"/>
    </contour>
  </outline>
</glyph>
<glyph name="i" format="1">
  <advance width="228"/>
  <unicode hex="0069"/>
  <outline>
    <contour>
      <point x="123" y="723" type="line"/>
      <point x="108" y="614" type="line"/>
      <point x="227" y="614" type="line"/>
      <point x="242" y="723" type="line"/>
    </contour>
    <contour>
      <point x="96" y="526" type="line"/>
      <point x="23" y="0" type="line"/>
      <point x="142" y="0" type="line"/>
      <point x="215" y="526" type="line"/>
    </contour>
  </outline>
</glyph>
<glyph name="j" format="1">
  <advance width="228"/>
  <unicode hex="006A"/>
  <outline>
    <contour>
      <point x="123" y="723" type="line"/>
      <point x="108" y="614" type="line"/>
      <point x="226" y="614" type="line"/>
      <point x="241" y="723" type="line"/>
    </contour>
    <contour>
      <point x="95" y="526" type="line"/>
      <point x="18" y="-33" type="line"/>
      <point x="13" y="-64"/>
      <point x="-4" y="-81"/>
      <point x="-35" y="-81" type="curve" smooth="yes"/>
      <point x="-78" y="-81" type="line"/>
      <point x="-90" y="-170" type="line"/>
      <point x="-71" y="-176"/>
      <point x="-34" y="-182"/>
      <point x="-4" y="-182" type="curve" smooth="yes"/>
      <point x="90" y="-182"/>
      <point x="125" y="-111"/>
      <point x="135" y="-41" type="curve" smooth="yes"/>
      <point x="214" y="526" type="line"/>
    </contour>
  </outline>
</glyph>
<glyph name="k" format="1">
  <advance width="456"/>
  <unicode hex="006B"/>
  <outline>
    <contour>
      <point x="123" y="723" type="line"/>
      <point x="23" y="0" type="line"/>
      <point x="142" y="0" type="line"/>
      <point x="164" y="160" type="line"/>
      <point x="220" y="215" type="line"/>
      <point x="296" y="0" type="line"/>
      <point x="422" y="0" type="line"/>
      <point x="304" y="310" type="line"/>
      <point x="488" y="526" type="line"/>
      <point x="353" y="526" type="line"/>
      <point x="187" y="329" type="line"/>
      <point x="242" y="723" type="line"/>
    </contour>
    <contour>
      <point x="203" y="0" type="move" name="bottom"/>
    </contour>
  </outline>
</glyph>
<glyph name="l" format="1">
  <advance width="228"/>
  <unicode hex="006C"/>
  <outline>
    <contour>
      <point x="122" y="723" type="line"/>
      <point x="22" y="0" type="line"/>
      <point x="141" y="0" type="line"/>
      <point x="241" y="723" type="line"/>
    </contour>
    <contour>
      <point x="177" y="686" type="move" name="top"/>
    </contour>
    <contour>
      <point x="81" y="0" type="move" name="bottom"/>
    </contour>
    <contour>
      <point x="299" y="526" type="move" name="topright"/>
    </contour>
  </outline>
</glyph>
<glyph name="m" format="1">
  <advance width="729"/>
  <unicode hex="006D"/>
  <outline>
    <contour>
      <point x="98" y="526" type="line"/>
      <point x="24" y="0" type="line"/>
      <point x="143" y="0" type="line"/>
      <point x="186" y="316" type="line" smooth="yes"/>
      <point x="196" y="390"/>
      <point x="233" y="429"/>
      <point x="274" y="429" type="curve" smooth="yes"/>
      <point x="309" y="429"/>
      <point x="322" y="406"/>
      <point x="322" y="371" type="curve" smooth="yes"/>
      <point x="322" y="351"/>
      <point x="320" y="346"/>
      <point x="273" y="0" type="curve"/>
      <point x="392" y="0" type="line"/>
      <point x="434" y="316" type="line" smooth="yes"/>
      <point x="444" y="390"/>
      <point x="482" y="429"/>
      <point x="522" y="429" type="curve" smooth="yes"/>
      <point x="557" y="429"/>
      <point x="571" y="406"/>
      <point x="571" y="371" type="curve" smooth="yes"/>
      <point x="571" y="351"/>
      <point x="569" y="346"/>
      <point x="521" y="0" type="curve"/>
      <point x="640" y="0" type="line"/>
      <point x="691" y="372"/>
      <point x="693" y="376"/>
      <point x="693" y="403" type="curve" smooth="yes"/>
      <point x="693" y="487"/>
      <point x="653" y="538"/>
      <point x="576" y="538" type="curve" smooth="yes"/>
      <point x="510" y="538"/>
      <point x="469" y="500"/>
      <point x="438" y="452" type="curve"/>
      <point x="425" y="506"/>
      <point x="388" y="538"/>
      <point x="327" y="538" type="curve" smooth="yes"/>
      <point x="265" y="538"/>
      <point x="224" y="503"/>
      <point x="195" y="458" type="curve"/>
      <point x="195" y="526" type="line"/>
    </contour>
  </outline>
</glyph>
<glyph name="n" format="1">
  <advance width="501"/>
  <unicode hex="006E"/>
  <outline>
    <contour>
      <point x="96" y="526" type="line"/>
      <point x="23" y="0" type="line"/>
      <point x="142" y="0" type="line"/>
      <point x="185" y="316" type="line" smooth="yes"/>
      <point x="195" y="389"/>
      <point x="237" y="429"/>
      <point x="283" y="429" type="curve" smooth="yes"/>
      <point x="324" y="429"/>
      <point x="341" y="409"/>
      <point x="341" y="363" type="curve" smooth="yes"/>
      <point x="341" y="355"/>
      <point x="339" y="346"/>
      <point x="292" y="0" type="curve"/>
      <point x="410" y="0" type="line"/>
      <point x="460" y="372"/>
      <point x="463" y="376"/>
      <point x="463" y="403" type="curve" smooth="yes"/>
      <point x="463" y="487"/>
      <point x="420" y="538"/>
      <point x="336" y="538" type="curve" smooth="yes"/>
      <point x="268" y="538"/>
      <point x="224" y="502"/>
      <point x="193" y="456" type="curve"/>
      <point x="193" y="526" type="line"/>
    </contour>
    <contour>
      <point x="292" y="526" type="move" name="top"/>
    </contour>
    <contour>
      <point x="219" y="0" type="move" name="bottom"/>
    </contour>
  </outline>
</glyph>
<glyph name="p" format="1">
  <advance width="501"/>
  <unicode hex="0070"/>
  <outline>
    <contour>
      <point x="118" y="-172" type="line"/>
      <point x="150" y="57" type="line"/>
      <point x="171" y="13"/>
      <point x="206" y="-12"/>
      <point x="262" y="-12" type="curve" smooth="yes"/>
      <point x="365" y="-12"/>
      <point x="468" y="98"/>
      <point x="468" y="352" type="curve" smooth="yes"/>
      <point x="468" y="475"/>
      <point x="415" y="538"/>
      <point x="325" y="538" type="curve" smooth="yes"/>
      <point x="276" y="538"/>
      <point x="229" y="513"/>
      <point x="193" y="449" type="curve"/>
      <point x="193" y="526" type="line"/>
      <point x="96" y="526" type="line"/>
      <point x="0" y="-172" type="line"/>
    </contour>
    <contour>
      <point x="172" y="188" type="curve" smooth="yes"/>
      <point x="172" y="262"/>
      <point x="190" y="429"/>
      <point x="284" y="429" type="curve" smooth="yes"/>
      <point x="330" y="429"/>
      <point x="347" y="398"/>
      <point x="347" y="340" type="curve" smooth="yes"/>
      <point x="347" y="269"/>
      <point x="333" y="97"/>
      <point x="237" y="97" type="curve" smooth="yes"/>
      <point x="190" y="97"/>
      <point x="172" y="130"/>
    </contour>
  </outline>
</glyph>
<glyph name="q" format="1">
  <advance width="501"/>
  <unicode hex="0071"/>
  <outline>
    <contour>
      <point x="241" y="538" type="curve" smooth="yes"/>
      <point x="82" y="538"/>
      <point x="36" y="312"/>
      <point x="36" y="177" type="curve" smooth="yes"/>
      <point x="36" y="46"/>
      <point x="91" y="-12"/>
      <point x="171" y="-12" type="curve" smooth="yes"/>
      <point x="221" y="-12"/>
      <point x="267" y="12"/>
      <point x="295" y="52" type="curve"/>
      <point x="265" y="-172" type="line"/>
      <point x="384" y="-172" type="line"/>
      <point x="480" y="526" type="line"/>
      <point x="386" y="526" type="line"/>
      <point x="363" y="456" type="line"/>
      <point x="340" y="513"/>
      <point x="296" y="538"/>
    </contour>
    <contour>
      <point x="220" y="97" type="curve" smooth="yes"/>
      <point x="175" y="97"/>
      <point x="158" y="128"/>
      <point x="158" y="186" type="curve" smooth="yes"/>
      <point x="158" y="257"/>
      <point x="172" y="429"/>
      <point x="268" y="429" type="curve" smooth="yes"/>
      <point x="314" y="429"/>
      <point x="333" y="396"/>
      <point x="333" y="338" type="curve" smooth="yes"/>
      <point x="333" y="264"/>
      <point x="314" y="97"/>
    </contour>
  </outline>
</glyph>
<glyph name="v" format="1">
  <advance width="456"/>
  <unicode hex="0076"/>
  <outline>
    <contour>
      <point x="44" y="526" type="line"/>
      <point x="133" y="0" type="line"/>
      <point x="254" y="0" type="line"/>
      <point x="493" y="526" type="line"/>
      <point x="372" y="526" type="line"/>
      <point x="275" y="300" type="line" smooth="yes"/>
      <point x="255" y="254"/>
      <point x="219" y="142"/>
      <point x="219" y="142" type="curve"/>
      <point x="215" y="142" type="line"/>
      <point x="215" y="142"/>
      <point x="206" y="260"/>
      <point x="200" y="300" type="curve" smooth="yes"/>
      <point x="163" y="526" type="line"/>
    </contour>
  </outline>
</glyph>
<glyph name="x" format="1">
  <advance width="456"/>
  <unicode hex="0078"/>
  <outline>
    <contour>
      <point x="170" y="272" type="line"/>
      <point x="-25" y="0" type="line"/>
      <point x="102" y="0" type="line"/>
      <point x="216" y="169" type="line"/>
      <point x="221" y="169" type="line"/>
      <point x="286" y="0" type="line"/>
      <point x="415" y="0" type="line"/>
      <point x="297" y="272" type="line"/>
      <point x="479" y="526" type="line"/>
      <point x="350" y="526" type="line"/>
      <point x="251" y="377" type="line"/>
      <point x="246" y="377" type="line"/>
      <point x="188" y="526" type="line"/>
      <point x="59" y="526" type="line"/>
    </contour>
  </outline>
</glyph>
<glyph name="z" format="1">
  <advance width="410"/>
  <unicode hex="007A"/>
  <outline>
    <contour>
      <point x="-8" y="51" type="line"/>
      <point x="-12" y="0" type="line"/>
      <point x="354" y="0" type="line"/>
      <point x="368" y="101" type="line"/>
      <point x="162" y="101" type="line"/>
      <point x="413" y="476" type="line"/>
      <point x="417" y="526" type="line"/>
      <point x="68" y="526" type="line"/>
      <point x="54" y="425" type="line"/>
      <point x="241" y="425" type="line"/>
    </contour>
    <contour>
      <point x="229" y="526" type="move" name="top"/>
    </contour>
  </outline>
</glyph>
<glyph name="braceleft" format="1">
  <advance width="319"/>
  <unicode hex="007B"/>
  <outline>
    <contour>
      <point x="58" y="-11" type="curve"/>
      <point x="57" y="-21"/>
      <point x="56" y="-28"/>
      <point x="56" y="-40" type="curve" smooth="yes"/>
      <point x="56" y="-140"/>
      <point x="140" y="-159"/>
      <point x="235" y="-159" type="curve"/>
      <point x="245" y="-82" type="line"/>
      <point x="212" y="-82"/>
      <point x="174" y="-74"/>
      <point x="174" y="-32" type="curve" smooth="yes"/>
      <point x="174" y="-4"/>
      <point x="197" y="155"/>
      <point x="197" y="195" type="curve" smooth="yes"/>
      <point x="197" y="251"/>
      <point x="173" y="283"/>
      <point x="103" y="283" type="curve"/>
      <point x="104" y="293" type="line"/>
      <point x="182" y="293"/>
      <point x="215" y="333"/>
      <point x="227" y="401" type="curve" smooth="yes"/>
      <point x="238" y="468"/>
      <point x="253" y="531"/>
      <point x="262" y="597" type="curve" smooth="yes"/>
      <point x="269" y="648"/>
      <point x="315" y="658"/>
      <point x="350" y="658" type="curve"/>
      <point x="360" y="735" type="line"/>
      <point x="256" y="735"/>
      <point x="161" y="713"/>
      <point x="143" y="587" type="curve" smooth="yes"/>
      <point x="115" y="394" type="line" smooth="yes"/>
      <point x="108" y="349"/>
      <point x="66" y="334"/>
      <point x="30" y="334" type="curve"/>
      <point x="17" y="242" type="line"/>
      <point x="53" y="240"/>
      <point x="87" y="228"/>
      <point x="87" y="194" type="curve" smooth="yes"/>
      <point x="87" y="187"/>
      <point x="84" y="176"/>
    </contour>
  </outline>
</glyph>
<glyph name="braceright" format="1">
  <advance width="319"/>
  <unicode hex="007D"/>
  <outline>
    <contour>
      <point x="70" y="-21" type="curve" smooth="yes"/>
      <point x="63" y="-72"/>
      <point x="17" y="-82"/>
      <point x="-18" y="-82" type="curve"/>
      <point x="-28" y="-159" type="line"/>
      <point x="76" y="-159"/>
      <point x="171" y="-137"/>
      <point x="189" y="-11" type="curve" smooth="yes"/>
      <point x="217" y="182" type="line" smooth="yes"/>
      <point x="224" y="227"/>
      <point x="266" y="242"/>
      <point x="302" y="242" type="curve"/>
      <point x="315" y="334" type="line"/>
      <point x="279" y="336"/>
      <point x="245" y="348"/>
      <point x="245" y="382" type="curve" smooth="yes"/>
      <point x="245" y="389"/>
      <point x="248" y="400"/>
      <point x="274" y="587" type="curve" smooth="yes"/>
      <point x="275" y="597"/>
      <point x="276" y="604"/>
      <point x="276" y="616" type="curve" smooth="yes"/>
      <point x="276" y="716"/>
      <point x="192" y="735"/>
      <point x="97" y="735" type="curve"/>
      <point x="87" y="658" type="line"/>
      <point x="120" y="658"/>
      <point x="158" y="650"/>
      <point x="158" y="608" type="curve" smooth="yes"/>
      <point x="158" y="580"/>
      <point x="135" y="421"/>
      <point x="135" y="381" type="curve" smooth="yes"/>
      <point x="135" y="325"/>
      <point x="159" y="293"/>
      <point x="229" y="293" type="curve"/>
      <point x="228" y="283" type="line"/>
      <point x="150" y="283"/>
      <point x="117" y="243"/>
      <point x="105" y="175" type="curve" smooth="yes"/>
      <point x="94" y="108"/>
      <point x="79" y="45"/>
    </contour>
  </outline>
</glyph>
<glyph name="asciitilde" format="1">
  <advance width="479"/>
  <unicode hex="007E"/>
  <outline>
    <contour>
      <point x="20" y="197" type="line"/>
      <point x="20" y="197"/>
      <point x="81" y="270"/>
      <point x="153" y="270" type="curve" smooth="yes"/>
      <point x="219" y="270"/>
      <point x="260" y="209"/>
      <point x="324" y="209" type="curve" smooth="yes"/>
      <point x="406" y="209"/>
      <point x="457" y="282"/>
      <point x="457" y="282" type="curve"/>
      <point x="474" y="402" type="line"/>
      <point x="474" y="402"/>
      <point x="413" y="329"/>
      <point x="341" y="329" type="curve" smooth="yes"/>
      <point x="275" y="329"/>
      <point x="234" y="390"/>
      <point x="170" y="390" type="curve" smooth="yes"/>
      <point x="88" y="390"/>
      <point x="37" y="317"/>
      <point x="37" y="317" type="curve"/>
    </contour>
  </outline>
</glyph>
<glyph name="exclamdown" format="1">
  <advance width="273"/>
  <unicode hex="00A1"/>
  <outline>
    <contour>
      <point x="113" y="526" type="line"/>
      <point x="93" y="389" type="line"/>
      <point x="231" y="389" type="line"/>
      <point x="251" y="526" type="line"/>
    </contour>
    <contour>
      <point x="112" y="329" type="line"/>
      <point x="8" y="-160" type="line"/>
      <point x="161" y="-160" type="line"/>
      <point x="194" y="329" type="line"/>
    </contour>
  </outline>
</glyph>
<glyph name="cent" format="1">
  <advance width="456"/>
  <unicode hex="00A2"/>
  <outline>
    <contour>
      <point x="156" y="-49" type="line"/>
      <point x="204" y="-49" type="line"/>
      <point x="220" y="68" type="line"/>
      <point x="340" y="76"/>
      <point x="389" y="169"/>
      <point x="413" y="275" type="curve"/>
      <point x="302" y="275" type="line"/>
      <point x="291" y="224"/>
      <point x="268" y="178"/>
      <point x="234" y="165" type="curve"/>
      <point x="283" y="520" type="line"/>
      <point x="310" y="509"/>
      <point x="318" y="476"/>
      <point x="318" y="423" type="curve" smooth="yes"/>
      <point x="318" y="408" type="line"/>
      <point x="432" y="408" type="line"/>
      <point x="432" y="423" type="line" smooth="yes"/>
      <point x="432" y="543"/>
      <point x="392" y="606"/>
      <point x="297" y="616" type="curve"/>
      <point x="312" y="723" type="line"/>
      <point x="264" y="723" type="line"/>
      <point x="249" y="617" type="line"/>
      <point x="73" y="603"/>
      <point x="36" y="411"/>
      <point x="36" y="252" type="curve" smooth="yes"/>
      <point x="36" y="139"/>
      <point x="82" y="80"/>
      <point x="172" y="70" type="curve"/>
    </contour>
    <contour>
      <point x="186" y="165" type="line"/>
      <point x="158" y="177"/>
      <point x="150" y="213"/>
      <point x="150" y="271" type="curve" smooth="yes"/>
      <point x="150" y="305"/>
      <point x="164" y="485"/>
      <point x="235" y="519" type="curve"/>
    </contour>
  </outline>
</glyph>
<glyph name="sterling" format="1">
  <advance width="456"/>
  <unicode hex="00A3"/>
  <outline>
    <contour>
      <point x="8" y="108" type="line"/>
      <point x="-7" y="0" type="line"/>
      <point x="393" y="0" type="line"/>
      <point x="409" y="108" type="line"/>
      <point x="166" y="108" type="line"/>
      <point x="201" y="288" type="line"/>
      <point x="321" y="288" type="line"/>
      <point x="335" y="389" type="line"/>
      <point x="216" y="389" type="line"/>
      <point x="235" y="525" type="line" smooth="yes"/>
      <point x="242" y="573"/>
      <point x="268" y="597"/>
      <point x="304" y="597" type="curve" smooth="yes"/>
      <point x="336" y="597"/>
      <point x="357" y="577"/>
      <point x="357" y="538" type="curve" smooth="yes"/>
      <point x="357" y="531"/>
      <point x="356" y="524"/>
      <point x="351" y="491" type="curve"/>
      <point x="469" y="491" type="line"/>
      <point x="473" y="518"/>
      <point x="474" y="532"/>
      <point x="474" y="545" type="curve" smooth="yes"/>
      <point x="474" y="647"/>
      <point x="412" y="698"/>
      <point x="309" y="698" type="curve" smooth="yes"/>
      <point x="201" y="698"/>
      <point x="131" y="632"/>
      <point x="112" y="499" type="curve" smooth="yes"/>
      <point x="96" y="389" type="line"/>
      <point x="35" y="389" type="line"/>
      <point x="21" y="288" type="line"/>
      <point x="83" y="288" type="line"/>
      <point x="58" y="108" type="line"/>
    </contour>
  </outline>
</glyph>
<glyph name="yen" format="1">
  <advance width="456"/>
  <unicode hex="00A5"/>
  <outline>
    <contour>
      <point x="157" y="153" type="line"/>
      <point x="135" y="0" type="line"/>
      <point x="254" y="0" type="line"/>
      <point x="276" y="153" type="line"/>
      <point x="414" y="153" type="line"/>
      <point x="425" y="234" type="line"/>
      <point x="287" y="234" type="line"/>
      <point x="297" y="303" type="line"/>
      <point x="435" y="303" type="line"/>
      <point x="446" y="385" type="line"/>
      <point x="342" y="385" type="line"/>
      <point x="512" y="686" type="line"/>
      <point x="388" y="686" type="line"/>
      <point x="259" y="423" type="line"/>
      <point x="255" y="423" type="line"/>
      <point x="196" y="686" type="line"/>
      <point x="69" y="686" type="line"/>
      <point x="154" y="385" type="line"/>
      <point x="50" y="385" type="line"/>
      <point x="39" y="304" type="line"/>
      <point x="177" y="304" type="line"/>
      <point x="167" y="234" type="line"/>
      <point x="29" y="234" type="line"/>
      <point x="18" y="153" type="line"/>
    </contour>
  </outline>
</glyph>
<glyph name="section" format="1">
  <advance width="456"/>
  <unicode hex="00A7"/>
  <outline>
    <contour>
      <point x="13" y="-16" type="line"/>
      <point x="13" y="-18"/>
      <point x="8" y="-43"/>
      <point x="8" y="-59" type="curve" smooth="yes"/>
      <point x="8" y="-137"/>
      <point x="78" y="-182"/>
      <point x="176" y="-182" type="curve" smooth="yes"/>
      <point x="284" y="-182"/>
      <point x="376" y="-120"/>
      <point x="376" y="6" type="curve" smooth="yes"/>
      <point x="376" y="49"/>
      <point x="362" y="80"/>
      <point x="341" y="105" type="curve"/>
      <point x="395" y="143"/>
      <point x="427" y="199"/>
      <point x="427" y="257" type="curve" smooth="yes"/>
      <point x="427" y="432"/>
      <point x="210" y="414"/>
      <point x="210" y="534" type="curve" smooth="yes"/>
      <point x="210" y="574"/>
      <point x="236" y="600"/>
      <point x="276" y="600" type="curve" smooth="yes"/>
      <point x="309" y="600"/>
      <point x="330" y="584"/>
      <point x="330" y="549" type="curve" smooth="yes"/>
      <point x="330" y="544"/>
      <point x="330" y="538"/>
      <point x="329" y="532" type="curve"/>
      <point x="450" y="532" type="line"/>
      <point x="450" y="534"/>
      <point x="455" y="560"/>
      <point x="455" y="576" type="curve" smooth="yes"/>
      <point x="455" y="653"/>
      <point x="384" y="698"/>
      <point x="287" y="698" type="curve" smooth="yes"/>
      <point x="178" y="698"/>
      <point x="87" y="635"/>
      <point x="87" y="509" type="curve" smooth="yes"/>
      <point x="87" y="466"/>
      <point x="100" y="435"/>
      <point x="122" y="411" type="curve"/>
      <point x="67" y="372"/>
      <point x="36" y="314"/>
      <point x="36" y="259" type="curve" smooth="yes"/>
      <point x="36" y="84"/>
      <point x="253" y="101"/>
      <point x="253" y="-19" type="curve" smooth="yes"/>
      <point x="253" y="-58"/>
      <point x="227" y="-84"/>
      <point x="187" y="-84" type="curve" smooth="yes"/>
      <point x="154" y="-84"/>
      <point x="132" y="-68"/>
      <point x="132" y="-34" type="curve" smooth="yes"/>
      <point x="132" y="-28"/>
      <point x="133" y="-22"/>
      <point x="134" y="-16" type="curve"/>
    </contour>
    <contour>
      <point x="274" y="156" type="curve" smooth="yes"/>
      <point x="218" y="191"/>
      <point x="159" y="218"/>
      <point x="159" y="285" type="curve" smooth="yes"/>
      <point x="159" y="313"/>
      <point x="169" y="338"/>
      <point x="188" y="359" type="curve"/>
      <point x="244" y="324"/>
      <point x="304" y="297"/>
      <point x="304" y="230" type="curve" smooth="yes"/>
      <point x="304" y="199"/>
      <point x="290" y="175"/>
    </contour>
  </outline>
</glyph>
<glyph name="dieresis" format="1">
  <advance width="273"/>
  <unicode hex="00A8"/>
  <outline>
    <contour>
      <point x="259" y="723" type="line"/>
      <point x="244" y="614" type="line"/>
      <point x="344" y="614" type="line"/>
      <point x="359" y="723" type="line"/>
    </contour>
    <contour>
      <point x="84" y="723" type="line"/>
      <point x="70" y="614" type="line"/>
      <point x="169" y="614" type="line"/>
      <point x="184" y="723" type="line"/>
    </contour>
    <contour>
      <point x="193" y="526" type="move" name="_top"/>
    </contour>
  </outline>
</glyph>
<glyph name="copyright" format="1">
  <advance width="604"/>
  <unicode hex="00A9"/>
  <outline>
    <contour>
      <point x="302" y="-12" type="curve" smooth="yes"/>
      <point x="480" y="-12"/>
      <point x="588" y="127"/>
      <point x="588" y="343" type="curve" smooth="yes"/>
      <point x="588" y="559"/>
      <point x="480" y="698"/>
      <point x="302" y="698" type="curve" smooth="yes"/>
      <point x="124" y="698"/>
      <point x="16" y="559"/>
      <point x="16" y="343" type="curve" smooth="yes"/>
      <point x="16" y="127"/>
      <point x="124" y="-12"/>
    </contour>
    <contour>
      <point x="302" y="43" type="curve" smooth="yes"/>
      <point x="159" y="43"/>
      <point x="72" y="160"/>
      <point x="72" y="343" type="curve" smooth="yes"/>
      <point x="72" y="526"/>
      <point x="159" y="643"/>
      <point x="302" y="643" type="curve" smooth="yes"/>
      <point x="445" y="643"/>
      <point x="532" y="526"/>
      <point x="532" y="343" type="curve" smooth="yes"/>
      <point x="532" y="160"/>
      <point x="445" y="43"/>
    </contour>
    <contour>
      <point x="304" y="134" type="curve" smooth="yes"/>
      <point x="390" y="134"/>
      <point x="453" y="185"/>
      <point x="453" y="291" type="curve"/>
      <point x="369" y="291" type="line"/>
      <point x="369" y="235"/>
      <point x="344" y="209"/>
      <point x="307" y="209" type="curve" smooth="yes"/>
      <point x="256" y="209"/>
      <point x="231" y="254"/>
      <point x="231" y="329" type="curve" smooth="yes"/>
      <point x="231" y="358" type="line" smooth="yes"/>
      <point x="231" y="433"/>
      <point x="255" y="478"/>
      <point x="304" y="478" type="curve" smooth="yes"/>
      <point x="341" y="478"/>
      <point x="366" y="451"/>
      <point x="366" y="395" type="curve"/>
      <point x="453" y="395" type="line"/>
      <point x="453" y="505"/>
      <point x="389" y="553"/>
      <point x="304" y="553" type="curve" smooth="yes"/>
      <point x="203" y="553"/>
      <point x="143" y="486"/>
      <point x="143" y="343" type="curve" smooth="yes"/>
      <point x="143" y="200"/>
      <point x="203" y="134"/>
    </contour>
  </outline>
</glyph>
<glyph name="ordfeminine" format="1">
  <advance width="303"/>
  <unicode hex="00AA"/>
  <outline>
    <contour>
      <point x="166" y="362" type="curve" smooth="yes"/>
      <point x="190" y="362"/>
      <point x="219" y="376"/>
      <point x="237" y="409" type="curve"/>
      <point x="244" y="379"/>
      <point x="263" y="362"/>
      <point x="293" y="362" type="curve" smooth="yes"/>
      <point x="312" y="362"/>
      <point x="324" y="368"/>
      <point x="333" y="373" type="curve"/>
      <point x="341" y="430" type="line"/>
      <point x="328" y="430" type="line" smooth="yes"/>
      <point x="319" y="430"/>
      <point x="312" y="435"/>
      <point x="312" y="449" type="curve" smooth="yes"/>
      <point x="312" y="456"/>
      <point x="354" y="724"/>
      <point x="354" y="724" type="curve"/>
      <point x="305" y="724" type="line"/>
      <point x="278" y="682" type="line"/>
      <point x="265" y="713"/>
      <point x="241" y="732"/>
      <point x="204" y="732" type="curve" smooth="yes"/>
      <point x="137" y="732"/>
      <point x="70" y="658"/>
      <point x="70" y="487" type="curve" smooth="yes"/>
      <point x="70" y="404"/>
      <point x="106" y="362"/>
    </contour>
    <contour>
      <point x="186" y="431" type="curve" smooth="yes"/>
      <point x="161" y="431"/>
      <point x="150" y="455"/>
      <point x="150" y="498" type="curve" smooth="yes"/>
      <point x="150" y="537"/>
      <point x="164" y="663"/>
      <point x="219" y="663" type="curve" smooth="yes"/>
      <point x="247" y="663"/>
      <point x="255" y="639"/>
      <point x="255" y="597" type="curve" smooth="yes"/>
      <point x="255" y="547"/>
      <point x="243" y="431"/>
    </contour>
  </outline>
</glyph>
<glyph name="guillemotleft" format="1">
  <advance width="456"/>
  <unicode hex="00AB"/>
  <outline>
    <contour>
      <point x="211" y="326" type="line"/>
      <point x="318" y="126" type="line"/>
      <point x="409" y="126" type="line"/>
      <point x="330" y="326" type="line"/>
      <point x="466" y="526" type="line"/>
      <point x="371" y="526" type="line"/>
    </contour>
    <contour>
      <point x="28" y="326" type="line"/>
      <point x="135" y="126" type="line"/>
      <point x="226" y="126" type="line"/>
      <point x="147" y="326" type="line"/>
      <point x="283" y="526" type="line"/>
      <point x="188" y="526" type="line"/>
    </contour>
  </outline>
</glyph>
<glyph name="logicalnot" format="1">
  <advance width="479"/>
  <unicode hex="00AC"/>
  <outline>
    <contour>
      <point x="56" y="463" type="line"/>
      <point x="40" y="350" type="line"/>
      <point x="345" y="350" type="line"/>
      <point x="322" y="187" type="line"/>
      <point x="433" y="187" type="line"/>
      <point x="472" y="463" type="line"/>
    </contour>
  </outline>
</glyph>
<glyph name="uni00AD" format="1">
  <advance width="273"/>
  <unicode hex="00AD"/>
  <outline>
    <contour>
      <point x="30" y="329" type="line"/>
      <point x="13" y="211" type="line"/>
      <point x="254" y="211" type="line"/>
      <point x="271" y="329" type="line"/>
    </contour>
  </outline>
</glyph>
<glyph name="macron" format="1">
  <advance width="273"/>
  <unicode hex="00AF"/>
  <outline>
    <contour>
      <point x="15" y="686" type="line"/>
      <point x="2" y="599" type="line"/>
      <point x="257" y="599" type="line"/>
      <point x="270" y="686" type="line"/>
    </contour>
    <contour>
      <point x="121" y="526" type="move" name="_top"/>
    </contour>
  </outline>
</glyph>
<glyph name="plusminus" format="1">
  <advance width="549"/>
  <unicode hex="00B1"/>
  <outline>
    <contour>
      <point x="224" y="317" type="line"/>
      <point x="200" y="144" type="line"/>
      <point x="303" y="144" type="line"/>
      <point x="327" y="317" type="line"/>
      <point x="482" y="317" type="line"/>
      <point x="497" y="421" type="line"/>
      <point x="342" y="421" type="line"/>
      <point x="366" y="595" type="line"/>
      <point x="263" y="595" type="line"/>
      <point x="239" y="421" type="line"/>
      <point x="85" y="421" type="line"/>
      <point x="70" y="317" type="line"/>
    </contour>
    <contour>
      <point x="40" y="103" type="line"/>
      <point x="26" y="0" type="line"/>
      <point x="438" y="0" type="line"/>
      <point x="452" y="103" type="line"/>
    </contour>
  </outline>
</glyph>
<glyph name="twosuperior" format="1">
  <advance width="273"/>
  <unicode hex="00B2"/>
  <outline>
    <contour>
      <point x="23" y="320" type="line"/>
      <point x="260" y="320" type="line"/>
      <point x="271" y="394" type="line"/>
      <point x="135" y="394" type="line"/>
      <point x="201" y="474"/>
      <point x="303" y="540"/>
      <point x="303" y="648" type="curve" smooth="yes"/>
      <point x="303" y="709"/>
      <point x="259" y="734"/>
      <point x="200" y="734" type="curve" smooth="yes"/>
      <point x="112" y="734"/>
      <point x="66" y="660"/>
      <point x="66" y="581" type="curve"/>
      <point x="145" y="581" type="line"/>
      <point x="153" y="639"/>
      <point x="168" y="664"/>
      <point x="192" y="664" type="curve" smooth="yes"/>
      <point x="213" y="664"/>
      <point x="219" y="649"/>
      <point x="219" y="634" type="curve" smooth="yes"/>
      <point x="219" y="531"/>
      <point x="44" y="470"/>
      <point x="26" y="338" type="curve" smooth="yes"/>
    </contour>
  </outline>
</glyph>
<glyph name="threesuperior" format="1">
  <advance width="273"/>
  <unicode hex="00B3"/>
  <outline>
    <contour>
      <point x="157" y="312" type="curve" smooth="yes"/>
      <point x="227" y="312"/>
      <point x="289" y="365"/>
      <point x="289" y="450" type="curve" smooth="yes"/>
      <point x="289" y="489"/>
      <point x="270" y="516"/>
      <point x="244" y="530" type="curve"/>
      <point x="282" y="552"/>
      <point x="310" y="581"/>
      <point x="310" y="638" type="curve" smooth="yes"/>
      <point x="310" y="701"/>
      <point x="268" y="734"/>
      <point x="204" y="734" type="curve" smooth="yes"/>
      <point x="140" y="734"/>
      <point x="89" y="689"/>
      <point x="76" y="599" type="curve"/>
      <point x="158" y="599" type="line"/>
      <point x="164" y="649"/>
      <point x="179" y="665"/>
      <point x="200" y="665" type="curve" smooth="yes"/>
      <point x="216" y="665"/>
      <point x="226" y="655"/>
      <point x="226" y="631" type="curve" smooth="yes"/>
      <point x="226" y="584"/>
      <point x="201" y="560"/>
      <point x="183" y="560" type="curve" smooth="yes"/>
      <point x="162" y="560" type="line"/>
      <point x="152" y="493" type="line"/>
      <point x="172" y="493" type="line" smooth="yes"/>
      <point x="190" y="493"/>
      <point x="207" y="484"/>
      <point x="207" y="452" type="curve" smooth="yes"/>
      <point x="207" y="402"/>
      <point x="185" y="381"/>
      <point x="161" y="381" type="curve" smooth="yes"/>
      <point x="138" y="381"/>
      <point x="127" y="394"/>
      <point x="127" y="420" type="curve" smooth="yes"/>
      <point x="127" y="424"/>
      <point x="127" y="429"/>
      <point x="131" y="452" type="curve" smooth="yes"/>
      <point x="49" y="452" type="line"/>
      <point x="45" y="429"/>
      <point x="45" y="422"/>
      <point x="45" y="415" type="curve" smooth="yes"/>
      <point x="45" y="352"/>
      <point x="83" y="312"/>
    </contour>
  </outline>
</glyph>
<glyph name="mu" format="1">
  <advance width="499"/>
  <unicode hex="00B5"/>
  <outline>
    <contour>
      <point x="118" y="-172" type="line"/>
      <point x="141" y="-1" type="line"/>
      <point x="155" y="-8"/>
      <point x="171" y="-12"/>
      <point x="189" y="-12" type="curve" smooth="yes"/>
      <point x="247" y="-12"/>
      <point x="283" y="23"/>
      <point x="311" y="68" type="curve"/>
      <point x="311" y="0" type="line"/>
      <point x="409" y="0" type="line"/>
      <point x="482" y="526" type="line"/>
      <point x="363" y="526" type="line"/>
      <point x="320" y="210" type="line" smooth="yes"/>
      <point x="310" y="137"/>
      <point x="268" y="97"/>
      <point x="222" y="97" type="curve" smooth="yes"/>
      <point x="186" y="97"/>
      <point x="164" y="117"/>
      <point x="164" y="163" type="curve" smooth="yes"/>
      <point x="164" y="171"/>
      <point x="166" y="180"/>
      <point x="213" y="526" type="curve"/>
      <point x="95" y="526" type="line"/>
      <point x="-1" y="-172" type="line"/>
    </contour>
  </outline>
</glyph>
<glyph name="paragraph" format="1">
  <advance width="456"/>
  <unicode hex="00B6"/>
  <outline>
    <contour>
      <point x="126" y="-173" type="line"/>
      <point x="206" y="-173" type="line"/>
      <point x="316" y="610" type="line"/>
      <point x="369" y="610" type="line"/>
      <point x="259" y="-173" type="line"/>
      <point x="340" y="-173" type="line"/>
      <point x="450" y="610" type="line"/>
      <point x="498" y="610" type="line"/>
      <point x="509" y="686" type="line"/>
      <point x="270" y="686" type="line" smooth="yes"/>
      <point x="153" y="686"/>
      <point x="44" y="603"/>
      <point x="44" y="431" type="curve" smooth="yes"/>
      <point x="44" y="335"/>
      <point x="101" y="261"/>
      <point x="186" y="250" type="curve"/>
    </contour>
  </outline>
</glyph>
<glyph name="periodcentered" format="1">
  <advance width="228"/>
  <unicode hex="00B7"/>
  <outline>
    <contour>
      <point x="79" y="409" type="line"/>
      <point x="60" y="278" type="line"/>
      <point x="181" y="278" type="line"/>
      <point x="200" y="409" type="line"/>
    </contour>
  </outline>
</glyph>
<glyph name="cedilla" format="1">
  <advance width="273"/>
  <unicode hex="00B8"/>
  <outline>
    <contour>
      <point x="168" y="11" type="line"/>
      <point x="100" y="11" type="line"/>
      <point x="77" y="-77" type="line"/>
      <point x="110" y="-77" type="line" smooth="yes"/>
      <point x="132" y="-77"/>
      <point x="141" y="-83"/>
      <point x="141" y="-95" type="curve" smooth="yes"/>
      <point x="141" y="-119"/>
      <point x="125" y="-125"/>
      <point x="101" y="-125" type="curve" smooth="yes"/>
      <point x="30" y="-125" type="line"/>
      <point x="23" y="-174" type="line"/>
      <point x="46" y="-179"/>
      <point x="78" y="-182"/>
      <point x="106" y="-182" type="curve" smooth="yes"/>
      <point x="161" y="-182"/>
      <point x="227" y="-166"/>
      <point x="227" y="-90" type="curve" smooth="yes"/>
      <point x="227" y="-52"/>
      <point x="195" y="-36"/>
      <point x="157" y="-33" type="curve"/>
    </contour>
    <contour>
      <point x="134" y="0" type="move" name="_bottom"/>
    </contour>
  </outline>
</glyph>
<glyph name="onesuperior" format="1">
  <advance width="273"/>
  <unicode hex="00B9"/>
  <outline>
    <contour>
      <point x="49" y="389" type="line"/>
      <point x="39" y="320" type="line"/>
      <point x="259" y="320" type="line"/>
      <point x="269" y="389" type="line"/>
      <point x="203" y="389" type="line"/>
      <point x="250" y="723" type="line"/>
      <point x="210" y="723" type="line"/>
      <point x="174" y="701"/>
      <point x="119" y="682"/>
      <point x="88" y="678" type="curve"/>
      <point x="81" y="622" type="line"/>
      <point x="156" y="622" type="line"/>
      <point x="123" y="389" type="line"/>
    </contour>
  </outline>
</glyph>
<glyph name="ordmasculine" format="1">
  <advance width="299"/>
  <unicode hex="00BA"/>
  <outline>
    <contour>
      <point x="180" y="363" type="curve" smooth="yes"/>
      <point x="314" y="363"/>
      <point x="344" y="497"/>
      <point x="344" y="602" type="curve" smooth="yes"/>
      <point x="344" y="690"/>
      <point x="301" y="733"/>
      <point x="219" y="733" type="curve" smooth="yes"/>
      <point x="85" y="733"/>
      <point x="55" y="596"/>
      <point x="55" y="492" type="curve" smooth="yes"/>
      <point x="55" y="404"/>
      <point x="98" y="363"/>
    </contour>
    <contour>
      <point x="183" y="431" type="curve"/>
      <point x="151" y="431"/>
      <point x="138" y="452"/>
      <point x="138" y="494" type="curve" smooth="yes"/>
      <point x="138" y="520"/>
      <point x="142" y="665"/>
      <point x="216" y="665" type="curve" smooth="yes"/>
      <point x="248" y="665"/>
      <point x="261" y="643"/>
      <point x="261" y="602" type="curve" smooth="yes"/>
      <point x="261" y="576"/>
      <point x="257" y="431"/>
    </contour>
  </outline>
</glyph>
<glyph name="guillemotright" format="1">
  <advance width="456"/>
  <unicode hex="00BB"/>
  <outline>
    <contour>
      <point x="328" y="326" type="line"/>
      <point x="191" y="126" type="line"/>
      <point x="286" y="126" type="line"/>
      <point x="447" y="326" type="line"/>
      <point x="339" y="526" type="line"/>
      <point x="248" y="526" type="line"/>
    </contour>
    <contour>
      <point x="145" y="326" type="line"/>
      <point x="9" y="126" type="line"/>
      <point x="103" y="126" type="line"/>
      <point x="264" y="326" type="line"/>
      <point x="156" y="526" type="line"/>
      <point x="65" y="526" type="line"/>
    </contour>
  </outline>
</glyph>
<glyph name="onequarter" format="1">
  <advance width="684"/>
  <unicode hex="00BC"/>
  <outline>
    <contour>
      <point x="584" y="698" type="line"/>
      <point x="90" y="-12" type="line"/>
      <point x="157" y="-12" type="line"/>
      <point x="650" y="698" type="line"/>
    </contour>
    <contour>
      <point x="34" y="352" type="line"/>
      <point x="24" y="283" type="line"/>
      <point x="244" y="283" type="line"/>
      <point x="254" y="352" type="line"/>
      <point x="188" y="352" type="line"/>
      <point x="235" y="686" type="line"/>
      <point x="195" y="686" type="line"/>
      <point x="159" y="664"/>
      <point x="104" y="645"/>
      <point x="73" y="641" type="curve"/>
      <point x="66" y="585" type="line"/>
      <point x="141" y="585" type="line"/>
      <point x="108" y="352" type="line"/>
    </contour>
    <contour>
      <point x="374" y="89" type="line"/>
      <point x="516" y="89" type="line"/>
      <point x="503" y="0" type="line"/>
      <point x="582" y="0" type="line"/>
      <point x="595" y="89" type="line"/>
      <point x="637" y="89" type="line"/>
      <point x="647" y="158" type="line"/>
      <point x="605" y="158" type="line"/>
      <point x="628" y="326" type="line"/>
      <point x="601" y="326" type="line"/>
      <point x="588" y="293"/>
      <point x="551" y="225"/>
      <point x="531" y="195" type="curve"/>
      <point x="526" y="158" type="line"/>
      <point x="458" y="158" type="line"/>
      <point x="489" y="197"/>
      <point x="563" y="312"/>
      <point x="600" y="414" type="curve"/>
      <point x="521" y="414" type="line"/>
      <point x="483" y="323"/>
      <point x="433" y="223"/>
      <point x="382" y="150" type="curve"/>
    </contour>
  </outline>
</glyph>
<glyph name="onehalf" format="1">
  <advance width="684"/>
  <unicode hex="00BD"/>
  <outline>
    <contour>
      <point x="568" y="698" type="line"/>
      <point x="74" y="-12" type="line"/>
      <point x="141" y="-12" type="line"/>
      <point x="634" y="698" type="line"/>
    </contour>
    <contour>
      <point x="34" y="352" type="line"/>
      <point x="24" y="283" type="line"/>
      <point x="244" y="283" type="line"/>
      <point x="254" y="352" type="line"/>
      <point x="188" y="352" type="line"/>
      <point x="235" y="686" type="line"/>
      <point x="195" y="686" type="line"/>
      <point x="159" y="664"/>
      <point x="104" y="645"/>
      <point x="73" y="641" type="curve"/>
      <point x="66" y="585" type="line"/>
      <point x="141" y="585" type="line"/>
      <point x="108" y="352" type="line"/>
    </contour>
    <contour>
      <point x="383" y="0" type="line"/>
      <point x="620" y="0" type="line"/>
      <point x="631" y="74" type="line"/>
      <point x="495" y="74" type="line"/>
      <point x="561" y="154"/>
      <point x="663" y="220"/>
      <point x="663" y="328" type="curve" smooth="yes"/>
      <point x="663" y="389"/>
      <point x="619" y="414"/>
      <point x="560" y="414" type="curve" smooth="yes"/>
      <point x="472" y="414"/>
      <point x="426" y="340"/>
      <point x="426" y="261" type="curve"/>
      <point x="505" y="261" type="line"/>
      <point x="513" y="319"/>
      <point x="528" y="344"/>
      <point x="552" y="344" type="curve" smooth="yes"/>
      <point x="573" y="344"/>
      <point x="579" y="329"/>
      <point x="579" y="314" type="curve" smooth="yes"/>
      <point x="579" y="211"/>
      <point x="404" y="150"/>
      <point x="386" y="18" type="curve" smooth="yes"/>
    </contour>
  </outline>
</glyph>
<glyph name="threequarters" format="1">
  <advance width="684"/>
  <unicode hex="00BE"/>
  <outline>
    <contour>
      <point x="574" y="698" type="line"/>
      <point x="80" y="-12" type="line"/>
      <point x="147" y="-12" type="line"/>
      <point x="640" y="698" type="line"/>
    </contour>
    <contour>
      <point x="142" y="273" type="curve" smooth="yes"/>
      <point x="212" y="273"/>
      <point x="274" y="326"/>
      <point x="274" y="411" type="curve" smooth="yes"/>
      <point x="274" y="450"/>
      <point x="255" y="477"/>
      <point x="229" y="491" type="curve"/>
      <point x="267" y="513"/>
      <point x="295" y="542"/>
      <point x="295" y="599" type="curve" smooth="yes"/>
      <point x="295" y="662"/>
      <point x="253" y="695"/>
      <point x="189" y="695" type="curve" smooth="yes"/>
      <point x="125" y="695"/>
      <point x="74" y="650"/>
      <point x="61" y="560" type="curve"/>
      <point x="143" y="560" type="line"/>
      <point x="149" y="610"/>
      <point x="164" y="626"/>
      <point x="185" y="626" type="curve" smooth="yes"/>
      <point x="201" y="626"/>
      <point x="211" y="616"/>
      <point x="211" y="592" type="curve" smooth="yes"/>
      <point x="211" y="545"/>
      <point x="186" y="521"/>
      <point x="168" y="521" type="curve" smooth="yes"/>
      <point x="147" y="521" type="line"/>
      <point x="137" y="454" type="line"/>
      <point x="157" y="454" type="line" smooth="yes"/>
      <point x="175" y="454"/>
      <point x="192" y="445"/>
      <point x="192" y="413" type="curve" smooth="yes"/>
      <point x="192" y="363"/>
      <point x="170" y="342"/>
      <point x="146" y="342" type="curve" smooth="yes"/>
      <point x="123" y="342"/>
      <point x="112" y="355"/>
      <point x="112" y="381" type="curve" smooth="yes"/>
      <point x="112" y="385"/>
      <point x="112" y="390"/>
      <point x="116" y="413" type="curve" smooth="yes"/>
      <point x="34" y="413" type="line"/>
      <point x="30" y="390"/>
      <point x="30" y="383"/>
      <point x="30" y="376" type="curve" smooth="yes"/>
      <point x="30" y="313"/>
      <point x="68" y="273"/>
    </contour>
    <contour>
      <point x="380" y="89" type="line"/>
      <point x="522" y="89" type="line"/>
      <point x="509" y="0" type="line"/>
      <point x="588" y="0" type="line"/>
      <point x="601" y="89" type="line"/>
      <point x="643" y="89" type="line"/>
      <point x="653" y="158" type="line"/>
      <point x="611" y="158" type="line"/>
      <point x="634" y="326" type="line"/>
      <point x="607" y="326" type="line"/>
      <point x="594" y="293"/>
      <point x="557" y="225"/>
      <point x="537" y="195" type="curve"/>
      <point x="532" y="158" type="line"/>
      <point x="464" y="158" type="line"/>
      <point x="495" y="197"/>
      <point x="569" y="312"/>
      <point x="606" y="414" type="curve"/>
      <point x="527" y="414" type="line"/>
      <point x="489" y="323"/>
      <point x="439" y="223"/>
      <point x="388" y="150" type="curve"/>
    </contour>
  </outline>
</glyph>
<glyph name="questiondown" format="1">
  <advance width="501"/>
  <unicode hex="00BF"/>
  <outline>
    <contour>
      <point x="240" y="526" type="line"/>
      <point x="220" y="389" type="line"/>
      <point x="357" y="389" type="line"/>
      <point x="377" y="526" type="line"/>
    </contour>
    <contour>
      <point x="48" y="-22" type="curve" smooth="yes"/>
      <point x="48" y="-112"/>
      <point x="116" y="-172"/>
      <point x="231" y="-172" type="curve" smooth="yes"/>
      <point x="378" y="-172"/>
      <point x="458" y="-60"/>
      <point x="458" y="67" type="curve"/>
      <point x="333" y="67" type="line"/>
      <point x="333" y="10"/>
      <point x="312" y="-65"/>
      <point x="244" y="-65" type="curve" smooth="yes"/>
      <point x="191" y="-65"/>
      <point x="181" y="-24"/>
      <point x="181" y="2" type="curve" smooth="yes"/>
      <point x="181" y="124"/>
      <point x="322" y="172"/>
      <point x="338" y="286" type="curve" smooth="yes"/>
      <point x="344" y="329" type="line"/>
      <point x="219" y="329" type="line"/>
      <point x="215" y="301" type="line" smooth="yes"/>
      <point x="198" y="185"/>
      <point x="48" y="163"/>
    </contour>
  </outline>
</glyph>
<glyph name="Agrave" format="1">
  <advance width="592"/>
  <unicode hex="00C0"/>
  <outline>
    <contour>
      <point x="288" y="686" type="line"/>
      <point x="-26" y="0" type="line"/>
      <point x="102" y="0" type="line"/>
      <point x="161" y="135" type="line"/>
      <point x="406" y="135" type="line"/>
      <point x="428" y="0" type="line"/>
      <point x="558" y="0" type="line"/>
      <point x="435" y="686" type="line"/>
    </contour>
    <contour>
      <point x="387" y="249" type="line"/>
      <point x="212" y="249" type="line"/>
      <point x="295" y="437" type="line" smooth="yes"/>
      <point x="317" y="486"/>
      <point x="341" y="570"/>
      <point x="341" y="570" type="curve"/>
      <point x="345" y="570" type="line"/>
      <point x="345" y="570"/>
      <point x="349" y="489"/>
      <point x="357" y="437" type="curve" smooth="yes"/>
    </contour>
    <contour>
      <point x="249" y="880" type="line"/>
      <point x="339" y="751" type="line"/>
      <point x="438" y="751" type="line"/>
      <point x="371" y="883" type="line"/>
      <point x="251" y="883" type="line"/>
    </contour>
  </outline>
</glyph>
<glyph name="Acircumflex" format="1">
  <advance width="592"/>
  <unicode hex="00C2"/>
  <outline>
    <contour>
      <point x="288" y="686" type="line"/>
      <point x="-26" y="0" type="line"/>
      <point x="102" y="0" type="line"/>
      <point x="161" y="135" type="line"/>
      <point x="406" y="135" type="line"/>
      <point x="428" y="0" type="line"/>
      <point x="558" y="0" type="line"/>
      <point x="435" y="686" type="line"/>
    </contour>
    <contour>
      <point x="387" y="249" type="line"/>
      <point x="212" y="249" type="line"/>
      <point x="295" y="437" type="line" smooth="yes"/>
      <point x="317" y="486"/>
      <point x="341" y="570"/>
      <point x="341" y="570" type="curve"/>
      <point x="345" y="570" type="line"/>
      <point x="345" y="570"/>
      <point x="349" y="489"/>
      <point x="357" y="437" type="curve" smooth="yes"/>
    </contour>
    <contour>
      <point x="338" y="883" type="line"/>
      <point x="234" y="748" type="line"/>
      <point x="327" y="748" type="line"/>
      <point x="378" y="817" type="line"/>
      <point x="412" y="748" type="line"/>
      <point x="502" y="748" type="line"/>
      <point x="436" y="883" type="line"/>
    </contour>
  </outline>
</glyph>
<glyph name="Atilde" format="1">
  <advance width="592"/>
  <unicode hex="00C3"/>
  <outline>
    <contour>
      <point x="288" y="686" type="line"/>
      <point x="-26" y="0" type="line"/>
      <point x="102" y="0" type="line"/>
      <point x="161" y="135" type="line"/>
      <point x="406" y="135" type="line"/>
      <point x="428" y="0" type="line"/>
      <point x="558" y="0" type="line"/>
      <point x="435" y="686" type="line"/>
    </contour>
    <contour>
      <point x="387" y="249" type="line"/>
      <point x="212" y="249" type="line"/>
      <point x="295" y="437" type="line" smooth="yes"/>
      <point x="317" y="486"/>
      <point x="341" y="570"/>
      <point x="341" y="570" type="curve"/>
      <point x="345" y="570" type="line"/>
      <point x="345" y="570"/>
      <point x="349" y="489"/>
      <point x="357" y="437" type="curve" smooth="yes"/>
    </contour>
    <contour>
      <point x="273" y="761" type="line"/>
      <point x="281" y="788"/>
      <point x="296" y="798"/>
      <point x="317" y="798" type="curve" smooth="yes"/>
      <point x="361" y="798"/>
      <point x="395" y="761"/>
      <point x="442" y="761" type="curve" smooth="yes"/>
      <point x="513" y="761"/>
      <point x="557" y="828"/>
      <point x="557" y="883" type="curve"/>
      <point x="492" y="883" type="line"/>
      <point x="484" y="855"/>
      <point x="469" y="846"/>
      <point x="448" y="846" type="curve" smooth="yes"/>
      <point x="404" y="846"/>
      <point x="370" y="883"/>
      <point x="322" y="883" type="curve" smooth="yes"/>
      <point x="252" y="883"/>
      <point x="209" y="814"/>
      <point x="209" y="761" type="curve"/>
    </contour>
  </outline>
</glyph>
<glyph name="Adieresis" format="1">
  <advance width="592"/>
  <unicode hex="00C4"/>
  <outline>
    <contour>
      <point x="288" y="686" type="line"/>
      <point x="-26" y="0" type="line"/>
      <point x="102" y="0" type="line"/>
      <point x="161" y="135" type="line"/>
      <point x="406" y="135" type="line"/>
      <point x="428" y="0" type="line"/>
      <point x="558" y="0" type="line"/>
      <point x="435" y="686" type="line"/>
    </contour>
    <contour>
      <point x="387" y="249" type="line"/>
      <point x="212" y="249" type="line"/>
      <point x="295" y="437" type="line" smooth="yes"/>
      <point x="317" y="486"/>
      <point x="341" y="570"/>
      <point x="341" y="570" type="curve"/>
      <point x="345" y="570" type="line"/>
      <point x="345" y="570"/>
      <point x="349" y="489"/>
      <point x="357" y="437" type="curve" smooth="yes"/>
    </contour>
    <contour>
      <point x="425" y="883" type="line"/>
      <point x="410" y="774" type="line"/>
      <point x="510" y="774" type="line"/>
      <point x="525" y="883" type="line"/>
    </contour>
    <contour>
      <point x="250" y="883" type="line"/>
      <point x="236" y="774" type="line"/>
      <point x="335" y="774" type="line"/>
      <point x="350" y="883" type="line"/>
    </contour>
  </outline>
</glyph>
<glyph name="Aring" format="1">
  <advance width="592"/>
  <unicode hex="00C5"/>
  <outline>
    <contour>
      <point x="288" y="686" type="line"/>
      <point x="-26" y="0" type="line"/>
      <point x="102" y="0" type="line"/>
      <point x="161" y="135" type="line"/>
      <point x="406" y="135" type="line"/>
      <point x="428" y="0" type="line"/>
      <point x="558" y="0" type="line"/>
      <point x="435" y="686" type="line"/>
    </contour>
    <contour>
      <point x="387" y="249" type="line"/>
      <point x="212" y="249" type="line"/>
      <point x="295" y="437" type="line" smooth="yes"/>
      <point x="317" y="486"/>
      <point x="341" y="570"/>
      <point x="341" y="570" type="curve"/>
      <point x="345" y="570" type="line"/>
      <point x="345" y="570"/>
      <point x="349" y="489"/>
      <point x="357" y="437" type="curve" smooth="yes"/>
    </contour>
    <contour>
      <point x="378" y="721" type="curve" smooth="yes"/>
      <point x="431" y="721"/>
      <point x="474" y="764"/>
      <point x="474" y="817" type="curve" smooth="yes"/>
      <point x="474" y="869"/>
      <point x="432" y="913"/>
      <point x="378" y="913" type="curve" smooth="yes"/>
      <point x="325" y="913"/>
      <point x="282" y="870"/>
      <point x="282" y="817" type="curve" smooth="yes"/>
      <point x="282" y="763"/>
      <point x="326" y="721"/>
    </contour>
    <contour>
      <point x="378" y="771" type="curve" smooth="yes"/>
      <point x="352" y="771"/>
      <point x="332" y="791"/>
      <point x="332" y="817" type="curve" smooth="yes"/>
      <point x="332" y="843"/>
      <point x="352" y="863"/>
      <point x="378" y="863" type="curve" smooth="yes"/>
      <point x="403" y="863"/>
      <point x="424" y="843"/>
      <point x="424" y="817" type="curve" smooth="yes"/>
      <point x="424" y="791"/>
      <point x="403" y="771"/>
    </contour>
  </outline>
</glyph>
<glyph name="Ccedilla" format="1">
  <advance width="592"/>
  <unicode hex="00C7"/>
  <outline>
    <contour>
      <point x="45" y="250" type="curve" smooth="yes"/>
      <point x="45" y="94"/>
      <point x="112" y="10"/>
      <point x="229" y="-8" type="curve"/>
      <point x="212" y="-77" type="line"/>
      <point x="245" y="-77" type="line" smooth="yes"/>
      <point x="267" y="-77"/>
      <point x="276" y="-83"/>
      <point x="276" y="-95" type="curve" smooth="yes"/>
      <point x="276" y="-119"/>
      <point x="260" y="-125"/>
      <point x="236" y="-125" type="curve" smooth="yes"/>
      <point x="165" y="-125" type="line"/>
      <point x="158" y="-174" type="line"/>
      <point x="181" y="-179"/>
      <point x="213" y="-182"/>
      <point x="241" y="-182" type="curve" smooth="yes"/>
      <point x="296" y="-182"/>
      <point x="362" y="-166"/>
      <point x="362" y="-90" type="curve" smooth="yes"/>
      <point x="362" y="-52"/>
      <point x="330" y="-36"/>
      <point x="292" y="-33" type="curve"/>
      <point x="297" y="-12" type="line"/>
      <point x="451" y="-5"/>
      <point x="536" y="115"/>
      <point x="566" y="254" type="curve"/>
      <point x="441" y="254" type="line"/>
      <point x="423" y="170"/>
      <point x="377" y="98"/>
      <point x="287" y="98" type="curve" smooth="yes"/>
      <point x="210" y="98"/>
      <point x="174" y="156"/>
      <point x="174" y="255" type="curve" smooth="yes"/>
      <point x="174" y="383"/>
      <point x="207" y="588"/>
      <point x="353" y="588" type="curve" smooth="yes"/>
      <point x="419" y="588"/>
      <point x="459" y="538"/>
      <point x="459" y="449" type="curve" smooth="yes"/>
      <point x="459" y="431" type="line"/>
      <point x="589" y="431" type="line"/>
      <point x="589" y="444" type="line" smooth="yes"/>
      <point x="589" y="614"/>
      <point x="497" y="698"/>
      <point x="353" y="698" type="curve" smooth="yes"/>
      <point x="126" y="698"/>
      <point x="45" y="461"/>
    </contour>
  </outline>
</glyph>
<glyph name="Ecircumflex" format="1">
  <advance width="547"/>
  <unicode hex="00CA"/>
  <outline>
    <contour>
      <point x="323" y="883" type="line"/>
      <point x="219" y="748" type="line"/>
      <point x="312" y="748" type="line"/>
      <point x="363" y="817" type="line"/>
      <point x="397" y="748" type="line"/>
      <point x="487" y="748" type="line"/>
      <point x="421" y="883" type="line"/>
    </contour>
    <contour>
      <point x="466" y="0" type="line"/>
      <point x="482" y="114" type="line"/>
      <point x="170" y="114" type="line"/>
      <point x="196" y="294" type="line"/>
      <point x="458" y="294" type="line"/>
      <point x="474" y="408" type="line"/>
      <point x="212" y="408" type="line"/>
      <point x="235" y="572" type="line"/>
      <point x="540" y="572" type="line"/>
      <point x="556" y="686" type="line"/>
      <point x="124" y="686" type="line"/>
      <point x="28" y="0" type="line"/>
    </contour>
  </outline>
</glyph>
<glyph name="Edieresis" format="1">
  <advance width="547"/>
  <unicode hex="00CB"/>
  <outline>
    <contour>
      <point x="410" y="883" type="line"/>
      <point x="395" y="774" type="line"/>
      <point x="495" y="774" type="line"/>
      <point x="510" y="883" type="line"/>
    </contour>
    <contour>
      <point x="235" y="883" type="line"/>
      <point x="221" y="774" type="line"/>
      <point x="320" y="774" type="line"/>
      <point x="335" y="883" type="line"/>
    </contour>
    <contour>
      <point x="466" y="0" type="line"/>
      <point x="482" y="114" type="line"/>
      <point x="170" y="114" type="line"/>
      <point x="196" y="294" type="line"/>
      <point x="458" y="294" type="line"/>
      <point x="474" y="408" type="line"/>
      <point x="212" y="408" type="line"/>
      <point x="235" y="572" type="line"/>
      <point x="540" y="572" type="line"/>
      <point x="556" y="686" type="line"/>
      <point x="124" y="686" type="line"/>
      <point x="28" y="0" type="line"/>
    </contour>
  </outline>
</glyph>
<glyph name="Igrave" format="1">
  <advance width="228"/>
  <unicode hex="00CC"/>
  <outline>
    <contour>
      <point x="114" y="686" type="line"/>
      <point x="18" y="0" type="line"/>
      <point x="145" y="0" type="line"/>
      <point x="241" y="686" type="line"/>
    </contour>
    <contour>
      <point x="67" y="880" type="line"/>
      <point x="157" y="751" type="line"/>
      <point x="256" y="751" type="line"/>
      <point x="189" y="883" type="line"/>
      <point x="69" y="883" type="line"/>
    </contour>
  </outline>
</glyph>
<glyph name="Iacute" format="1">
  <advance width="228"/>
  <unicode hex="00CD"/>
  <outline>
    <contour>
      <point x="114" y="686" type="line"/>
      <point x="18" y="0" type="line"/>
      <point x="145" y="0" type="line"/>
      <point x="241" y="686" type="line"/>
    </contour>
    <contour>
      <point x="210" y="883" type="line"/>
      <point x="124" y="751" type="line"/>
      <point x="223" y="751" type="line"/>
      <point x="331" y="880" type="line"/>
      <point x="330" y="883" type="line"/>
    </contour>
  </outline>
</glyph>
<glyph name="Icircumflex" format="1">
  <advance width="228"/>
  <unicode hex="00CE"/>
  <outline>
    <contour>
      <point x="114" y="686" type="line"/>
      <point x="18" y="0" type="line"/>
      <point x="145" y="0" type="line"/>
      <point x="241" y="686" type="line"/>
    </contour>
    <contour>
      <point x="156" y="883" type="line"/>
      <point x="52" y="748" type="line"/>
      <point x="145" y="748" type="line"/>
      <point x="196" y="817" type="line"/>
      <point x="230" y="748" type="line"/>
      <point x="320" y="748" type="line"/>
      <point x="254" y="883" type="line"/>
    </contour>
  </outline>
</glyph>
<glyph name="Idieresis" format="1">
  <advance width="228"/>
  <unicode hex="00CF"/>
  <outline>
    <contour>
      <point x="114" y="686" type="line"/>
      <point x="18" y="0" type="line"/>
      <point x="145" y="0" type="line"/>
      <point x="241" y="686" type="line"/>
    </contour>
    <contour>
      <point x="243" y="883" type="line"/>
      <point x="228" y="774" type="line"/>
      <point x="328" y="774" type="line"/>
      <point x="343" y="883" type="line"/>
    </contour>
    <contour>
      <point x="68" y="883" type="line"/>
      <point x="54" y="774" type="line"/>
      <point x="153" y="774" type="line"/>
      <point x="168" y="883" type="line"/>
    </contour>
  </outline>
</glyph>
<glyph name="Ntilde" format="1">
  <advance width="592"/>
  <unicode hex="00D1"/>
  <outline>
    <contour>
      <point x="272" y="761" type="line"/>
      <point x="280" y="788"/>
      <point x="295" y="798"/>
      <point x="316" y="798" type="curve" smooth="yes"/>
      <point x="360" y="798"/>
      <point x="394" y="761"/>
      <point x="441" y="761" type="curve" smooth="yes"/>
      <point x="512" y="761"/>
      <point x="556" y="828"/>
      <point x="556" y="883" type="curve"/>
      <point x="491" y="883" type="line"/>
      <point x="483" y="855"/>
      <point x="468" y="846"/>
      <point x="447" y="846" type="curve" smooth="yes"/>
      <point x="403" y="846"/>
      <point x="369" y="883"/>
      <point x="321" y="883" type="curve" smooth="yes"/>
      <point x="251" y="883"/>
      <point x="208" y="814"/>
      <point x="208" y="761" type="curve"/>
    </contour>
    <contour>
      <point x="495" y="0" type="line"/>
      <point x="591" y="686" type="line"/>
      <point x="478" y="686" type="line"/>
      <point x="425" y="304" type="line" smooth="yes"/>
      <point x="423" y="293"/>
      <point x="418" y="247"/>
      <point x="418" y="247" type="curve"/>
      <point x="415" y="244" type="line"/>
      <point x="415" y="244"/>
      <point x="400" y="291"/>
      <point x="393" y="308" type="curve" smooth="yes"/>
      <point x="236" y="686" type="line"/>
      <point x="124" y="686" type="line"/>
      <point x="28" y="0" type="line"/>
      <point x="140" y="0" type="line"/>
      <point x="193" y="382" type="line" smooth="yes"/>
      <point x="196" y="400"/>
      <point x="199" y="439"/>
      <point x="199" y="439" type="curve"/>
      <point x="203" y="442" type="line"/>
      <point x="203" y="442"/>
      <point x="219" y="392"/>
      <point x="225" y="378" type="curve" smooth="yes"/>
      <point x="382" y="0" type="line"/>
    </contour>
  </outline>
</glyph>
<glyph name="Ograve" format="1">
  <advance width="638"/>
  <unicode hex="00D2"/>
  <outline>
    <contour>
      <point x="45" y="250" type="curve" smooth="yes"/>
      <point x="45" y="72"/>
      <point x="139" y="-12"/>
      <point x="299" y="-12" type="curve" smooth="yes"/>
      <point x="536" y="-12"/>
      <point x="623" y="234"/>
      <point x="623" y="435" type="curve" smooth="yes"/>
      <point x="623" y="614"/>
      <point x="528" y="698"/>
      <point x="368" y="698" type="curve" smooth="yes"/>
      <point x="130" y="698"/>
      <point x="45" y="451"/>
    </contour>
    <contour>
      <point x="174" y="255" type="curve" smooth="yes"/>
      <point x="174" y="383"/>
      <point x="211" y="588"/>
      <point x="373" y="588" type="curve" smooth="yes"/>
      <point x="454" y="588"/>
      <point x="493" y="530"/>
      <point x="493" y="430" type="curve" smooth="yes"/>
      <point x="493" y="303"/>
      <point x="455" y="98"/>
      <point x="294" y="98" type="curve" smooth="yes"/>
      <point x="212" y="98"/>
      <point x="174" y="156"/>
    </contour>
    <contour>
      <point x="273" y="880" type="line"/>
      <point x="363" y="751" type="line"/>
      <point x="462" y="751" type="line"/>
      <point x="395" y="883" type="line"/>
      <point x="275" y="883" type="line"/>
    </contour>
  </outline>
</glyph>
<glyph name="Oacute" format="1">
  <advance width="638"/>
  <unicode hex="00D3"/>
  <outline>
    <contour>
      <point x="45" y="250" type="curve" smooth="yes"/>
      <point x="45" y="72"/>
      <point x="139" y="-12"/>
      <point x="299" y="-12" type="curve" smooth="yes"/>
      <point x="536" y="-12"/>
      <point x="623" y="234"/>
      <point x="623" y="435" type="curve" smooth="yes"/>
      <point x="623" y="614"/>
      <point x="528" y="698"/>
      <point x="368" y="698" type="curve" smooth="yes"/>
      <point x="130" y="698"/>
      <point x="45" y="451"/>
    </contour>
    <contour>
      <point x="174" y="255" type="curve" smooth="yes"/>
      <point x="174" y="383"/>
      <point x="211" y="588"/>
      <point x="373" y="588" type="curve" smooth="yes"/>
      <point x="454" y="588"/>
      <point x="493" y="530"/>
      <point x="493" y="430" type="curve" smooth="yes"/>
      <point x="493" y="303"/>
      <point x="455" y="98"/>
      <point x="294" y="98" type="curve" smooth="yes"/>
      <point x="212" y="98"/>
      <point x="174" y="156"/>
    </contour>
    <contour>
      <point x="416" y="883" type="line"/>
      <point x="330" y="751" type="line"/>
      <point x="429" y="751" type="line"/>
      <point x="537" y="880" type="line"/>
      <point x="536" y="883" type="line"/>
    </contour>
  </outline>
</glyph>
<glyph name="Otilde" format="1">
  <advance width="638"/>
  <unicode hex="00D5"/>
  <outline>
    <contour>
      <point x="45" y="250" type="curve" smooth="yes"/>
      <point x="45" y="72"/>
      <point x="139" y="-12"/>
      <point x="299" y="-12" type="curve" smooth="yes"/>
      <point x="536" y="-12"/>
      <point x="623" y="234"/>
      <point x="623" y="435" type="curve" smooth="yes"/>
      <point x="623" y="614"/>
      <point x="528" y="698"/>
      <point x="368" y="698" type="curve" smooth="yes"/>
      <point x="130" y="698"/>
      <point x="45" y="451"/>
    </contour>
    <contour>
      <point x="174" y="255" type="curve" smooth="yes"/>
      <point x="174" y="383"/>
      <point x="211" y="588"/>
      <point x="373" y="588" type="curve" smooth="yes"/>
      <point x="454" y="588"/>
      <point x="493" y="530"/>
      <point x="493" y="430" type="curve" smooth="yes"/>
      <point x="493" y="303"/>
      <point x="455" y="98"/>
      <point x="294" y="98" type="curve" smooth="yes"/>
      <point x="212" y="98"/>
      <point x="174" y="156"/>
    </contour>
    <contour>
      <point x="296" y="761" type="line"/>
      <point x="304" y="788"/>
      <point x="319" y="798"/>
      <point x="340" y="798" type="curve" smooth="yes"/>
      <point x="384" y="798"/>
      <point x="418" y="761"/>
      <point x="465" y="761" type="curve" smooth="yes"/>
      <point x="536" y="761"/>
      <point x="580" y="828"/>
      <point x="580" y="883" type="curve"/>
      <point x="515" y="883" type="line"/>
      <point x="507" y="855"/>
      <point x="492" y="846"/>
      <point x="471" y="846" type="curve" smooth="yes"/>
      <point x="427" y="846"/>
      <point x="393" y="883"/>
      <point x="345" y="883" type="curve" smooth="yes"/>
      <point x="275" y="883"/>
      <point x="232" y="814"/>
      <point x="232" y="761" type="curve"/>
    </contour>
  </outline>
</glyph>
<glyph name="Odieresis" format="1">
  <advance width="638"/>
  <unicode hex="00D6"/>
  <outline>
    <contour>
      <point x="45" y="250" type="curve" smooth="yes"/>
      <point x="45" y="72"/>
      <point x="139" y="-12"/>
      <point x="299" y="-12" type="curve" smooth="yes"/>
      <point x="536" y="-12"/>
      <point x="623" y="234"/>
      <point x="623" y="435" type="curve" smooth="yes"/>
      <point x="623" y="614"/>
      <point x="528" y="698"/>
      <point x="368" y="698" type="curve" smooth="yes"/>
      <point x="130" y="698"/>
      <point x="45" y="451"/>
    </contour>
    <contour>
      <point x="174" y="255" type="curve" smooth="yes"/>
      <point x="174" y="383"/>
      <point x="211" y="588"/>
      <point x="373" y="588" type="curve" smooth="yes"/>
      <point x="454" y="588"/>
      <point x="493" y="530"/>
      <point x="493" y="430" type="curve" smooth="yes"/>
      <point x="493" y="303"/>
      <point x="455" y="98"/>
      <point x="294" y="98" type="curve" smooth="yes"/>
      <point x="212" y="98"/>
      <point x="174" y="156"/>
    </contour>
    <contour>
      <point x="449" y="883" type="line"/>
      <point x="434" y="774" type="line"/>
      <point x="534" y="774" type="line"/>
      <point x="549" y="883" type="line"/>
    </contour>
    <contour>
      <point x="274" y="883" type="line"/>
      <point x="260" y="774" type="line"/>
      <point x="359" y="774" type="line"/>
      <point x="374" y="883" type="line"/>
    </contour>
  </outline>
</glyph>
<glyph name="multiply" format="1">
  <advance width="479"/>
  <unicode hex="00D7"/>
  <outline>
    <contour>
      <point x="6" y="111" type="line"/>
      <point x="68" y="39" type="line"/>
      <point x="233" y="185" type="line"/>
      <point x="359" y="39" type="line"/>
      <point x="441" y="111" type="line"/>
      <point x="315" y="256" type="line"/>
      <point x="482" y="402" type="line"/>
      <point x="420" y="474" type="line"/>
      <point x="254" y="328" type="line"/>
      <point x="129" y="474" type="line"/>
      <point x="47" y="402" type="line"/>
      <point x="172" y="256" type="line"/>
    </contour>
  </outline>
</glyph>
<glyph name="Yacute" format="1">
  <advance width="547"/>
  <unicode hex="00DD"/>
  <outline>
    <contour>
      <point x="215" y="259" type="line"/>
      <point x="179" y="0" type="line"/>
      <point x="305" y="0" type="line"/>
      <point x="342" y="259" type="line"/>
      <point x="608" y="686" type="line"/>
      <point x="479" y="686" type="line"/>
      <point x="300" y="385" type="line"/>
      <point x="296" y="385" type="line"/>
      <point x="197" y="686" type="line"/>
      <point x="67" y="686" type="line"/>
    </contour>
    <contour>
      <point x="372" y="883" type="line"/>
      <point x="286" y="751" type="line"/>
      <point x="385" y="751" type="line"/>
      <point x="493" y="880" type="line"/>
      <point x="492" y="883" type="line"/>
    </contour>
  </outline>
</glyph>
<glyph name="Thorn" format="1">
  <advance width="547"/>
  <unicode hex="00DE"/>
  <outline>
    <contour>
      <point x="28" y="0" type="line"/>
      <point x="155" y="0" type="line"/>
      <point x="175" y="142" type="line"/>
      <point x="306" y="142" type="line" smooth="yes"/>
      <point x="435" y="142"/>
      <point x="535" y="239"/>
      <point x="535" y="385" type="curve" smooth="yes"/>
      <point x="535" y="488"/>
      <point x="473" y="562"/>
      <point x="344" y="562" type="curve" smooth="yes"/>
      <point x="234" y="562" type="line"/>
      <point x="251" y="686" type="line"/>
      <point x="124" y="686" type="line"/>
    </contour>
    <contour>
      <point x="321" y="448" type="line"/>
      <point x="374" y="448"/>
      <point x="404" y="415"/>
      <point x="404" y="365" type="curve" smooth="yes"/>
      <point x="404" y="296"/>
      <point x="360" y="255"/>
      <point x="299" y="255" type="curve" smooth="yes"/>
      <point x="191" y="255" type="line"/>
      <point x="218" y="448" type="line"/>
    </contour>
  </outline>
</glyph>
<glyph name="germandbls" format="1">
  <advance width="501"/>
  <unicode hex="00DF"/>
  <outline>
    <contour>
      <point x="17" y="0" type="line"/>
      <point x="134" y="0" type="line"/>
      <point x="208" y="528" type="line" smooth="yes"/>
      <point x="217" y="596"/>
      <point x="257" y="634"/>
      <point x="311" y="634" type="curve" smooth="yes"/>
      <point x="357" y="634"/>
      <point x="380" y="604"/>
      <point x="380" y="560" type="curve" smooth="yes"/>
      <point x="380" y="495"/>
      <point x="334" y="437"/>
      <point x="291" y="437" type="curve" smooth="yes"/>
      <point x="242" y="437" type="line"/>
      <point x="226" y="324" type="line"/>
      <point x="278" y="324" type="line" smooth="yes"/>
      <point x="323" y="324"/>
      <point x="355" y="282"/>
      <point x="355" y="228" type="curve" smooth="yes"/>
      <point x="355" y="162"/>
      <point x="302" y="102"/>
      <point x="247" y="102" type="curve" smooth="yes"/>
      <point x="196" y="102" type="line"/>
      <point x="182" y="0" type="line"/>
      <point x="256" y="0" type="line" smooth="yes"/>
      <point x="382" y="0"/>
      <point x="476" y="117"/>
      <point x="476" y="230" type="curve" smooth="yes"/>
      <point x="476" y="303"/>
      <point x="440" y="368"/>
      <point x="384" y="391" type="curve"/>
      <point x="384" y="395" type="line"/>
      <point x="453" y="420"/>
      <point x="502" y="496"/>
      <point x="502" y="569" type="curve" smooth="yes"/>
      <point x="502" y="674"/>
      <point x="428" y="735"/>
      <point x="319" y="735" type="curve" smooth="yes"/>
      <point x="206" y="735"/>
      <point x="109" y="673"/>
      <point x="88" y="520" type="curve" smooth="yes"/>
    </contour>
  </outline>
</glyph>
<glyph name="adieresis" format="1">
  <advance width="456"/>
  <unicode hex="00E4"/>
  <outline>
    <contour>
      <point x="320" y="723" type="line"/>
      <point x="305" y="614" type="line"/>
      <point x="405" y="614" type="line"/>
      <point x="420" y="723" type="line"/>
    </contour>
    <contour>
      <point x="145" y="723" type="line"/>
      <point x="131" y="614" type="line"/>
      <point x="230" y="614" type="line"/>
      <point x="245" y="723" type="line"/>
    </contour>
    <contour>
      <point x="221" y="538" type="curve" smooth="yes"/>
      <point x="122" y="538"/>
      <point x="22" y="428"/>
      <point x="22" y="174" type="curve" smooth="yes"/>
      <point x="22" y="50"/>
      <point x="75" y="-12"/>
      <point x="164" y="-12" type="curve" smooth="yes"/>
      <point x="200" y="-12"/>
      <point x="244" y="9"/>
      <point x="270" y="58" type="curve"/>
      <point x="280" y="14"/>
      <point x="309" y="-12"/>
      <point x="353" y="-12" type="curve" smooth="yes"/>
      <point x="381" y="-12"/>
      <point x="400" y="-3"/>
      <point x="412" y="4" type="curve"/>
      <point x="424" y="89" type="line"/>
      <point x="406" y="89" type="line" smooth="yes"/>
      <point x="392" y="89"/>
      <point x="382" y="97"/>
      <point x="382" y="117" type="curve" smooth="yes"/>
      <point x="382" y="128"/>
      <point x="444" y="526"/>
      <point x="444" y="526" type="curve"/>
      <point x="351" y="526" type="line"/>
      <point x="331" y="463" type="line"/>
      <point x="312" y="510"/>
      <point x="276" y="538"/>
    </contour>
    <contour>
      <point x="195" y="91" type="curve" smooth="yes"/>
      <point x="157" y="91"/>
      <point x="141" y="126"/>
      <point x="141" y="190" type="curve" smooth="yes"/>
      <point x="141" y="248"/>
      <point x="161" y="435"/>
      <point x="244" y="435" type="curve" smooth="yes"/>
      <point x="285" y="435"/>
      <point x="297" y="399"/>
      <point x="297" y="338" type="curve" smooth="yes"/>
      <point x="297" y="263"/>
      <point x="279" y="91"/>
    </contour>
  </outline>
</glyph>
<glyph name="aring" format="1">
  <advance width="456"/>
  <unicode hex="00E5"/>
  <outline>
    <contour>
      <point x="273" y="561" type="curve" smooth="yes"/>
      <point x="326" y="561"/>
      <point x="369" y="604"/>
      <point x="369" y="657" type="curve" smooth="yes"/>
      <point x="369" y="709"/>
      <point x="327" y="753"/>
      <point x="273" y="753" type="curve" smooth="yes"/>
      <point x="220" y="753"/>
      <point x="177" y="710"/>
      <point x="177" y="657" type="curve" smooth="yes"/>
      <point x="177" y="603"/>
      <point x="221" y="561"/>
    </contour>
    <contour>
      <point x="273" y="611" type="curve" smooth="yes"/>
      <point x="247" y="611"/>
      <point x="227" y="631"/>
      <point x="227" y="657" type="curve" smooth="yes"/>
      <point x="227" y="683"/>
      <point x="247" y="703"/>
      <point x="273" y="703" type="curve" smooth="yes"/>
      <point x="298" y="703"/>
      <point x="319" y="683"/>
      <point x="319" y="657" type="curve" smooth="yes"/>
      <point x="319" y="631"/>
      <point x="298" y="611"/>
    </contour>
    <contour>
      <point x="221" y="538" type="curve" smooth="yes"/>
      <point x="122" y="538"/>
      <point x="22" y="428"/>
      <point x="22" y="174" type="curve" smooth="yes"/>
      <point x="22" y="50"/>
      <point x="75" y="-12"/>
      <point x="164" y="-12" type="curve" smooth="yes"/>
      <point x="200" y="-12"/>
      <point x="244" y="9"/>
      <point x="270" y="58" type="curve"/>
      <point x="280" y="14"/>
      <point x="309" y="-12"/>
      <point x="353" y="-12" type="curve" smooth="yes"/>
      <point x="381" y="-12"/>
      <point x="400" y="-3"/>
      <point x="412" y="4" type="curve"/>
      <point x="424" y="89" type="line"/>
      <point x="406" y="89" type="line" smooth="yes"/>
      <point x="392" y="89"/>
      <point x="382" y="97"/>
      <point x="382" y="117" type="curve" smooth="yes"/>
      <point x="382" y="128"/>
      <point x="444" y="526"/>
      <point x="444" y="526" type="curve"/>
      <point x="351" y="526" type="line"/>
      <point x="331" y="463" type="line"/>
      <point x="312" y="510"/>
      <point x="276" y="538"/>
    </contour>
    <contour>
      <point x="195" y="91" type="curve" smooth="yes"/>
      <point x="157" y="91"/>
      <point x="141" y="126"/>
      <point x="141" y="190" type="curve" smooth="yes"/>
      <point x="141" y="248"/>
      <point x="161" y="435"/>
      <point x="244" y="435" type="curve" smooth="yes"/>
      <point x="285" y="435"/>
      <point x="297" y="399"/>
      <point x="297" y="338" type="curve" smooth="yes"/>
      <point x="297" y="263"/>
      <point x="279" y="91"/>
    </contour>
  </outline>
</glyph>
<glyph name="ccedilla" format="1">
  <advance width="456"/>
  <unicode hex="00E7"/>
  <outline>
    <contour>
      <point x="36" y="172" type="curve" smooth="yes"/>
      <point x="36" y="65"/>
      <point x="77" y="6"/>
      <point x="158" y="-8" type="curve"/>
      <point x="141" y="-77" type="line"/>
      <point x="173" y="-77" type="line" smooth="yes"/>
      <point x="195" y="-77"/>
      <point x="205" y="-83"/>
      <point x="205" y="-95" type="curve" smooth="yes"/>
      <point x="205" y="-119"/>
      <point x="188" y="-125"/>
      <point x="165" y="-125" type="curve" smooth="yes"/>
      <point x="93" y="-125" type="line"/>
      <point x="86" y="-174" type="line"/>
      <point x="109" y="-179"/>
      <point x="142" y="-182"/>
      <point x="169" y="-182" type="curve" smooth="yes"/>
      <point x="225" y="-182"/>
      <point x="291" y="-166"/>
      <point x="291" y="-90" type="curve" smooth="yes"/>
      <point x="291" y="-52"/>
      <point x="258" y="-36"/>
      <point x="221" y="-33" type="curve"/>
      <point x="226" y="-11" type="line"/>
      <point x="342" y="0"/>
      <point x="390" y="90"/>
      <point x="413" y="195" type="curve"/>
      <point x="294" y="195" type="line"/>
      <point x="282" y="138"/>
      <point x="255" y="89"/>
      <point x="212" y="89" type="curve" smooth="yes"/>
      <point x="169" y="89"/>
      <point x="158" y="124"/>
      <point x="158" y="191" type="curve" smooth="yes"/>
      <point x="158" y="228"/>
      <point x="174" y="437"/>
      <point x="260" y="437" type="curve" smooth="yes"/>
      <point x="299" y="437"/>
      <point x="310" y="404"/>
      <point x="310" y="343" type="curve" smooth="yes"/>
      <point x="310" y="328" type="line"/>
      <point x="432" y="328" type="line"/>
      <point x="432" y="343" type="line" smooth="yes"/>
      <point x="432" y="474"/>
      <point x="384" y="538"/>
      <point x="269" y="538" type="curve" smooth="yes"/>
      <point x="76" y="538"/>
      <point x="36" y="337"/>
    </contour>
  </outline>
</glyph>
<glyph name="edieresis" format="1">
  <advance width="456"/>
  <unicode hex="00EB"/>
  <outline>
    <contour>
      <point x="33" y="172" type="curve" smooth="yes"/>
      <point x="33" y="47"/>
      <point x="89" y="-12"/>
      <point x="203" y="-12" type="curve" smooth="yes"/>
      <point x="327" y="-12"/>
      <point x="383" y="77"/>
      <point x="407" y="182" type="curve"/>
      <point x="284" y="182" type="line"/>
      <point x="273" y="130"/>
      <point x="248" y="85"/>
      <point x="208" y="85" type="curve" smooth="yes"/>
      <point x="168" y="85"/>
      <point x="153" y="119"/>
      <point x="153" y="187" type="curve" smooth="yes"/>
      <point x="153" y="194"/>
      <point x="153" y="212"/>
      <point x="155" y="233" type="curve"/>
      <point x="418" y="233" type="line"/>
      <point x="426" y="275"/>
      <point x="429" y="320"/>
      <point x="429" y="359" type="curve" smooth="yes"/>
      <point x="429" y="479"/>
      <point x="374" y="538"/>
      <point x="266" y="538" type="curve" smooth="yes"/>
      <point x="78" y="538"/>
      <point x="33" y="345"/>
    </contour>
    <contour>
      <point x="168" y="320" type="line"/>
      <point x="182" y="382"/>
      <point x="209" y="441"/>
      <point x="259" y="441" type="curve" smooth="yes"/>
      <point x="295" y="441"/>
      <point x="308" y="412"/>
      <point x="308" y="359" type="curve" smooth="yes"/>
      <point x="308" y="354"/>
      <point x="308" y="349"/>
      <point x="306" y="320" type="curve"/>
    </contour>
    <contour>
      <point x="331" y="723" type="line"/>
      <point x="316" y="614" type="line"/>
      <point x="416" y="614" type="line"/>
      <point x="431" y="723" type="line"/>
    </contour>
    <contour>
      <point x="156" y="723" type="line"/>
      <point x="142" y="614" type="line"/>
      <point x="241" y="614" type="line"/>
      <point x="256" y="723" type="line"/>
    </contour>
  </outline>
</glyph>
<glyph name="igrave" format="1">
  <advance width="228"/>
  <unicode hex="00EC"/>
  <outline>
    <contour>
      <point x="96" y="526" type="line"/>
      <point x="23" y="0" type="line"/>
      <point x="142" y="0" type="line"/>
      <point x="215" y="526" type="line"/>
    </contour>
    <contour>
      <point x="44" y="720" type="line"/>
      <point x="134" y="591" type="line"/>
      <point x="233" y="591" type="line"/>
      <point x="166" y="723" type="line"/>
      <point x="46" y="723" type="line"/>
    </contour>
  </outline>
</glyph>
<glyph name="iacute" format="1">
  <advance width="228"/>
  <unicode hex="00ED"/>
  <outline>
    <contour>
      <point x="96" y="526" type="line"/>
      <point x="23" y="0" type="line"/>
      <point x="142" y="0" type="line"/>
      <point x="215" y="526" type="line"/>
    </contour>
    <contour>
      <point x="187" y="723" type="line"/>
      <point x="101" y="591" type="line"/>
      <point x="200" y="591" type="line"/>
      <point x="308" y="720" type="line"/>
      <point x="307" y="723" type="line"/>
    </contour>
  </outline>
</glyph>
<glyph name="icircumflex" format="1">
  <advance width="228"/>
  <unicode hex="00EE"/>
  <outline>
    <contour>
      <point x="96" y="526" type="line"/>
      <point x="23" y="0" type="line"/>
      <point x="142" y="0" type="line"/>
      <point x="215" y="526" type="line"/>
    </contour>
    <contour>
      <point x="133" y="723" type="line"/>
      <point x="29" y="588" type="line"/>
      <point x="122" y="588" type="line"/>
      <point x="173" y="657" type="line"/>
      <point x="207" y="588" type="line"/>
      <point x="297" y="588" type="line"/>
      <point x="231" y="723" type="line"/>
    </contour>
  </outline>
</glyph>
<glyph name="idieresis" format="1">
  <advance width="228"/>
  <unicode hex="00EF"/>
  <outline>
    <contour>
      <point x="96" y="526" type="line"/>
      <point x="23" y="0" type="line"/>
      <point x="142" y="0" type="line"/>
      <point x="215" y="526" type="line"/>
    </contour>
    <contour>
      <point x="220" y="723" type="line"/>
      <point x="205" y="614" type="line"/>
      <point x="305" y="614" type="line"/>
      <point x="320" y="723" type="line"/>
    </contour>
    <contour>
      <point x="45" y="723" type="line"/>
      <point x="31" y="614" type="line"/>
      <point x="130" y="614" type="line"/>
      <point x="145" y="723" type="line"/>
    </contour>
  </outline>
</glyph>
<glyph name="eth" format="1">
  <advance width="501"/>
  <unicode hex="00F0"/>
  <outline>
    <contour>
      <point x="33" y="182" type="curve" smooth="yes"/>
      <point x="33" y="49"/>
      <point x="96" y="-12"/>
      <point x="219" y="-12" type="curve" smooth="yes"/>
      <point x="369" y="-12"/>
      <point x="463" y="106"/>
      <point x="463" y="367" type="curve" smooth="yes"/>
      <point x="463" y="471"/>
      <point x="437" y="549"/>
      <point x="406" y="607" type="curve"/>
      <point x="482" y="614" type="line"/>
      <point x="492" y="687" type="line"/>
      <point x="361" y="675" type="line"/>
      <point x="345" y="695"/>
      <point x="330" y="711"/>
      <point x="318" y="723" type="curve"/>
      <point x="194" y="723" type="line"/>
      <point x="192" y="719" type="line"/>
      <point x="203" y="706"/>
      <point x="219" y="687"/>
      <point x="236" y="664" type="curve"/>
      <point x="161" y="657" type="line"/>
      <point x="151" y="584" type="line"/>
      <point x="280" y="595" type="line"/>
      <point x="291" y="575"/>
      <point x="302" y="553"/>
      <point x="309" y="534" type="curve"/>
      <point x="305" y="530" type="line"/>
      <point x="291" y="535"/>
      <point x="270" y="538"/>
      <point x="253" y="538" type="curve" smooth="yes"/>
      <point x="136" y="538"/>
      <point x="33" y="415"/>
    </contour>
    <contour>
      <point x="223" y="89" type="curve" smooth="yes"/>
      <point x="176" y="89"/>
      <point x="156" y="121"/>
      <point x="156" y="183" type="curve" smooth="yes"/>
      <point x="156" y="221"/>
      <point x="162" y="437"/>
      <point x="272" y="437" type="curve" smooth="yes"/>
      <point x="319" y="437"/>
      <point x="339" y="404"/>
      <point x="339" y="343" type="curve" smooth="yes"/>
      <point x="339" y="305"/>
      <point x="333" y="89"/>
    </contour>
  </outline>
</glyph>
<glyph name="ntilde" format="1">
  <advance width="501"/>
  <unicode hex="00F1"/>
  <outline>
    <contour>
      <point x="96" y="526" type="line"/>
      <point x="23" y="0" type="line"/>
      <point x="142" y="0" type="line"/>
      <point x="185" y="316" type="line" smooth="yes"/>
      <point x="195" y="389"/>
      <point x="237" y="429"/>
      <point x="283" y="429" type="curve" smooth="yes"/>
      <point x="324" y="429"/>
      <point x="341" y="409"/>
      <point x="341" y="363" type="curve" smooth="yes"/>
      <point x="341" y="355"/>
      <point x="339" y="346"/>
      <point x="292" y="0" type="curve"/>
      <point x="410" y="0" type="line"/>
      <point x="460" y="372"/>
      <point x="463" y="376"/>
      <point x="463" y="403" type="curve" smooth="yes"/>
      <point x="463" y="487"/>
      <point x="420" y="538"/>
      <point x="336" y="538" type="curve" smooth="yes"/>
      <point x="268" y="538"/>
      <point x="224" y="502"/>
      <point x="193" y="456" type="curve"/>
      <point x="193" y="526" type="line"/>
    </contour>
    <contour>
      <point x="205" y="601" type="line"/>
      <point x="213" y="628"/>
      <point x="228" y="638"/>
      <point x="249" y="638" type="curve" smooth="yes"/>
      <point x="293" y="638"/>
      <point x="327" y="601"/>
      <point x="374" y="601" type="curve" smooth="yes"/>
      <point x="445" y="601"/>
      <point x="489" y="668"/>
      <point x="489" y="723" type="curve"/>
      <point x="424" y="723" type="line"/>
      <point x="416" y="695"/>
      <point x="401" y="686"/>
      <point x="380" y="686" type="curve" smooth="yes"/>
      <point x="336" y="686"/>
      <point x="302" y="723"/>
      <point x="254" y="723" type="curve" smooth="yes"/>
      <point x="184" y="723"/>
      <point x="141" y="654"/>
      <point x="141" y="601" type="curve"/>
    </contour>
  </outline>
</glyph>
<glyph name="ograve" format="1">
  <advance width="501"/>
  <unicode hex="00F2"/>
  <outline>
    <contour>
      <point x="36" y="180" type="curve" smooth="yes"/>
      <point x="36" y="49"/>
      <point x="100" y="-12"/>
      <point x="222" y="-12" type="curve" smooth="yes"/>
      <point x="421" y="-12"/>
      <point x="465" y="188"/>
      <point x="465" y="343" type="curve" smooth="yes"/>
      <point x="465" y="474"/>
      <point x="401" y="538"/>
      <point x="279" y="538" type="curve" smooth="yes"/>
      <point x="80" y="538"/>
      <point x="36" y="335"/>
    </contour>
    <contour>
      <point x="159" y="183" type="curve" smooth="yes"/>
      <point x="159" y="221"/>
      <point x="165" y="437"/>
      <point x="275" y="437" type="curve" smooth="yes"/>
      <point x="322" y="437"/>
      <point x="342" y="404"/>
      <point x="342" y="343" type="curve" smooth="yes"/>
      <point x="342" y="305"/>
      <point x="336" y="89"/>
      <point x="226" y="89" type="curve"/>
      <point x="179" y="89"/>
      <point x="159" y="121"/>
    </contour>
    <contour>
      <point x="176" y="720" type="line"/>
      <point x="266" y="591" type="line"/>
      <point x="365" y="591" type="line"/>
      <point x="298" y="723" type="line"/>
      <point x="178" y="723" type="line"/>
    </contour>
  </outline>
</glyph>
<glyph name="otilde" format="1">
  <advance width="501"/>
  <unicode hex="00F5"/>
  <outline>
    <contour>
      <point x="36" y="180" type="curve" smooth="yes"/>
      <point x="36" y="49"/>
      <point x="100" y="-12"/>
      <point x="222" y="-12" type="curve" smooth="yes"/>
      <point x="421" y="-12"/>
      <point x="465" y="188"/>
      <point x="465" y="343" type="curve" smooth="yes"/>
      <point x="465" y="474"/>
      <point x="401" y="538"/>
      <point x="279" y="538" type="curve" smooth="yes"/>
      <point x="80" y="538"/>
      <point x="36" y="335"/>
    </contour>
    <contour>
      <point x="159" y="183" type="curve" smooth="yes"/>
      <point x="159" y="221"/>
      <point x="165" y="437"/>
      <point x="275" y="437" type="curve" smooth="yes"/>
      <point x="322" y="437"/>
      <point x="342" y="404"/>
      <point x="342" y="343" type="curve" smooth="yes"/>
      <point x="342" y="305"/>
      <point x="336" y="89"/>
      <point x="226" y="89" type="curve"/>
      <point x="179" y="89"/>
      <point x="159" y="121"/>
    </contour>
    <contour>
      <point x="200" y="601" type="line"/>
      <point x="208" y="628"/>
      <point x="223" y="638"/>
      <point x="244" y="638" type="curve" smooth="yes"/>
      <point x="288" y="638"/>
      <point x="322" y="601"/>
      <point x="369" y="601" type="curve" smooth="yes"/>
      <point x="440" y="601"/>
      <point x="484" y="668"/>
      <point x="484" y="723" type="curve"/>
      <point x="419" y="723" type="line"/>
      <point x="411" y="695"/>
      <point x="396" y="686"/>
      <point x="375" y="686" type="curve" smooth="yes"/>
      <point x="331" y="686"/>
      <point x="297" y="723"/>
      <point x="249" y="723" type="curve" smooth="yes"/>
      <point x="179" y="723"/>
      <point x="136" y="654"/>
      <point x="136" y="601" type="curve"/>
    </contour>
  </outline>
</glyph>
<glyph name="divide" format="1">
  <advance width="549"/>
  <unicode hex="00F7"/>
  <outline>
    <contour>
      <point x="252" y="470" type="line"/>
      <point x="236" y="359" type="line"/>
      <point x="340" y="359" type="line"/>
      <point x="356" y="470" type="line"/>
    </contour>
    <contour>
      <point x="40" y="307" type="line"/>
      <point x="25" y="203" type="line"/>
      <point x="507" y="203" type="line"/>
      <point x="522" y="307" type="line"/>
    </contour>
    <contour>
      <point x="207" y="151" type="line"/>
      <point x="191" y="41" type="line"/>
      <point x="295" y="41" type="line"/>
      <point x="311" y="151" type="line"/>
    </contour>
  </outline>
</glyph>
<glyph name="uacute" format="1">
  <advance width="501"/>
  <unicode hex="00FA"/>
  <outline>
    <contour>
      <point x="38" y="123" type="curve" smooth="yes"/>
      <point x="38" y="39"/>
      <point x="81" y="-12"/>
      <point x="165" y="-12" type="curve" smooth="yes"/>
      <point x="231" y="-12"/>
      <point x="275" y="23"/>
      <point x="307" y="68" type="curve"/>
      <point x="307" y="0" type="line"/>
      <point x="405" y="0" type="line"/>
      <point x="478" y="526" type="line"/>
      <point x="359" y="526" type="line"/>
      <point x="316" y="210" type="line" smooth="yes"/>
      <point x="306" y="137"/>
      <point x="264" y="97"/>
      <point x="218" y="97" type="curve" smooth="yes"/>
      <point x="177" y="97"/>
      <point x="160" y="117"/>
      <point x="160" y="163" type="curve" smooth="yes"/>
      <point x="160" y="171"/>
      <point x="162" y="180"/>
      <point x="209" y="526" type="curve"/>
      <point x="91" y="526" type="line"/>
      <point x="41" y="154"/>
      <point x="38" y="150"/>
    </contour>
    <contour>
      <point x="316" y="723" type="line"/>
      <point x="230" y="591" type="line"/>
      <point x="329" y="591" type="line"/>
      <point x="437" y="720" type="line"/>
      <point x="436" y="723" type="line"/>
    </contour>
  </outline>
</glyph>
<glyph name="yacute" format="1">
  <advance width="456"/>
  <unicode hex="00FD"/>
  <outline>
    <contour>
      <point x="4" y="-81" type="line"/>
      <point x="-7" y="-173" type="line"/>
      <point x="-7" y="-174"/>
      <point x="20" y="-182"/>
      <point x="68" y="-182" type="curve" smooth="yes"/>
      <point x="168" y="-182"/>
      <point x="232" y="-87"/>
      <point x="281" y="27" type="curve" smooth="yes"/>
      <point x="492" y="526" type="line"/>
      <point x="374" y="526" type="line"/>
      <point x="275" y="278" type="line" smooth="yes"/>
      <point x="257" y="233"/>
      <point x="231" y="142"/>
      <point x="231" y="142" type="curve"/>
      <point x="227" y="142" type="line"/>
      <point x="227" y="142"/>
      <point x="220" y="239"/>
      <point x="213" y="279" type="curve" smooth="yes"/>
      <point x="169" y="526" type="line"/>
      <point x="49" y="526" type="line"/>
      <point x="149" y="0" type="line"/>
      <point x="127" y="-58"/>
      <point x="92" y="-81"/>
      <point x="58" y="-81" type="curve" smooth="yes"/>
    </contour>
    <contour>
      <point x="305" y="723" type="line"/>
      <point x="219" y="591" type="line"/>
      <point x="318" y="591" type="line"/>
      <point x="426" y="720" type="line"/>
      <point x="425" y="723" type="line"/>
    </contour>
  </outline>
</glyph>
<glyph name="thorn" format="1">
  <advance width="501"/>
  <unicode hex="00FE"/>
  <outline>
    <contour>
      <point x="118" y="-172" type="line"/>
      <point x="150" y="57" type="line"/>
      <point x="171" y="13"/>
      <point x="206" y="-12"/>
      <point x="262" y="-12" type="curve" smooth="yes"/>
      <point x="365" y="-12"/>
      <point x="468" y="98"/>
      <point x="468" y="352" type="curve" smooth="yes"/>
      <point x="468" y="475"/>
      <point x="415" y="538"/>
      <point x="325" y="538" type="curve" smooth="yes"/>
      <point x="282" y="538"/>
      <point x="241" y="518"/>
      <point x="207" y="471" type="curve"/>
      <point x="242" y="723" type="line"/>
      <point x="123" y="723" type="line"/>
      <point x="0" y="-172" type="line"/>
    </contour>
    <contour>
      <point x="172" y="188" type="curve" smooth="yes"/>
      <point x="172" y="262"/>
      <point x="190" y="429"/>
      <point x="284" y="429" type="curve" smooth="yes"/>
      <point x="330" y="429"/>
      <point x="347" y="398"/>
      <point x="347" y="340" type="curve" smooth="yes"/>
      <point x="347" y="269"/>
      <point x="333" y="97"/>
      <point x="237" y="97" type="curve" smooth="yes"/>
      <point x="190" y="97"/>
      <point x="172" y="130"/>
    </contour>
  </outline>
</glyph>
<glyph name="ydieresis" format="1">
  <advance width="456"/>
  <unicode hex="00FF"/>
  <outline>
    <contour>
      <point x="4" y="-81" type="line"/>
      <point x="-7" y="-173" type="line"/>
      <point x="-7" y="-174"/>
      <point x="20" y="-182"/>
      <point x="68" y="-182" type="curve" smooth="yes"/>
      <point x="168" y="-182"/>
      <point x="232" y="-87"/>
      <point x="281" y="27" type="curve" smooth="yes"/>
      <point x="492" y="526" type="line"/>
      <point x="374" y="526" type="line"/>
      <point x="275" y="278" type="line" smooth="yes"/>
      <point x="257" y="233"/>
      <point x="231" y="142"/>
      <point x="231" y="142" type="curve"/>
      <point x="227" y="142" type="line"/>
      <point x="227" y="142"/>
      <point x="220" y="239"/>
      <point x="213" y="279" type="curve" smooth="yes"/>
      <point x="169" y="526" type="line"/>
      <point x="49" y="526" type="line"/>
      <point x="149" y="0" type="line"/>
      <point x="127" y="-58"/>
      <point x="92" y="-81"/>
      <point x="58" y="-81" type="curve" smooth="yes"/>
    </contour>
    <contour>
      <point x="338" y="723" type="line"/>
      <point x="323" y="614" type="line"/>
      <point x="423" y="614" type="line"/>
      <point x="438" y="723" type="line"/>
    </contour>
    <contour>
      <point x="163" y="723" type="line"/>
      <point x="149" y="614" type="line"/>
      <point x="248" y="614" type="line"/>
      <point x="263" y="723" type="line"/>
    </contour>
  </outline>
</glyph>
<glyph name="Abreve" format="1">
  <advance width="592"/>
  <unicode hex="0102"/>
  <outline>
    <contour>
      <point x="288" y="686" type="line"/>
      <point x="-26" y="0" type="line"/>
      <point x="102" y="0" type="line"/>
      <point x="161" y="135" type="line"/>
      <point x="406" y="135" type="line"/>
      <point x="428" y="0" type="line"/>
      <point x="558" y="0" type="line"/>
      <point x="435" y="686" type="line"/>
    </contour>
    <contour>
      <point x="387" y="249" type="line"/>
      <point x="212" y="249" type="line"/>
      <point x="295" y="437" type="line" smooth="yes"/>
      <point x="317" y="486"/>
      <point x="341" y="570"/>
      <point x="341" y="570" type="curve"/>
      <point x="345" y="570" type="line"/>
      <point x="345" y="570"/>
      <point x="349" y="489"/>
      <point x="357" y="437" type="curve" smooth="yes"/>
    </contour>
    <contour>
      <point x="377" y="776" type="curve" smooth="yes"/>
      <point x="457" y="776"/>
      <point x="514" y="833"/>
      <point x="521" y="883" type="curve"/>
      <point x="447" y="883" type="line"/>
      <point x="443" y="869"/>
      <point x="416" y="850"/>
      <point x="382" y="850" type="curve" smooth="yes"/>
      <point x="349" y="850"/>
      <point x="329" y="869"/>
      <point x="328" y="883" type="curve"/>
      <point x="254" y="883" type="line"/>
      <point x="253" y="879"/>
      <point x="253" y="876"/>
      <point x="253" y="872" type="curve" smooth="yes"/>
      <point x="253" y="825"/>
      <point x="298" y="776"/>
    </contour>
  </outline>
</glyph>
<glyph name="Aogonek" format="1">
  <advance width="592"/>
  <unicode hex="0104"/>
  <outline>
    <contour>
      <point x="415" y="-113" type="curve" smooth="yes"/>
      <point x="415" y="-172"/>
      <point x="460" y="-190"/>
      <point x="502" y="-190" type="curve" smooth="yes"/>
      <point x="524" y="-190"/>
      <point x="546" y="-185"/>
      <point x="570" y="-176" type="curve"/>
      <point x="578" y="-121" type="line"/>
      <point x="556" y="-121" type="line" smooth="yes"/>
      <point x="528" y="-121"/>
      <point x="517" y="-103"/>
      <point x="517" y="-81" type="curve" smooth="yes"/>
      <point x="517" y="-49"/>
      <point x="542" y="-16"/>
      <point x="558" y="0" type="curve"/>
      <point x="435" y="686" type="line"/>
      <point x="288" y="686" type="line"/>
      <point x="-26" y="0" type="line"/>
      <point x="102" y="0" type="line"/>
      <point x="161" y="135" type="line"/>
      <point x="406" y="135" type="line"/>
      <point x="428" y="0" type="line"/>
      <point x="473" y="0" type="line"/>
      <point x="442" y="-26"/>
      <point x="415" y="-60"/>
    </contour>
    <contour>
      <point x="387" y="249" type="line"/>
      <point x="212" y="249" type="line"/>
      <point x="295" y="437" type="line" smooth="yes"/>
      <point x="317" y="486"/>
      <point x="341" y="570"/>
      <point x="341" y="570" type="curve"/>
      <point x="345" y="570" type="line"/>
      <point x="345" y="570"/>
      <point x="349" y="489"/>
      <point x="357" y="437" type="curve"/>
    </contour>
  </outline>
</glyph>
<glyph name="aogonek" format="1">
  <advance width="456"/>
  <unicode hex="0105"/>
  <outline>
    <contour>
      <point x="164" y="-12" type="curve" smooth="yes"/>
      <point x="200" y="-12"/>
      <point x="244" y="9"/>
      <point x="270" y="58" type="curve"/>
      <point x="277" y="27"/>
      <point x="293" y="5"/>
      <point x="317" y="-5" type="curve"/>
      <point x="291" y="-30"/>
      <point x="269" y="-62"/>
      <point x="269" y="-109" type="curve" smooth="yes"/>
      <point x="269" y="-168"/>
      <point x="314" y="-186"/>
      <point x="356" y="-186" type="curve" smooth="yes"/>
      <point x="378" y="-186"/>
      <point x="400" y="-181"/>
      <point x="424" y="-172" type="curve"/>
      <point x="432" y="-117" type="line"/>
      <point x="410" y="-117" type="line" smooth="yes"/>
      <point x="382" y="-117"/>
      <point x="371" y="-99"/>
      <point x="371" y="-77" type="curve" smooth="yes"/>
      <point x="371" y="-45"/>
      <point x="396" y="-12"/>
      <point x="412" y="4" type="curve"/>
      <point x="424" y="89" type="line"/>
      <point x="406" y="89" type="line" smooth="yes"/>
      <point x="392" y="89"/>
      <point x="382" y="97"/>
      <point x="382" y="117" type="curve" smooth="yes"/>
      <point x="382" y="128"/>
      <point x="444" y="526"/>
      <point x="444" y="526" type="curve"/>
      <point x="351" y="526" type="line"/>
      <point x="331" y="463" type="line"/>
      <point x="312" y="510"/>
      <point x="276" y="538"/>
      <point x="221" y="538" type="curve" smooth="yes"/>
      <point x="122" y="538"/>
      <point x="22" y="428"/>
      <point x="22" y="174" type="curve" smooth="yes"/>
      <point x="22" y="50"/>
      <point x="75" y="-12"/>
    </contour>
    <contour>
      <point x="195" y="91" type="curve" smooth="yes"/>
      <point x="157" y="91"/>
      <point x="141" y="126"/>
      <point x="141" y="190" type="curve" smooth="yes"/>
      <point x="141" y="248"/>
      <point x="161" y="435"/>
      <point x="244" y="435" type="curve" smooth="yes"/>
      <point x="285" y="435"/>
      <point x="297" y="399"/>
      <point x="297" y="338" type="curve" smooth="yes"/>
      <point x="297" y="263"/>
      <point x="279" y="91"/>
    </contour>
  </outline>
</glyph>
<glyph name="cacute" format="1">
  <advance width="456"/>
  <unicode hex="0107"/>
  <outline>
    <contour>
      <point x="36" y="172" type="curve" smooth="yes"/>
      <point x="36" y="47"/>
      <point x="92" y="-12"/>
      <point x="203" y="-12" type="curve" smooth="yes"/>
      <point x="336" y="-12"/>
      <point x="388" y="84"/>
      <point x="413" y="195" type="curve"/>
      <point x="294" y="195" type="line"/>
      <point x="282" y="138"/>
      <point x="255" y="89"/>
      <point x="212" y="89" type="curve" smooth="yes"/>
      <point x="169" y="89"/>
      <point x="158" y="124"/>
      <point x="158" y="191" type="curve" smooth="yes"/>
      <point x="158" y="228"/>
      <point x="174" y="437"/>
      <point x="260" y="437" type="curve" smooth="yes"/>
      <point x="299" y="437"/>
      <point x="310" y="404"/>
      <point x="310" y="343" type="curve" smooth="yes"/>
      <point x="310" y="328" type="line"/>
      <point x="432" y="328" type="line"/>
      <point x="432" y="343" type="line" smooth="yes"/>
      <point x="432" y="474"/>
      <point x="384" y="538"/>
      <point x="269" y="538" type="curve" smooth="yes"/>
      <point x="76" y="538"/>
      <point x="36" y="337"/>
    </contour>
    <contour>
      <point x="304" y="723" type="line"/>
      <point x="218" y="591" type="line"/>
      <point x="317" y="591" type="line"/>
      <point x="425" y="720" type="line"/>
      <point x="424" y="723" type="line"/>
    </contour>
  </outline>
</glyph>
<glyph name="ccaron" format="1">
  <advance width="456"/>
  <unicode hex="010D"/>
  <outline>
    <contour>
      <point x="36" y="172" type="curve" smooth="yes"/>
      <point x="36" y="47"/>
      <point x="92" y="-12"/>
      <point x="203" y="-12" type="curve" smooth="yes"/>
      <point x="336" y="-12"/>
      <point x="388" y="84"/>
      <point x="413" y="195" type="curve"/>
      <point x="294" y="195" type="line"/>
      <point x="282" y="138"/>
      <point x="255" y="89"/>
      <point x="212" y="89" type="curve" smooth="yes"/>
      <point x="169" y="89"/>
      <point x="158" y="124"/>
      <point x="158" y="191" type="curve" smooth="yes"/>
      <point x="158" y="228"/>
      <point x="174" y="437"/>
      <point x="260" y="437" type="curve" smooth="yes"/>
      <point x="299" y="437"/>
      <point x="310" y="404"/>
      <point x="310" y="343" type="curve" smooth="yes"/>
      <point x="310" y="328" type="line"/>
      <point x="432" y="328" type="line"/>
      <point x="432" y="343" type="line" smooth="yes"/>
      <point x="432" y="474"/>
      <point x="384" y="538"/>
      <point x="269" y="538" type="curve" smooth="yes"/>
      <point x="76" y="538"/>
      <point x="36" y="337"/>
    </contour>
    <contour>
      <point x="163" y="723" type="line"/>
      <point x="230" y="588" type="line"/>
      <point x="328" y="588" type="line"/>
      <point x="432" y="723" type="line"/>
      <point x="338" y="723" type="line"/>
      <point x="288" y="654" type="line"/>
      <point x="253" y="723" type="line"/>
    </contour>
  </outline>
</glyph>
<glyph name="Dcroat" format="1">
  <advance width="592"/>
  <unicode hex="0110"/>
  <outline>
    <contour>
      <point x="264" y="0" type="line" smooth="yes"/>
      <point x="491" y="0"/>
      <point x="576" y="240"/>
      <point x="576" y="426" type="curve" smooth="yes"/>
      <point x="576" y="599"/>
      <point x="487" y="686"/>
      <point x="335" y="686" type="curve" smooth="yes"/>
      <point x="124" y="686" type="line"/>
      <point x="83" y="397" type="line"/>
      <point x="34" y="397" type="line"/>
      <point x="23" y="312" type="line"/>
      <point x="71" y="312" type="line"/>
      <point x="28" y="0" type="line"/>
    </contour>
    <contour>
      <point x="317" y="572" type="line" smooth="yes"/>
      <point x="398" y="572"/>
      <point x="447" y="520"/>
      <point x="447" y="417" type="curve" smooth="yes"/>
      <point x="447" y="297"/>
      <point x="406" y="114"/>
      <point x="253" y="114" type="curve" smooth="yes"/>
      <point x="171" y="114" type="line"/>
      <point x="198" y="312" type="line"/>
      <point x="322" y="312" type="line"/>
      <point x="334" y="397" type="line"/>
      <point x="210" y="397" type="line"/>
      <point x="235" y="572" type="line"/>
    </contour>
  </outline>
</glyph>
<glyph name="dcroat" format="1">
  <advance width="501"/>
  <unicode hex="0111"/>
  <outline>
    <contour>
      <point x="36" y="174" type="curve" smooth="yes"/>
      <point x="36" y="51"/>
      <point x="89" y="-12"/>
      <point x="179" y="-12" type="curve" smooth="yes"/>
      <point x="228" y="-12"/>
      <point x="274" y="13"/>
      <point x="311" y="76" type="curve"/>
      <point x="311" y="0" type="line"/>
      <point x="408" y="0" type="line"/>
      <point x="488" y="583" type="line"/>
      <point x="546" y="583" type="line"/>
      <point x="558" y="670" type="line"/>
      <point x="500" y="670" type="line"/>
      <point x="508" y="723" type="line"/>
      <point x="390" y="723" type="line"/>
      <point x="382" y="670" type="line"/>
      <point x="251" y="670" type="line"/>
      <point x="239" y="583" type="line"/>
      <point x="370" y="583" type="line"/>
      <point x="353" y="469" type="line"/>
      <point x="333" y="513"/>
      <point x="297" y="538"/>
      <point x="242" y="538" type="curve" smooth="yes"/>
      <point x="139" y="538"/>
      <point x="36" y="428"/>
    </contour>
    <contour>
      <point x="220" y="97" type="curve" smooth="yes"/>
      <point x="174" y="97"/>
      <point x="157" y="128"/>
      <point x="157" y="186" type="curve" smooth="yes"/>
      <point x="157" y="257"/>
      <point x="172" y="429"/>
      <point x="271" y="429" type="curve" smooth="yes"/>
      <point x="315" y="429"/>
      <point x="332" y="396"/>
      <point x="332" y="338" type="curve" smooth="yes"/>
      <point x="332" y="264"/>
      <point x="314" y="97"/>
    </contour>
  </outline>
</glyph>
<glyph name="Emacron" format="1">
  <advance width="547"/>
  <unicode hex="0112"/>
  <outline>
    <contour>
      <point x="239" y="846" type="line"/>
      <point x="226" y="759" type="line"/>
      <point x="481" y="759" type="line"/>
      <point x="494" y="846" type="line"/>
    </contour>
    <contour>
      <point x="466" y="0" type="line"/>
      <point x="482" y="114" type="line"/>
      <point x="170" y="114" type="line"/>
      <point x="196" y="294" type="line"/>
      <point x="458" y="294" type="line"/>
      <point x="474" y="408" type="line"/>
      <point x="212" y="408" type="line"/>
      <point x="235" y="572" type="line"/>
      <point x="540" y="572" type="line"/>
      <point x="556" y="686" type="line"/>
      <point x="124" y="686" type="line"/>
      <point x="28" y="0" type="line"/>
    </contour>
  </outline>
</glyph>
<glyph name="Ebreve" format="1">
  <advance width="547"/>
  <unicode hex="0114"/>
  <outline>
    <contour>
      <point x="362" y="776" type="curve" smooth="yes"/>
      <point x="442" y="776"/>
      <point x="499" y="833"/>
      <point x="506" y="883" type="curve"/>
      <point x="432" y="883" type="line"/>
      <point x="428" y="869"/>
      <point x="401" y="850"/>
      <point x="367" y="850" type="curve" smooth="yes"/>
      <point x="334" y="850"/>
      <point x="314" y="869"/>
      <point x="313" y="883" type="curve"/>
      <point x="239" y="883" type="line"/>
      <point x="238" y="879"/>
      <point x="238" y="876"/>
      <point x="238" y="872" type="curve" smooth="yes"/>
      <point x="238" y="825"/>
      <point x="283" y="776"/>
    </contour>
    <contour>
      <point x="466" y="0" type="line"/>
      <point x="482" y="114" type="line"/>
      <point x="170" y="114" type="line"/>
      <point x="196" y="294" type="line"/>
      <point x="458" y="294" type="line"/>
      <point x="474" y="408" type="line"/>
      <point x="212" y="408" type="line"/>
      <point x="235" y="572" type="line"/>
      <point x="540" y="572" type="line"/>
      <point x="556" y="686" type="line"/>
      <point x="124" y="686" type="line"/>
      <point x="28" y="0" type="line"/>
    </contour>
  </outline>
</glyph>
<glyph name="ebreve" format="1">
  <advance width="456"/>
  <unicode hex="0115"/>
  <outline>
    <contour>
      <point x="33" y="172" type="curve" smooth="yes"/>
      <point x="33" y="47"/>
      <point x="89" y="-12"/>
      <point x="203" y="-12" type="curve" smooth="yes"/>
      <point x="327" y="-12"/>
      <point x="383" y="77"/>
      <point x="407" y="182" type="curve"/>
      <point x="284" y="182" type="line"/>
      <point x="273" y="130"/>
      <point x="248" y="85"/>
      <point x="208" y="85" type="curve" smooth="yes"/>
      <point x="168" y="85"/>
      <point x="153" y="119"/>
      <point x="153" y="187" type="curve" smooth="yes"/>
      <point x="153" y="194"/>
      <point x="153" y="212"/>
      <point x="155" y="233" type="curve"/>
      <point x="418" y="233" type="line"/>
      <point x="426" y="275"/>
      <point x="429" y="320"/>
      <point x="429" y="359" type="curve" smooth="yes"/>
      <point x="429" y="479"/>
      <point x="374" y="538"/>
      <point x="266" y="538" type="curve" smooth="yes"/>
      <point x="78" y="538"/>
      <point x="33" y="345"/>
    </contour>
    <contour>
      <point x="168" y="320" type="line"/>
      <point x="182" y="382"/>
      <point x="209" y="441"/>
      <point x="259" y="441" type="curve" smooth="yes"/>
      <point x="295" y="441"/>
      <point x="308" y="412"/>
      <point x="308" y="359" type="curve" smooth="yes"/>
      <point x="308" y="354"/>
      <point x="308" y="349"/>
      <point x="306" y="320" type="curve"/>
    </contour>
    <contour>
      <point x="283" y="616" type="curve" smooth="yes"/>
      <point x="363" y="616"/>
      <point x="420" y="673"/>
      <point x="427" y="723" type="curve"/>
      <point x="353" y="723" type="line"/>
      <point x="349" y="709"/>
      <point x="322" y="690"/>
      <point x="288" y="690" type="curve" smooth="yes"/>
      <point x="255" y="690"/>
      <point x="235" y="709"/>
      <point x="234" y="723" type="curve"/>
      <point x="160" y="723" type="line"/>
      <point x="159" y="719"/>
      <point x="159" y="716"/>
      <point x="159" y="712" type="curve" smooth="yes"/>
      <point x="159" y="665"/>
      <point x="204" y="616"/>
    </contour>
  </outline>
</glyph>
<glyph name="Edotaccent" format="1">
  <advance width="547"/>
  <unicode hex="0116"/>
  <outline>
    <contour>
      <point x="319" y="883" type="line"/>
      <point x="302" y="768" type="line"/>
      <point x="409" y="768" type="line"/>
      <point x="426" y="883" type="line"/>
    </contour>
    <contour>
      <point x="466" y="0" type="line"/>
      <point x="482" y="114" type="line"/>
      <point x="170" y="114" type="line"/>
      <point x="196" y="294" type="line"/>
      <point x="458" y="294" type="line"/>
      <point x="474" y="408" type="line"/>
      <point x="212" y="408" type="line"/>
      <point x="235" y="572" type="line"/>
      <point x="540" y="572" type="line"/>
      <point x="556" y="686" type="line"/>
      <point x="124" y="686" type="line"/>
      <point x="28" y="0" type="line"/>
    </contour>
  </outline>
</glyph>
<glyph name="Eogonek" format="1">
  <advance width="547"/>
  <unicode hex="0118"/>
  <outline>
    <contour>
      <point x="323" y="-113" type="curve" smooth="yes"/>
      <point x="323" y="-172"/>
      <point x="368" y="-190"/>
      <point x="410" y="-190" type="curve" smooth="yes"/>
      <point x="432" y="-190"/>
      <point x="454" y="-185"/>
      <point x="478" y="-176" type="curve"/>
      <point x="486" y="-121" type="line"/>
      <point x="464" y="-121" type="line" smooth="yes"/>
      <point x="436" y="-121"/>
      <point x="425" y="-103"/>
      <point x="425" y="-81" type="curve" smooth="yes"/>
      <point x="425" y="-49"/>
      <point x="450" y="-16"/>
      <point x="466" y="0" type="curve"/>
      <point x="482" y="114" type="line"/>
      <point x="170" y="114" type="line"/>
      <point x="196" y="294" type="line"/>
      <point x="458" y="294" type="line"/>
      <point x="474" y="408" type="line"/>
      <point x="212" y="408" type="line"/>
      <point x="235" y="572" type="line"/>
      <point x="540" y="572" type="line"/>
      <point x="556" y="686" type="line"/>
      <point x="124" y="686" type="line"/>
      <point x="28" y="0" type="line"/>
      <point x="381" y="0" type="line"/>
      <point x="350" y="-26"/>
      <point x="323" y="-60"/>
    </contour>
  </outline>
</glyph>
<glyph name="eogonek" format="1">
  <advance width="456"/>
  <unicode hex="0119"/>
  <outline>
    <contour>
      <point x="144" y="-108" type="curve" smooth="yes"/>
      <point x="144" y="-167"/>
      <point x="189" y="-185"/>
      <point x="231" y="-185" type="curve" smooth="yes"/>
      <point x="253" y="-185"/>
      <point x="275" y="-180"/>
      <point x="299" y="-171" type="curve"/>
      <point x="307" y="-116" type="line"/>
      <point x="285" y="-116" type="line" smooth="yes"/>
      <point x="257" y="-116"/>
      <point x="246" y="-98"/>
      <point x="246" y="-76" type="curve" smooth="yes"/>
      <point x="246" y="-44"/>
      <point x="271" y="-11"/>
      <point x="287" y="5" type="curve"/>
      <point x="354" y="36"/>
      <point x="389" y="104"/>
      <point x="407" y="182" type="curve"/>
      <point x="284" y="182" type="line"/>
      <point x="273" y="130"/>
      <point x="248" y="85"/>
      <point x="208" y="85" type="curve" smooth="yes"/>
      <point x="168" y="85"/>
      <point x="153" y="119"/>
      <point x="153" y="187" type="curve" smooth="yes"/>
      <point x="153" y="194"/>
      <point x="153" y="212"/>
      <point x="155" y="233" type="curve"/>
      <point x="418" y="233" type="line"/>
      <point x="426" y="275"/>
      <point x="429" y="320"/>
      <point x="429" y="359" type="curve" smooth="yes"/>
      <point x="429" y="479"/>
      <point x="374" y="538"/>
      <point x="266" y="538" type="curve" smooth="yes"/>
      <point x="78" y="538"/>
      <point x="33" y="345"/>
      <point x="33" y="172" type="curve" smooth="yes"/>
      <point x="33" y="54"/>
      <point x="83" y="-5"/>
      <point x="185" y="-12" type="curve"/>
      <point x="162" y="-36"/>
      <point x="144" y="-65"/>
    </contour>
    <contour>
      <point x="168" y="320" type="line"/>
      <point x="182" y="382"/>
      <point x="209" y="441"/>
      <point x="259" y="441" type="curve" smooth="yes"/>
      <point x="295" y="441"/>
      <point x="308" y="412"/>
      <point x="308" y="359" type="curve" smooth="yes"/>
      <point x="308" y="354"/>
      <point x="308" y="349"/>
      <point x="306" y="320" type="curve"/>
    </contour>
  </outline>
</glyph>
<glyph name="Ecaron" format="1">
  <advance width="547"/>
  <unicode hex="011A"/>
  <outline>
    <contour>
      <point x="237" y="883" type="line"/>
      <point x="304" y="748" type="line"/>
      <point x="402" y="748" type="line"/>
      <point x="506" y="883" type="line"/>
      <point x="412" y="883" type="line"/>
      <point x="362" y="814" type="line"/>
      <point x="327" y="883" type="line"/>
    </contour>
    <contour>
      <point x="466" y="0" type="line"/>
      <point x="482" y="114" type="line"/>
      <point x="170" y="114" type="line"/>
      <point x="196" y="294" type="line"/>
      <point x="458" y="294" type="line"/>
      <point x="474" y="408" type="line"/>
      <point x="212" y="408" type="line"/>
      <point x="235" y="572" type="line"/>
      <point x="540" y="572" type="line"/>
      <point x="556" y="686" type="line"/>
      <point x="124" y="686" type="line"/>
      <point x="28" y="0" type="line"/>
    </contour>
  </outline>
</glyph>
<glyph name="Gcircumflex" format="1">
  <advance width="638"/>
  <unicode hex="011C"/>
  <outline>
    <contour>
      <point x="45" y="250" type="curve" smooth="yes"/>
      <point x="45" y="72"/>
      <point x="127" y="-12"/>
      <point x="269" y="-12" type="curve" smooth="yes"/>
      <point x="350" y="-12"/>
      <point x="412" y="22"/>
      <point x="458" y="76" type="curve"/>
      <point x="470" y="0" type="line"/>
      <point x="552" y="0" type="line"/>
      <point x="604" y="373" type="line"/>
      <point x="322" y="373" type="line"/>
      <point x="306" y="263" type="line"/>
      <point x="459" y="263" type="line"/>
      <point x="443" y="164"/>
      <point x="392" y="98"/>
      <point x="297" y="98" type="curve" smooth="yes"/>
      <point x="212" y="98"/>
      <point x="174" y="156"/>
      <point x="174" y="255" type="curve" smooth="yes"/>
      <point x="174" y="383"/>
      <point x="211" y="588"/>
      <point x="372" y="588" type="curve" smooth="yes"/>
      <point x="440" y="588"/>
      <point x="483" y="542"/>
      <point x="483" y="456" type="curve" smooth="yes"/>
      <point x="483" y="447" type="line"/>
      <point x="613" y="447" type="line"/>
      <point x="613" y="616"/>
      <point x="518" y="698"/>
      <point x="367" y="698" type="curve" smooth="yes"/>
      <point x="130" y="698"/>
      <point x="45" y="451"/>
    </contour>
    <contour>
      <point x="347" y="883" type="line"/>
      <point x="243" y="748" type="line"/>
      <point x="336" y="748" type="line"/>
      <point x="387" y="817" type="line"/>
      <point x="421" y="748" type="line"/>
      <point x="511" y="748" type="line"/>
      <point x="445" y="883" type="line"/>
    </contour>
  </outline>
</glyph>
<glyph name="Gbreve" format="1">
  <advance width="638"/>
  <unicode hex="011E"/>
  <outline>
    <contour>
      <point x="45" y="250" type="curve" smooth="yes"/>
      <point x="45" y="72"/>
      <point x="127" y="-12"/>
      <point x="269" y="-12" type="curve" smooth="yes"/>
      <point x="350" y="-12"/>
      <point x="412" y="22"/>
      <point x="458" y="76" type="curve"/>
      <point x="470" y="0" type="line"/>
      <point x="552" y="0" type="line"/>
      <point x="604" y="373" type="line"/>
      <point x="322" y="373" type="line"/>
      <point x="306" y="263" type="line"/>
      <point x="459" y="263" type="line"/>
      <point x="443" y="164"/>
      <point x="392" y="98"/>
      <point x="297" y="98" type="curve" smooth="yes"/>
      <point x="212" y="98"/>
      <point x="174" y="156"/>
      <point x="174" y="255" type="curve" smooth="yes"/>
      <point x="174" y="383"/>
      <point x="211" y="588"/>
      <point x="372" y="588" type="curve" smooth="yes"/>
      <point x="440" y="588"/>
      <point x="483" y="542"/>
      <point x="483" y="456" type="curve" smooth="yes"/>
      <point x="483" y="447" type="line"/>
      <point x="613" y="447" type="line"/>
      <point x="613" y="616"/>
      <point x="518" y="698"/>
      <point x="367" y="698" type="curve" smooth="yes"/>
      <point x="130" y="698"/>
      <point x="45" y="451"/>
    </contour>
    <contour>
      <point x="386" y="776" type="curve" smooth="yes"/>
      <point x="466" y="776"/>
      <point x="523" y="833"/>
      <point x="530" y="883" type="curve"/>
      <point x="456" y="883" type="line"/>
      <point x="452" y="869"/>
      <point x="425" y="850"/>
      <point x="391" y="850" type="curve" smooth="yes"/>
      <point x="358" y="850"/>
      <point x="338" y="869"/>
      <point x="337" y="883" type="curve"/>
      <point x="263" y="883" type="line"/>
      <point x="262" y="879"/>
      <point x="262" y="876"/>
      <point x="262" y="872" type="curve" smooth="yes"/>
      <point x="262" y="825"/>
      <point x="307" y="776"/>
    </contour>
  </outline>
</glyph>
<glyph name="gdotaccent" format="1">
  <advance width="501"/>
  <unicode hex="0121"/>
  <outline>
    <contour>
      <point x="258" y="723" type="line"/>
      <point x="241" y="608" type="line"/>
      <point x="348" y="608" type="line"/>
      <point x="365" y="723" type="line"/>
    </contour>
    <contour>
      <point x="241" y="538" type="curve" smooth="yes"/>
      <point x="82" y="538"/>
      <point x="36" y="318"/>
      <point x="36" y="187" type="curve" smooth="yes"/>
      <point x="36" y="66"/>
      <point x="101" y="14"/>
      <point x="181" y="14" type="curve" smooth="yes"/>
      <point x="228" y="14"/>
      <point x="272" y="41"/>
      <point x="300" y="79" type="curve"/>
      <point x="292" y="25" type="line" smooth="yes"/>
      <point x="281" y="-46"/>
      <point x="247" y="-81"/>
      <point x="192" y="-81" type="curve" smooth="yes"/>
      <point x="148" y="-81"/>
      <point x="129" y="-60"/>
      <point x="129" y="-24" type="curve"/>
      <point x="7" y="-24" type="line"/>
      <point x="7" y="-108"/>
      <point x="64" y="-182"/>
      <point x="184" y="-182" type="curve" smooth="yes"/>
      <point x="313" y="-182"/>
      <point x="390" y="-115"/>
      <point x="413" y="49" type="curve" smooth="yes"/>
      <point x="480" y="526" type="line"/>
      <point x="386" y="526" type="line"/>
      <point x="363" y="456" type="line"/>
      <point x="340" y="513"/>
      <point x="295" y="538"/>
    </contour>
    <contour>
      <point x="223" y="117" type="curve" smooth="yes"/>
      <point x="181" y="117"/>
      <point x="158" y="144"/>
      <point x="158" y="196" type="curve" smooth="yes"/>
      <point x="158" y="264"/>
      <point x="172" y="429"/>
      <point x="268" y="429" type="curve" smooth="yes"/>
      <point x="314" y="429"/>
      <point x="333" y="396"/>
      <point x="333" y="338" type="curve" smooth="yes"/>
      <point x="333" y="270"/>
      <point x="313" y="117"/>
    </contour>
  </outline>
</glyph>
<glyph name="Hcircumflex" format="1">
  <advance width="592"/>
  <unicode hex="0124"/>
  <outline>
    <contour>
      <point x="338" y="883" type="line"/>
      <point x="234" y="748" type="line"/>
      <point x="327" y="748" type="line"/>
      <point x="378" y="817" type="line"/>
      <point x="412" y="748" type="line"/>
      <point x="502" y="748" type="line"/>
      <point x="436" y="883" type="line"/>
    </contour>
    <contour>
      <point x="368" y="0" type="line"/>
      <point x="495" y="0" type="line"/>
      <point x="591" y="686" type="line"/>
      <point x="464" y="686" type="line"/>
      <point x="426" y="408" type="line"/>
      <point x="212" y="408" type="line"/>
      <point x="251" y="686" type="line"/>
      <point x="124" y="686" type="line"/>
      <point x="28" y="0" type="line"/>
      <point x="155" y="0" type="line"/>
      <point x="196" y="294" type="line"/>
      <point x="410" y="294" type="line"/>
    </contour>
  </outline>
</glyph>
<glyph name="hcircumflex" format="1">
  <advance width="501"/>
  <unicode hex="0125"/>
  <outline>
    <contour>
      <point x="123" y="723" type="line"/>
      <point x="23" y="0" type="line"/>
      <point x="142" y="0" type="line"/>
      <point x="186" y="316" type="line" smooth="yes"/>
      <point x="196" y="389"/>
      <point x="237" y="429"/>
      <point x="283" y="429" type="curve" smooth="yes"/>
      <point x="324" y="429"/>
      <point x="341" y="409"/>
      <point x="341" y="363" type="curve" smooth="yes"/>
      <point x="341" y="355"/>
      <point x="340" y="346"/>
      <point x="292" y="0" type="curve"/>
      <point x="410" y="0" type="line"/>
      <point x="460" y="372"/>
      <point x="463" y="376"/>
      <point x="463" y="403" type="curve" smooth="yes"/>
      <point x="463" y="487"/>
      <point x="420" y="538"/>
      <point x="336" y="538" type="curve" smooth="yes"/>
      <point x="277" y="538"/>
      <point x="237" y="509"/>
      <point x="206" y="471" type="curve"/>
      <point x="242" y="723" type="line"/>
    </contour>
    <contour>
      <point x="154" y="883" type="line"/>
      <point x="50" y="748" type="line"/>
      <point x="143" y="748" type="line"/>
      <point x="194" y="817" type="line"/>
      <point x="228" y="748" type="line"/>
      <point x="318" y="748" type="line"/>
      <point x="252" y="883" type="line"/>
    </contour>
  </outline>
</glyph>
<glyph name="Hbar" format="1">
  <advance width="592"/>
  <unicode hex="0126"/>
  <outline>
    <contour>
      <point x="124" y="686" type="line"/>
      <point x="109" y="577" type="line"/>
      <point x="60" y="577" type="line"/>
      <point x="47" y="490" type="line"/>
      <point x="96" y="490" type="line"/>
      <point x="28" y="0" type="line"/>
      <point x="155" y="0" type="line"/>
      <point x="195" y="286" type="line"/>
      <point x="409" y="286" type="line"/>
      <point x="368" y="0" type="line"/>
      <point x="495" y="0" type="line"/>
      <point x="563" y="490" type="line"/>
      <point x="611" y="490" type="line"/>
      <point x="625" y="577" type="line"/>
      <point x="575" y="577" type="line"/>
      <point x="591" y="686" type="line"/>
      <point x="464" y="686" type="line"/>
      <point x="449" y="577" type="line"/>
      <point x="236" y="577" type="line"/>
      <point x="251" y="686" type="line"/>
    </contour>
    <contour>
      <point x="211" y="400" type="line"/>
      <point x="223" y="490" type="line"/>
      <point x="437" y="490" type="line"/>
      <point x="425" y="400" type="line"/>
    </contour>
  </outline>
</glyph>
<glyph name="hbar" format="1">
  <advance width="501"/>
  <unicode hex="0127"/>
  <outline>
    <contour>
      <point x="123" y="723" type="line"/>
      <point x="116" y="670" type="line"/>
      <point x="58" y="670" type="line"/>
      <point x="45" y="583" type="line"/>
      <point x="104" y="583" type="line"/>
      <point x="23" y="0" type="line"/>
      <point x="142" y="0" type="line"/>
      <point x="186" y="316" type="line"/>
      <point x="196" y="389"/>
      <point x="237" y="429"/>
      <point x="283" y="429" type="curve" smooth="yes"/>
      <point x="324" y="429"/>
      <point x="341" y="409"/>
      <point x="341" y="363" type="curve" smooth="yes"/>
      <point x="341" y="355"/>
      <point x="340" y="346"/>
      <point x="292" y="0" type="curve"/>
      <point x="410" y="0" type="line"/>
      <point x="460" y="372"/>
      <point x="463" y="376"/>
      <point x="463" y="403" type="curve" smooth="yes"/>
      <point x="463" y="487"/>
      <point x="420" y="538"/>
      <point x="336" y="538" type="curve" smooth="yes"/>
      <point x="277" y="538"/>
      <point x="237" y="509"/>
      <point x="206" y="471" type="curve"/>
      <point x="222" y="583" type="line"/>
      <point x="352" y="583" type="line"/>
      <point x="364" y="670" type="line"/>
      <point x="234" y="670" type="line"/>
      <point x="242" y="723" type="line"/>
    </contour>
  </outline>
</glyph>
<glyph name="Itilde" format="1">
  <advance width="228"/>
  <unicode hex="0128"/>
  <outline>
    <contour>
      <point x="114" y="686" type="line"/>
      <point x="18" y="0" type="line"/>
      <point x="145" y="0" type="line"/>
      <point x="241" y="686" type="line"/>
    </contour>
    <contour>
      <point x="91" y="761" type="line"/>
      <point x="99" y="788"/>
      <point x="114" y="798"/>
      <point x="135" y="798" type="curve" smooth="yes"/>
      <point x="179" y="798"/>
      <point x="213" y="761"/>
      <point x="260" y="761" type="curve" smooth="yes"/>
      <point x="331" y="761"/>
      <point x="375" y="828"/>
      <point x="375" y="883" type="curve"/>
      <point x="310" y="883" type="line"/>
      <point x="302" y="855"/>
      <point x="287" y="846"/>
      <point x="266" y="846" type="curve" smooth="yes"/>
      <point x="222" y="846"/>
      <point x="188" y="883"/>
      <point x="140" y="883" type="curve" smooth="yes"/>
      <point x="70" y="883"/>
      <point x="27" y="814"/>
      <point x="27" y="761" type="curve"/>
    </contour>
  </outline>
</glyph>
<glyph name="itilde" format="1">
  <advance width="228"/>
  <unicode hex="0129"/>
  <outline>
    <contour>
      <point x="96" y="526" type="line"/>
      <point x="23" y="0" type="line"/>
      <point x="142" y="0" type="line"/>
      <point x="215" y="526" type="line"/>
    </contour>
    <contour>
      <point x="67" y="601" type="line"/>
      <point x="75" y="628"/>
      <point x="90" y="638"/>
      <point x="111" y="638" type="curve" smooth="yes"/>
      <point x="155" y="638"/>
      <point x="189" y="601"/>
      <point x="236" y="601" type="curve" smooth="yes"/>
      <point x="307" y="601"/>
      <point x="351" y="668"/>
      <point x="351" y="723" type="curve"/>
      <point x="286" y="723" type="line"/>
      <point x="278" y="695"/>
      <point x="263" y="686"/>
      <point x="242" y="686" type="curve" smooth="yes"/>
      <point x="198" y="686"/>
      <point x="164" y="723"/>
      <point x="116" y="723" type="curve" smooth="yes"/>
      <point x="46" y="723"/>
      <point x="3" y="654"/>
      <point x="3" y="601" type="curve"/>
    </contour>
  </outline>
</glyph>
<glyph name="Imacron" format="1">
  <advance width="228"/>
  <unicode hex="012A"/>
  <outline>
    <contour>
      <point x="114" y="686" type="line"/>
      <point x="18" y="0" type="line"/>
      <point x="145" y="0" type="line"/>
      <point x="241" y="686" type="line"/>
    </contour>
    <contour>
      <point x="72" y="846" type="line"/>
      <point x="59" y="759" type="line"/>
      <point x="314" y="759" type="line"/>
      <point x="327" y="846" type="line"/>
    </contour>
  </outline>
</glyph>
<glyph name="imacron" format="1">
  <advance width="228"/>
  <unicode hex="012B"/>
  <outline>
    <contour>
      <point x="96" y="526" type="line"/>
      <point x="23" y="0" type="line"/>
      <point x="142" y="0" type="line"/>
      <point x="215" y="526" type="line"/>
    </contour>
    <contour>
      <point x="49" y="686" type="line"/>
      <point x="36" y="599" type="line"/>
      <point x="291" y="599" type="line"/>
      <point x="304" y="686" type="line"/>
    </contour>
  </outline>
</glyph>
<glyph name="Ibreve" format="1">
  <advance width="228"/>
  <unicode hex="012C"/>
  <outline>
    <contour>
      <point x="114" y="686" type="line"/>
      <point x="18" y="0" type="line"/>
      <point x="145" y="0" type="line"/>
      <point x="241" y="686" type="line"/>
    </contour>
    <contour>
      <point x="195" y="776" type="curve" smooth="yes"/>
      <point x="275" y="776"/>
      <point x="332" y="833"/>
      <point x="339" y="883" type="curve"/>
      <point x="265" y="883" type="line"/>
      <point x="261" y="869"/>
      <point x="234" y="850"/>
      <point x="200" y="850" type="curve" smooth="yes"/>
      <point x="167" y="850"/>
      <point x="147" y="869"/>
      <point x="146" y="883" type="curve"/>
      <point x="72" y="883" type="line"/>
      <point x="71" y="879"/>
      <point x="71" y="876"/>
      <point x="71" y="872" type="curve" smooth="yes"/>
      <point x="71" y="825"/>
      <point x="116" y="776"/>
    </contour>
  </outline>
</glyph>
<glyph name="ibreve" format="1">
  <advance width="228"/>
  <unicode hex="012D"/>
  <outline>
    <contour>
      <point x="96" y="526" type="line"/>
      <point x="23" y="0" type="line"/>
      <point x="142" y="0" type="line"/>
      <point x="215" y="526" type="line"/>
    </contour>
    <contour>
      <point x="172" y="616" type="curve" smooth="yes"/>
      <point x="252" y="616"/>
      <point x="309" y="673"/>
      <point x="316" y="723" type="curve"/>
      <point x="242" y="723" type="line"/>
      <point x="238" y="709"/>
      <point x="211" y="690"/>
      <point x="177" y="690" type="curve" smooth="yes"/>
      <point x="144" y="690"/>
      <point x="124" y="709"/>
      <point x="123" y="723" type="curve"/>
      <point x="49" y="723" type="line"/>
      <point x="48" y="719"/>
      <point x="48" y="716"/>
      <point x="48" y="712" type="curve" smooth="yes"/>
      <point x="48" y="665"/>
      <point x="93" y="616"/>
    </contour>
  </outline>
</glyph>
<glyph name="Iogonek" format="1">
  <advance width="228"/>
  <unicode hex="012E"/>
  <outline>
    <contour>
      <point x="2" y="-113" type="curve" smooth="yes"/>
      <point x="2" y="-172"/>
      <point x="47" y="-190"/>
      <point x="89" y="-190" type="curve" smooth="yes"/>
      <point x="111" y="-190"/>
      <point x="133" y="-185"/>
      <point x="157" y="-176" type="curve"/>
      <point x="165" y="-121" type="line"/>
      <point x="143" y="-121" type="line" smooth="yes"/>
      <point x="115" y="-121"/>
      <point x="104" y="-103"/>
      <point x="104" y="-81" type="curve" smooth="yes"/>
      <point x="104" y="-49"/>
      <point x="129" y="-16"/>
      <point x="145" y="0" type="curve"/>
      <point x="241" y="686" type="line"/>
      <point x="114" y="686" type="line"/>
      <point x="18" y="0" type="line"/>
      <point x="60" y="0" type="line"/>
      <point x="29" y="-26"/>
      <point x="2" y="-60"/>
    </contour>
  </outline>
</glyph>
<glyph name="iogonek" format="1">
  <advance width="228"/>
  <unicode hex="012F"/>
  <outline>
    <contour>
      <point x="-1" y="-113" type="curve" smooth="yes"/>
      <point x="-1" y="-172"/>
      <point x="44" y="-190"/>
      <point x="86" y="-190" type="curve" smooth="yes"/>
      <point x="108" y="-190"/>
      <point x="130" y="-185"/>
      <point x="154" y="-176" type="curve"/>
      <point x="162" y="-121" type="line"/>
      <point x="140" y="-121" type="line" smooth="yes"/>
      <point x="112" y="-121"/>
      <point x="101" y="-103"/>
      <point x="101" y="-81" type="curve" smooth="yes"/>
      <point x="101" y="-49"/>
      <point x="126" y="-16"/>
      <point x="142" y="0" type="curve"/>
      <point x="215" y="526" type="line"/>
      <point x="96" y="526" type="line"/>
      <point x="23" y="0" type="line"/>
      <point x="57" y="0" type="line"/>
      <point x="26" y="-26"/>
      <point x="-1" y="-60"/>
    </contour>
    <contour>
      <point x="129" y="723" type="line"/>
      <point x="112" y="608" type="line"/>
      <point x="219" y="608" type="line"/>
      <point x="236" y="723" type="line"/>
    </contour>
  </outline>
</glyph>
<glyph name="Idotaccent" format="1">
  <advance width="228"/>
  <unicode hex="0130"/>
  <outline>
    <contour>
      <point x="114" y="686" type="line"/>
      <point x="18" y="0" type="line"/>
      <point x="145" y="0" type="line"/>
      <point x="241" y="686" type="line"/>
    </contour>
    <contour>
      <point x="153" y="883" type="line"/>
      <point x="136" y="768" type="line"/>
      <point x="243" y="768" type="line"/>
      <point x="260" y="883" type="line"/>
    </contour>
  </outline>
</glyph>
<glyph name="dotlessi" format="1">
  <advance width="228"/>
  <unicode hex="0131"/>
  <outline>
    <contour>
      <point x="96" y="526" type="line"/>
      <point x="23" y="0" type="line"/>
      <point x="142" y="0" type="line"/>
      <point x="215" y="526" type="line"/>
    </contour>
    <contour>
      <point x="154" y="526" type="move" name="top"/>
    </contour>
    <contour>
      <point x="142" y="0" type="move" name="ogonek"/>
    </contour>
  </outline>
</glyph>
<glyph name="IJ" format="1">
  <advance width="684"/>
  <unicode hex="0132"/>
  <outline>
    <contour>
      <point x="114" y="686" type="line"/>
      <point x="18" y="0" type="line"/>
      <point x="145" y="0" type="line"/>
      <point x="241" y="686" type="line"/>
    </contour>
    <contour>
      <point x="240" y="216" type="line"/>
      <point x="231" y="151"/>
      <point x="230" y="140"/>
      <point x="230" y="129" type="curve" smooth="yes"/>
      <point x="230" y="37"/>
      <point x="297" y="-12"/>
      <point x="416" y="-12" type="curve" smooth="yes"/>
      <point x="526" y="-12"/>
      <point x="595" y="49"/>
      <point x="611" y="163" type="curve" smooth="yes"/>
      <point x="685" y="686" type="line"/>
      <point x="558" y="686" type="line"/>
      <point x="486" y="173" type="line" smooth="yes"/>
      <point x="479" y="125"/>
      <point x="457" y="98"/>
      <point x="416" y="98" type="curve" smooth="yes"/>
      <point x="375" y="98"/>
      <point x="354" y="119"/>
      <point x="354" y="158" type="curve" smooth="yes"/>
      <point x="354" y="162"/>
      <point x="354" y="168"/>
      <point x="361" y="216" type="curve"/>
    </contour>
  </outline>
</glyph>
<glyph name="ij" format="1">
  <advance width="456"/>
  <unicode hex="0133"/>
  <outline>
    <contour>
      <point x="123" y="723" type="line"/>
      <point x="108" y="614" type="line"/>
      <point x="227" y="614" type="line"/>
      <point x="242" y="723" type="line"/>
    </contour>
    <contour>
      <point x="96" y="526" type="line"/>
      <point x="23" y="0" type="line"/>
      <point x="142" y="0" type="line"/>
      <point x="215" y="526" type="line"/>
    </contour>
    <contour>
      <point x="351" y="723" type="line"/>
      <point x="336" y="614" type="line"/>
      <point x="454" y="614" type="line"/>
      <point x="469" y="723" type="line"/>
    </contour>
    <contour>
      <point x="323" y="526" type="line"/>
      <point x="246" y="-33" type="line"/>
      <point x="241" y="-64"/>
      <point x="224" y="-81"/>
      <point x="193" y="-81" type="curve" smooth="yes"/>
      <point x="150" y="-81" type="line"/>
      <point x="138" y="-170" type="line"/>
      <point x="157" y="-176"/>
      <point x="194" y="-182"/>
      <point x="224" y="-182" type="curve" smooth="yes"/>
      <point x="318" y="-182"/>
      <point x="353" y="-111"/>
      <point x="363" y="-41" type="curve" smooth="yes"/>
      <point x="442" y="526" type="line"/>
    </contour>
  </outline>
</glyph>
